<svg xmlns="http://www.w3.org/2000/svg" width="32" height="31" fill="none" viewBox="0 0 32 31">
    <path fill="#FFECAC" d="M15.62 1.17c.12-.368.64-.368.76 0l3.347 10.3c.053.165.207.276.38.276h10.83c.387 0 .548.496.235.724l-8.761 6.365c-.14.102-.2.283-.146.447l3.347 10.3c.12.369-.302.675-.616.447l-8.76-6.365c-.141-.102-.33-.102-.471 0l-8.761 6.365c-.314.228-.736-.078-.616-.447l3.347-10.3c.053-.164-.006-.345-.146-.447L.828 12.47c-.313-.228-.152-.724.235-.724h10.83c.173 0 .326-.111.38-.276l3.347-10.3z"/>
</svg>
