<svg xmlns="http://www.w3.org/2000/svg" width="146" height="44" fill="none" viewBox="0 0 146 44">
    <path stroke="#4D4A4A" d="M139.5.5H6.5c-3.314 0-6 2.686-6 6v31c0 3.314 2.686 6 6 6h133c3.314 0 6-2.686 6-6v-31c0-3.314-2.686-6-6-6z"/>
    <path fill="#4D4A4A" d="M52.416 35l-.784-2.256h-4.768L46.08 35h-2l4.064-11.2h2.208L54.4 35h-1.984zm-4.944-3.984h3.552l-1.776-5.056-1.776 5.056zm12.548-4.224c1.099 0 2.038.41 2.816 1.232.779.81 1.168 1.803 1.168 2.976 0 1.184-.389 2.181-1.168 2.992-.778.81-1.717 1.216-2.816 1.216-1.216 0-2.149-.448-2.8-1.344V38.2h-1.728V27h1.728v1.152c.651-.907 1.584-1.36 2.8-1.36zm-2.08 6.048c.48.48 1.083.72 1.808.72.726 0 1.328-.24 1.808-.72.48-.49.72-1.104.72-1.84s-.24-1.344-.72-1.824c-.48-.49-1.082-.736-1.808-.736-.725 0-1.328.245-1.808.736-.48.48-.72 1.088-.72 1.824s.24 1.35.72 1.84zM70.1 26.792c1.098 0 2.037.41 2.816 1.232.778.81 1.167 1.803 1.167 2.976 0 1.184-.389 2.181-1.167 2.992-.78.81-1.718 1.216-2.817 1.216-1.216 0-2.149-.448-2.8-1.344V38.2H65.57V27H67.3v1.152c.65-.907 1.583-1.36 2.8-1.36zm-2.08 6.048c.48.48 1.082.72 1.807.72.726 0 1.329-.24 1.809-.72.48-.49.72-1.104.72-1.84s-.24-1.344-.72-1.824c-.48-.49-1.083-.736-1.809-.736-.725 0-1.327.245-1.807.736-.48.48-.72 1.088-.72 1.824s.24 1.35.72 1.84zm15.47 2.368c-1.078 0-1.995-.245-2.752-.736-.747-.49-1.27-1.163-1.568-2.016l1.584-.928c.448 1.259 1.376 1.888 2.784 1.888.693 0 1.21-.133 1.552-.4.352-.277.528-.635.528-1.072 0-.459-.187-.805-.56-1.04-.374-.245-1.035-.512-1.984-.8-.534-.16-.966-.31-1.296-.448-.331-.139-.683-.33-1.056-.576-.363-.256-.635-.57-.816-.944-.182-.373-.272-.81-.272-1.312 0-.992.352-1.776 1.056-2.352.704-.587 1.552-.88 2.544-.88.896 0 1.68.219 2.352.656.672.437 1.189 1.04 1.552 1.808l-1.552.896c-.47-1.045-1.254-1.568-2.352-1.568-.534 0-.96.128-1.28.384-.32.245-.48.581-.48 1.008 0 .416.16.747.48.992.33.235.922.485 1.776.752.426.139.736.245.928.32.202.064.48.17.832.32.362.15.634.299.816.448.181.15.373.336.576.56.213.224.362.48.448.768.085.288.128.613.128.976 0 1.013-.368 1.819-1.104 2.416-.726.587-1.68.88-2.864.88zm9.67-6.544h-1.984v3.84c0 .33.075.57.225.72.149.139.367.219.655.24.3.01.667.005 1.104-.016V35c-1.322.16-2.272.048-2.848-.336-.576-.395-.864-1.115-.864-2.16v-3.84h-1.472V27h1.473v-1.728l1.728-.512V27h1.983v1.664zm5.016 6.544c-1.174 0-2.171-.405-2.992-1.216-.822-.81-1.232-1.808-1.232-2.992s.41-2.181 1.232-2.992c.821-.81 1.818-1.216 2.992-1.216 1.184 0 2.181.405 2.992 1.216.821.81 1.232 1.808 1.232 2.992s-.411 2.181-1.232 2.992c-.811.81-1.808 1.216-2.992 1.216zm-1.776-2.4c.48.48 1.072.72 1.776.72s1.296-.24 1.776-.72.72-1.083.72-1.808c0-.725-.24-1.328-.72-1.808s-1.072-.72-1.776-.72-1.296.24-1.776.72-.72 1.083-.72 1.808c0 .725.24 1.328.72 1.808zm9.29-4.464c.437-.992 1.259-1.488 2.464-1.488v1.872c-.661-.043-1.237.117-1.728.48-.491.352-.736.939-.736 1.76V35h-1.728v-8h1.728v1.344zm4.726 3.392c.128.608.421 1.077.88 1.408.459.32 1.019.48 1.68.48.917 0 1.605-.33 2.064-.992l1.424.832c-.789 1.163-1.957 1.744-3.504 1.744-1.301 0-2.352-.395-3.152-1.184-.8-.8-1.2-1.808-1.2-3.024 0-1.195.395-2.192 1.184-2.992.789-.81 1.803-1.216 3.04-1.216 1.173 0 2.133.41 2.88 1.232.757.821 1.136 1.819 1.136 2.992 0 .181-.021.421-.064.72h-6.368zm-.016-1.408h4.704c-.117-.65-.389-1.141-.816-1.472-.416-.33-.907-.496-1.472-.496-.64 0-1.173.176-1.6.528-.427.352-.699.832-.816 1.44zM47.132 10.7c.858 0 1.569.306 2.133.918.57.606.855 1.35.855 2.232 0 .882-.285 1.629-.855 2.241-.564.606-1.275.909-2.133.909h-2.457v-6.3h2.457zm0 5.508c.642 0 1.167-.225 1.575-.675.408-.45.612-1.011.612-1.683 0-.672-.204-1.233-.612-1.683-.408-.45-.933-.675-1.575-.675h-1.62v4.716h1.62zm7.72.225c-.462.456-1.023.684-1.683.684-.66 0-1.221-.228-1.683-.684-.456-.456-.684-1.017-.684-1.683 0-.666.228-1.227.684-1.683.462-.456 1.023-.684 1.683-.684.66 0 1.221.228 1.683.684.462.456.693 1.017.693 1.683 0 .666-.231 1.227-.693 1.683zm-1.683-.081c.45 0 .828-.153 1.134-.459.306-.306.459-.687.459-1.143 0-.456-.153-.837-.459-1.143-.306-.306-.684-.459-1.134-.459-.444 0-.819.153-1.125.459-.306.306-.459.687-.459 1.143 0 .456.153.837.459 1.143.306.306.681.459 1.125.459zm8.424-3.852h.82L61.016 17h-.8l-1.054-3.33L58.11 17h-.8l-1.396-4.5h.82l.99 3.42 1.061-3.42h.756l1.062 3.429.99-3.429zm3.866-.117c.528 0 .951.168 1.269.504.318.33.477.78.477 1.35V17h-.783v-2.718c0-.366-.099-.648-.297-.846-.198-.204-.471-.306-.819-.306-.39 0-.705.123-.945.369-.24.24-.36.612-.36 1.116V17h-.783v-4.5h.783v.648c.318-.51.804-.765 1.458-.765zM68.299 17v-6.57h.782V17h-.783zm5.775-.567c-.462.456-1.023.684-1.683.684-.66 0-1.221-.228-1.683-.684-.456-.456-.684-1.017-.684-1.683 0-.666.228-1.227.684-1.683.462-.456 1.023-.684 1.683-.684.66 0 1.22.228 1.683.684.462.456.693 1.017.693 1.683 0 .666-.231 1.227-.693 1.683zm-1.683-.081c.45 0 .828-.153 1.134-.459.306-.306.459-.687.459-1.143 0-.456-.153-.837-.46-1.143-.305-.306-.683-.459-1.133-.459-.444 0-.82.153-1.125.459-.306.306-.46.687-.46 1.143 0 .456.154.837.46 1.143.306.306.68.459 1.125.459zm7.025-3.852h.783V17h-.783v-.774c-.39.594-.957.891-1.701.891-.63 0-1.167-.228-1.611-.684-.444-.462-.666-1.023-.666-1.683 0-.66.222-1.218.666-1.674.444-.462.98-.693 1.61-.693.745 0 1.312.297 1.702.891V12.5zm-1.602 3.861c.456 0 .837-.153 1.143-.459.306-.312.459-.696.459-1.152 0-.456-.153-.837-.46-1.143-.305-.312-.686-.468-1.142-.468-.45 0-.828.156-1.134.468-.306.306-.46.687-.46 1.143 0 .456.154.84.46 1.152.306.306.684.459 1.134.459zM85.11 10.7h.783V17h-.783v-.774c-.39.594-.957.891-1.701.891-.63 0-1.167-.228-1.611-.684-.444-.462-.666-1.023-.666-1.683 0-.66.222-1.218.666-1.674.444-.462.981-.693 1.611-.693.744 0 1.311.297 1.701.891V10.7zm-1.602 5.661c.456 0 .837-.153 1.143-.459.306-.312.459-.696.459-1.152 0-.456-.153-.837-.459-1.143-.306-.312-.687-.468-1.143-.468-.45 0-.828.156-1.134.468-.306.306-.459.687-.459 1.143 0 .456.153.84.459 1.152.306.306.684.459 1.134.459zm9.62.072c-.463.456-1.024.684-1.684.684-.66 0-1.22-.228-1.683-.684-.456-.456-.684-1.017-.684-1.683 0-.666.228-1.227.684-1.683.462-.456 1.023-.684 1.683-.684.66 0 1.221.228 1.683.684.462.456.693 1.017.693 1.683 0 .666-.23 1.227-.693 1.683zm-1.684-.081c.45 0 .828-.153 1.134-.459.306-.306.46-.687.46-1.143 0-.456-.154-.837-.46-1.143-.306-.306-.684-.459-1.134-.459-.444 0-.819.153-1.125.459-.306.306-.459.687-.459 1.143 0 .456.153.837.46 1.143.305.306.68.459 1.124.459zm5.54-3.969c.528 0 .951.168 1.27.504.317.33.476.78.476 1.35V17h-.783v-2.718c0-.366-.099-.648-.297-.846-.198-.204-.47-.306-.819-.306-.39 0-.705.123-.945.369-.24.24-.36.612-.36 1.116V17h-.783v-4.5h.783v.648c.318-.51.804-.765 1.458-.765zm7.537.873h-1.197v2.439c0 .222.042.381.126.477.09.09.225.138.405.144.18 0 .402-.006.666-.018V17c-.684.09-1.185.036-1.503-.162-.318-.204-.477-.585-.477-1.143v-2.439h-.891V12.5h.891v-1.026l.783-.234v1.26h1.197v.756zm3.168-.873c.528 0 .951.168 1.269.504.318.33.477.78.477 1.35V17h-.783v-2.718c0-.366-.099-.648-.297-.846-.198-.204-.471-.306-.819-.306-.39 0-.705.123-.945.369-.24.24-.36.612-.36 1.116V17h-.783v-6.3h.783v2.448c.318-.51.804-.765 1.458-.765zm3.389 2.727c.078.402.261.714.549.936.294.222.654.333 1.08.333.594 0 1.026-.219 1.296-.657l.666.378c-.438.678-1.098 1.017-1.98 1.017-.714 0-1.296-.222-1.746-.666-.444-.45-.666-1.017-.666-1.701 0-.678.219-1.242.657-1.692.438-.45 1.005-.675 1.701-.675.66 0 1.197.234 1.611.702.42.462.63 1.02.63 1.674 0 .114-.009.231-.027.351h-3.771zm1.557-1.989c-.42 0-.768.12-1.044.36-.276.234-.447.549-.513.945h3.006c-.066-.426-.234-.75-.504-.972-.27-.222-.585-.333-.945-.333zM28.096 23.256c0-3.348 2.808-4.968 2.916-5.076-1.62-2.268-3.996-2.592-4.86-2.7-2.052-.216-4.104 1.188-5.076 1.188-1.08 0-2.7-1.188-4.428-1.188-2.268 0-4.32 1.296-5.508 3.348-2.376 4.104-.648 10.152 1.62 13.5 1.188 1.62 2.484 3.456 4.212 3.348 1.728-.108 2.376-1.08 4.428-1.08s2.592 1.08 4.428 1.08c1.836 0 3.024-1.62 4.104-3.24 1.296-1.836 1.836-3.672 1.836-3.78-.108-.108-3.672-1.404-3.672-5.4zM24.748 13.32c.864-1.188 1.512-2.7 1.404-4.32-1.296.108-3.024.864-3.888 2.052-.864.972-1.62 2.592-1.404 4.104 1.404.108 2.916-.756 3.888-1.836z"/>
    <path fill="#fff" fill-rule="evenodd" d="M119.54 35.44h-.105v-.105h.105-.105v.105h.105zM119.855 35.335h-.105.105v.105-.105z" clip-rule="evenodd"/>
</svg>
