<svg xmlns="http://www.w3.org/2000/svg" width="146" height="44" fill="none" viewBox="0 0 146 44">
    <path stroke="#4D4A4A" d="M139.5.5H6.5c-3.314 0-6 2.686-6 6v31c0 3.314 2.686 6 6 6h133c3.314 0 6-2.686 6-6v-31c0-3.314-2.686-6-6-6z"/>
    <path fill="#4D4A4A" d="M56.016 29.208v.768c0 1.536-.507 2.795-1.52 3.776-1.013.97-2.336 1.456-3.968 1.456-1.728 0-3.157-.56-4.288-1.68-1.12-1.12-1.68-2.496-1.68-4.128 0-1.621.56-2.992 1.68-4.112 1.13-1.13 2.528-1.696 4.192-1.696 1.045 0 2 .24 2.864.72.864.48 1.536 1.125 2.016 1.936l-1.584.912c-.299-.533-.741-.96-1.328-1.28-.587-.33-1.243-.496-1.968-.496-1.173 0-2.139.384-2.896 1.152-.757.768-1.136 1.728-1.136 2.88s.379 2.107 1.136 2.864c.768.757 1.77 1.136 3.008 1.136.992 0 1.797-.23 2.416-.688.63-.47 1.03-1.093 1.2-1.872h-3.744v-1.648h5.6zm5.346 6c-1.173 0-2.17-.405-2.992-1.216-.821-.81-1.232-1.808-1.232-2.992s.41-2.181 1.232-2.992c.822-.81 1.819-1.216 2.992-1.216 1.184 0 2.181.405 2.992 1.216.822.81 1.232 1.808 1.232 2.992s-.41 2.181-1.232 2.992c-.81.81-1.808 1.216-2.992 1.216zm-1.776-2.4c.48.48 1.072.72 1.776.72s1.296-.24 1.776-.72.72-1.083.72-1.808c0-.725-.24-1.328-.72-1.808s-1.072-.72-1.776-.72-1.296.24-1.776.72-.72 1.083-.72 1.808c0 .725.24 1.328.72 1.808zm11.339 2.4c-1.174 0-2.171-.405-2.992-1.216-.822-.81-1.232-1.808-1.232-2.992s.41-2.181 1.232-2.992c.821-.81 1.818-1.216 2.992-1.216 1.184 0 2.181.405 2.992 1.216.821.81 1.232 1.808 1.232 2.992s-.411 2.181-1.232 2.992c-.811.81-1.808 1.216-2.992 1.216zm-1.776-2.4c.48.48 1.072.72 1.776.72s1.296-.24 1.776-.72.72-1.083.72-1.808c0-.725-.24-1.328-.72-1.808s-1.072-.72-1.776-.72-1.296.24-1.776.72-.72 1.083-.72 1.808c0 .725.24 1.328.72 1.808zM83.079 27h1.696v7.632c0 1.216-.4 2.15-1.2 2.8-.8.65-1.77.976-2.912.976-1.845 0-3.11-.645-3.792-1.936l1.488-.864c.416.821 1.195 1.232 2.336 1.232.747 0 1.328-.197 1.744-.592.427-.384.64-.923.64-1.616v-.976c-.65.928-1.578 1.392-2.784 1.392-1.13 0-2.085-.4-2.864-1.2-.778-.81-1.168-1.787-1.168-2.928s.39-2.112 1.168-2.912c.779-.81 1.734-1.216 2.864-1.216 1.206 0 2.133.464 2.784 1.392V27zm-4.368 5.712c.49.48 1.099.72 1.824.72.725 0 1.328-.24 1.808-.72.49-.48.736-1.077.736-1.792 0-.715-.245-1.312-.736-1.792-.48-.48-1.083-.72-1.808-.72-.725 0-1.333.24-1.824.72-.48.48-.72 1.077-.72 1.792 0 .715.24 1.312.72 1.792zM86.79 35V23.32h1.728V35H86.79zm5.095-3.264c.128.608.421 1.077.88 1.408.458.32 1.018.48 1.68.48.917 0 1.605-.33 2.064-.992l1.424.832c-.79 1.163-1.958 1.744-3.504 1.744-1.302 0-2.352-.395-3.152-1.184-.8-.8-1.2-1.808-1.2-3.024 0-1.195.394-2.192 1.184-2.992.789-.81 1.802-1.216 3.04-1.216 1.173 0 2.133.41 2.88 1.232.757.821 1.136 1.819 1.136 2.992 0 .181-.022.421-.064.72h-6.368zm-.016-1.408h4.704c-.118-.65-.39-1.141-.816-1.472-.416-.33-.907-.496-1.472-.496-.64 0-1.174.176-1.6.528-.427.352-.699.832-.816 1.44zm16.208-6.528c1.056 0 1.936.352 2.64 1.056.715.704 1.072 1.579 1.072 2.624 0 1.035-.357 1.91-1.072 2.624-.704.704-1.584 1.056-2.64 1.056h-2.288V35h-1.84V23.8h4.128zm0 5.632c.544 0 .992-.181 1.344-.544.352-.373.528-.843.528-1.408s-.176-1.03-.528-1.392c-.352-.373-.8-.56-1.344-.56h-2.288v3.904h2.288zM113.274 35V23.32h1.728V35h-1.728zm10.07-8h1.728v8h-1.728v-1.152c-.651.907-1.584 1.36-2.8 1.36-1.099 0-2.037-.405-2.816-1.216-.779-.821-1.168-1.819-1.168-2.992 0-1.184.389-2.181 1.168-2.992.779-.81 1.717-1.216 2.816-1.216 1.216 0 2.149.448 2.8 1.344V27zm-4.336 5.84c.48.48 1.083.72 1.808.72.725 0 1.328-.24 1.808-.72.48-.49.72-1.104.72-1.84s-.24-1.344-.72-1.824c-.48-.49-1.083-.736-1.808-.736-.725 0-1.328.245-1.808.736-.48.48-.72 1.088-.72 1.824s.24 1.35.72 1.84zm13.47-5.84h1.84l-3.072 8.256c-.768 2.07-2.069 3.05-3.904 2.944v-1.616c.544.032.981-.085 1.312-.352.331-.256.603-.661.816-1.216l.08-.16L126.158 27h1.888l2.384 5.808L132.478 27zM50.75 13.877v.378c0 .822-.282 1.506-.846 2.052-.564.54-1.311.81-2.241.81-.96 0-1.755-.315-2.385-.945-.624-.636-.936-1.41-.936-2.322 0-.912.312-1.683.936-2.313.63-.636 1.419-.954 2.367-.954.582 0 1.116.141 1.602.423.486.276.861.642 1.125 1.098l-.72.423c-.18-.342-.453-.615-.819-.819-.36-.21-.759-.315-1.197-.315-.72 0-1.311.237-1.773.711-.462.468-.693 1.05-.693 1.746s.231 1.278.693 1.746c.468.468 1.071.702 1.809.702.63 0 1.14-.153 1.53-.459.39-.312.627-.714.711-1.206H47.6v-.756h3.15zm1.855 2.331h2.925V17h-3.762v-6.3h3.717v.792h-2.88v1.935h2.655v.783h-2.655v1.998zm7.967-5.508v.792H58.71V17h-.828v-5.508h-1.854V10.7h4.545zm3.079 0h.837V17h-.837v-6.3zm6.22 0v.792h-1.863V17h-.828v-5.508h-1.854V10.7h4.545zm8.316 5.463c-.63.636-1.4.954-2.313.954-.912 0-1.683-.318-2.313-.954-.63-.636-.945-1.407-.945-2.313 0-.912.315-1.683.945-2.313.63-.636 1.401-.954 2.313-.954.912 0 1.683.318 2.313.954.636.63.954 1.401.954 2.313 0 .906-.318 1.677-.954 2.313zm-4.05-.567c.468.468 1.047.702 1.737.702.69 0 1.266-.234 1.728-.702.468-.474.702-1.056.702-1.746 0-.696-.234-1.278-.702-1.746-.462-.474-1.038-.711-1.728-.711s-1.269.237-1.737.711c-.462.468-.693 1.05-.693 1.746 0 .69.231 1.272.693 1.746zm9.926-4.896h.837V17h-.675l-3.24-4.707V17h-.837v-6.3h.675l3.24 4.698V10.7z"/>
    <mask id="qy11go1xoa" width="25" height="29" x="10" y="8" maskUnits="userSpaceOnUse">
        <path fill="#fff" d="M11.93 9.068l22.4 12.4c.627.348.855 1.139.507 1.767-.118.214-.294.39-.508.508l-22.4 12.4c-.627.348-1.419.12-1.766-.508-.107-.193-.163-.41-.163-.63v-24.8c0-.717.582-1.3 1.3-1.3.22 0 .437.057.63.163z"/>
    </mask>
    <g mask="url(#qy11go1xoa)">
        <path fill="#D8D8D8" d="M11.93 9.068l22.4 12.4c.627.348.855 1.139.507 1.767-.118.214-.294.39-.508.508l-22.4 12.4c-.627.348-1.419.12-1.766-.508-.107-.193-.163-.41-.163-.63v-24.8c0-.717.582-1.3 1.3-1.3.22 0 .437.057.63.163z"/>
        <path fill="#63C3E2" fill-rule="evenodd" d="M10 22.642V10.294C10 9.588 10.588 9 11.176 9s.823.118 1.176.353l22.697 12.465c.47.236.705.588.705.941s-.235.706-.705.941L12.352 36.166c-.235.117-.588.352-1.176.352S10 35.93 10 35.225V22.642z" clip-rule="evenodd"/>
        <path fill="#369D6A" fill-rule="evenodd" d="M24.7 22.76L10.94 9h.236c.588 0 .823.118 1.176.353l16.7 9.173-4.352 4.233z" clip-rule="evenodd"/>
        <path fill="#EB9D2D" fill-rule="evenodd" d="M28.934 26.875L24.7 22.642l4.351-4.352 5.998 3.293c.47.235.705.588.705.941s-.235.706-.705.94l-6.115 3.411z" clip-rule="evenodd"/>
        <path fill="#D93C4A" fill-rule="evenodd" d="M11.058 36.283L24.7 22.642l4.233 4.233-16.581 9.055c-.353.236-.588.353-1.294.353.118 0 .118 0 0 0z" clip-rule="evenodd"/>
    </g>
    <path fill="#fff" fill-rule="evenodd" d="M119.54 35.44h-.105v-.105h.105-.105v.105h.105zM119.855 35.335h-.105.105v.105-.105z" clip-rule="evenodd"/>
</svg>
