<svg xmlns="http://www.w3.org/2000/svg" width="494" height="339" fill="none" viewBox="0 0 494 339">
    <g clip-path="url(#clip0)">
        <path fill="#FFECAC" fill-rule="evenodd" d="M0 169C-.003 84.486.002 68 0 1c116.093 0 144.5-1 247.5-1 44 0 170.5 19 148 119s90.515 163.238 57 220.5H.5S.002 226.986 0 175v-6z" clip-rule="evenodd"/>
        <path stroke="#8E8669" stroke-linecap="round" stroke-width=".881" d="M1 288l441 2"/>
        <path fill="#43A539" fill-rule="evenodd" d="M187.501 218.889l-9.588 63.794-84.953-12.799h-.003l-35.796-5.392 9.588-63.789 120.752 18.186z" clip-rule="evenodd"/>
        <path fill="#127306" fill-rule="evenodd" d="M171.49 268.203l5.612-37.35c.384-2.534-1.363-4.899-3.896-5.279l-96.265-14.501c-2.578-.388-4.982 1.389-5.37 3.968l-5.592 37.201c-.386 2.561 1.376 4.949 3.932 5.332l96.329 14.509c2.522.379 4.871-1.358 5.25-3.882v.002zm8.036-43.223l-7.444 49.527-108.534-16.349 7.445-49.526 108.533 16.35v-.002z" clip-rule="evenodd"/>
        <path fill="#127306" fill-rule="evenodd" d="M119.532 254.895c-7.349-1.107-12.411-7.968-11.307-15.33 1.107-7.357 7.962-12.427 15.314-11.319 7.35 1.108 12.414 7.971 11.307 15.328-1.106 7.36-7.959 12.429-15.314 11.321" clip-rule="evenodd"/>
        <path fill="#43A539" fill-rule="evenodd" d="M144.781 259.207L91.48 191.756l-22.458-28.422 50.541-40.021 75.759 95.873-50.541 40.021z" clip-rule="evenodd"/>
        <path fill="#127306" fill-rule="evenodd" d="M149.968 244.242l29.59-23.432c2.009-1.589 2.349-4.511.762-6.52l-60.397-76.434c-1.617-2.047-4.585-2.393-6.631-.774l-29.471 23.337c-2.027 1.607-2.372 4.554-.769 6.584l60.435 76.481c1.581 2.002 4.484 2.338 6.481.758zm35.368-26.061l-39.234 31.067-68.093-86.173 39.236-31.067 68.091 86.175v-.002z" clip-rule="evenodd"/>
        <path fill="#127306" fill-rule="evenodd" d="M121.117 198.989c-4.613-5.837-3.626-14.311 2.204-18.929 5.831-4.615 14.296-3.628 18.909 2.209 4.612 5.834 3.623 14.311-2.207 18.926-5.828 4.618-14.296 3.63-18.906-2.206" clip-rule="evenodd"/>
        <path fill="#43A539" fill-rule="evenodd" d="M298.661 275.384l53.301-67.451 22.457-28.422-50.541-40.021-75.758 95.873 50.541 40.021z" clip-rule="evenodd"/>
        <path fill="#127306" fill-rule="evenodd" d="M293.473 260.419l-29.589-23.433c-2.01-1.589-2.35-4.51-.762-6.519l60.396-76.434c1.617-2.048 4.585-2.393 6.631-.774l29.471 23.337c2.028 1.607 2.372 4.554.769 6.583l-60.435 76.482c-1.58 2.002-4.483 2.338-6.481.758zm-35.368-26.061l39.234 31.067 68.094-86.173-39.237-31.067-68.091 86.175v-.002z" clip-rule="evenodd"/>
        <path fill="#127306" fill-rule="evenodd" d="M322.324 215.165c4.613-5.836 3.627-14.311-2.204-18.928-5.83-4.615-14.296-3.628-18.908 2.209-4.613 5.834-3.624 14.311 2.206 18.926 5.828 4.617 14.296 3.63 18.906-2.207" clip-rule="evenodd"/>
        <path fill="#FFA412" fill-rule="evenodd" d="M304.58 148.119c.052-.111.118-.213.192-.304.057-.068.118-.131.186-.19l.282-.284.074.054c1.436-.703 4.404.043 7.405 2.005 3.628 2.37 5.957 5.637 5.286 7.371l.102.075-.404.404-.059.059-.011.011h-.003c-.104.096-.22.177-.349.243l-.004.003c-1.418.744-4.418.004-7.452-1.98-3.696-2.415-6.044-5.759-5.245-7.469" clip-rule="evenodd"/>
        <path fill="#FFB93E" fill-rule="evenodd" d="M313.152 148.966c-3.696-2.413-7.34-2.987-8.141-1.278-.798 1.707 1.551 5.051 5.245 7.466 3.697 2.416 7.341 2.99 8.142 1.279.798-1.708-1.549-5.049-5.246-7.467z" clip-rule="evenodd"/>
        <path fill="#FFA412" fill-rule="evenodd" d="M306.867 147.687c-.381.112-.644.318-.78.613-.286.625.022 1.635.843 2.77.853 1.178 2.161 2.377 3.681 3.373 1.896 1.242 3.864 1.975 5.204 1.975.27 0 .515-.031.728-.093.383-.111.644-.318.78-.61.286-.627-.02-1.635-.843-2.77-.853-1.18-2.161-2.377-3.681-3.373-1.896-1.242-3.862-1.975-5.202-1.975-.272 0-.517.029-.73.09zm3.596 6.983c-1.546-1.014-2.88-2.236-3.753-3.441-.893-1.235-1.202-2.316-.871-3.042.173-.37.49-.627.953-.758 1.363-.395 3.78.358 6.155 1.916 1.548 1.014 2.88 2.236 3.753 3.441.893 1.233 1.202 2.316.87 3.042-.17.37-.489.627-.952.758-.24.068-.513.103-.812.103-1.401 0-3.386-.736-5.343-2.021v.002zm16.441-93.355c.037-.08.082-.15.136-.216.041-.05.084-.093.132-.136l.2-.202.052.041c1.02-.5 3.129.03 5.259 1.421 2.576 1.685 4.229 4.002 3.753 5.233l.072.054-.288.286-.043.043-.007.007h-.002c-.073.068-.154.127-.249.175-1.007.529-3.139.002-5.291-1.405-2.624-1.714-4.291-4.086-3.724-5.3" clip-rule="evenodd"/>
        <path fill="#FFB93E" fill-rule="evenodd" d="M332.985 61.916c-2.621-1.714-5.209-2.12-5.776-.908-.567 1.212 1.1 3.587 3.724 5.301s5.211 2.123 5.778.908c.567-1.212-1.1-3.587-3.723-5.3" clip-rule="evenodd"/>
        <path fill="#FFA412" fill-rule="evenodd" d="M328.526 61.011c-.272.078-.456.223-.554.432-.204.445.014 1.162.599 1.968.608.835 1.535 1.687 2.615 2.395 1.342.88 2.741 1.4 3.692 1.4.192 0 .367-.022.521-.065.268-.078.454-.223.551-.432.204-.445-.016-1.162-.598-1.968-.608-.835-1.536-1.687-2.615-2.395-1.345-.88-2.742-1.4-3.694-1.4-.191 0-.365.022-.517.065zm2.553 4.956c-1.097-.72-2.045-1.59-2.664-2.445-.635-.874-.855-1.641-.617-2.157.12-.265.347-.445.673-.54.971-.28 2.685.254 4.373 1.362 1.097.718 2.045 1.587 2.664 2.443.635.874.853 1.641.617 2.157-.12.265-.347.444-.674.54-.172.05-.365.073-.578.073-.995 0-2.404-.523-3.794-1.433zm5.243 64.159c-.036-.082-.084-.154-.14-.223h.002c-.041-.049-.086-.097-.136-.138l-.204-.209-.055.041c-1.052-.515-3.22.03-5.413 1.464-2.651 1.732-4.354 4.118-3.862 5.385l-.075.057.295.295.043.043.009.007v.002c.075.068.161.127.257.177h.002c1.036.545 3.229.005 5.445-1.446 2.703-1.764 4.417-4.206 3.832-5.455z" clip-rule="evenodd"/>
        <path fill="#FFB93E" fill-rule="evenodd" d="M330.06 130.746c2.699-1.766 5.363-2.184 5.946-.935.585 1.248-1.131 3.691-3.832 5.455-2.699 1.766-5.364 2.184-5.946.935-.585-1.248 1.131-3.691 3.832-5.455z" clip-rule="evenodd"/>
        <path fill="#FFA412" fill-rule="evenodd" d="M334.119 129.742c-.98 0-2.418.538-3.801 1.444-1.111.729-2.068 1.605-2.692 2.465-.601.831-.825 1.567-.614 2.025.097.216.29.366.567.445.158.046.338.068.535.068.977 0 2.417-.535 3.801-1.443 1.111-.727 2.068-1.603 2.691-2.466.601-.828.826-1.566.615-2.02-.098-.218-.288-.368-.567-.45-.159-.045-.338-.068-.535-.068zm-5.998 6.647c-.22 0-.42-.025-.597-.077-.335-.095-.569-.284-.691-.554-.245-.531-.019-1.321.635-2.222.637-.881 1.61-1.773 2.741-2.516 1.735-1.137 3.502-1.686 4.499-1.4.336.097.57.283.694.556.243.531.018 1.321-.635 2.222-.639.881-1.612 1.773-2.744 2.516-1.428.935-2.88 1.475-3.902 1.475zm-22.394-54.733c.022-.05.052-.093.084-.136l.084-.084.124-.125.032.023c.64-.311 1.959.02 3.293.892 1.614 1.053 2.649 2.504 2.349 3.276l.046.034-.18.179-.027.025-.004.007c-.046.04-.098.077-.157.109-.633.331-1.964 0-3.313-.881-1.642-1.074-2.687-2.558-2.331-3.319" clip-rule="evenodd"/>
        <path fill="#FFB93E" fill-rule="evenodd" d="M309.538 82.033c-1.641-1.074-3.263-1.328-3.619-.568-.356.758.69 2.245 2.331 3.32 1.645 1.073 3.264 1.327 3.62.567.356-.759-.69-2.246-2.332-3.32z" clip-rule="evenodd"/>
        <path fill="#FFA412" fill-rule="evenodd" d="M306.743 81.465c-.17.048-.288.14-.347.273-.127.276.009.726.374 1.23.379.522.962 1.056 1.638 1.498.839.554 1.716.879 2.313.879.12 0 .229-.014.322-.041.17-.048.288-.14.349-.272.125-.277-.011-.727-.376-1.23-.379-.523-.962-1.056-1.638-1.5-.839-.553-1.716-.878-2.313-.878-.12 0-.226.014-.322.041zm1.597 3.103c-.687-.451-1.279-.994-1.667-1.53-.397-.549-.535-1.028-.386-1.35.075-.166.218-.28.422-.34.608-.173 1.678.16 2.737.853.688.451 1.279.994 1.667 1.53.397.55.535 1.028.386 1.35-.073.166-.216.28-.422.341-.107.03-.227.045-.363.045-.621 0-1.503-.329-2.374-.899zm-125.442 48.933c-.046-.093-.098-.179-.161-.256-.046-.057-.1-.111-.159-.159l-.233-.241-.064.046c-1.206-.59-3.701.036-6.223 1.687-3.05 1.99-5.005 4.735-4.442 6.192l-.084.064.336.341.052.047.009.009.002.003c.086.079.184.147.295.204 1.193.626 3.714.004 6.263-1.662 3.107-2.029 5.08-4.84 4.409-6.275" clip-rule="evenodd"/>
        <path fill="#FFB93E" fill-rule="evenodd" d="M175.696 134.215c3.107-2.032 6.168-2.513 6.839-1.076.672 1.435-1.301 4.245-4.408 6.275-3.107 2.029-6.168 2.51-6.84 1.076-.671-1.437 1.302-4.246 4.409-6.275z" clip-rule="evenodd"/>
        <path fill="#FFA412" fill-rule="evenodd" d="M180.364 133.063c-1.127 0-2.78.613-4.372 1.657-1.279.84-2.376 1.846-3.095 2.838-.69.953-.948 1.8-.708 2.324.114.25.336.423.655.516.18.052.386.077.613.077 1.127 0 2.78-.615 4.374-1.66 1.277-.84 2.375-1.845 3.093-2.837.69-.954.951-1.801.708-2.325-.113-.25-.333-.422-.655-.515-.18-.05-.386-.075-.613-.075zm-6.9 7.639c-.25 0-.481-.027-.683-.086-.388-.112-.658-.327-.798-.636-.281-.613-.023-1.521.73-2.558.735-1.013 1.853-2.039 3.154-2.893 1.996-1.307 4.028-1.941 5.171-1.611.39.113.657.329.803.64.279.613.02 1.518-.733 2.556-.732 1.012-1.855 2.039-3.152 2.892-1.646 1.078-3.313 1.696-4.49 1.696h-.002zm-23.485-46.173c-.025-.054-.057-.104-.093-.15-.027-.034-.059-.063-.091-.09l-.138-.141-.036.027c-.703-.345-2.155.02-3.624.98-1.776 1.159-2.916 2.757-2.585 3.608l-.053.036.198.198.029.027.007.007c.05.045.109.086.172.12.694.364 2.164 0 3.647-.969 1.81-1.18 2.959-2.817 2.567-3.655" clip-rule="evenodd"/>
        <path fill="#FFB93E" fill-rule="evenodd" d="M145.784 94.943c1.81-1.18 3.594-1.462 3.985-.624.39.835-.758 2.47-2.568 3.655-1.807 1.18-3.592 1.46-3.982.624-.392-.835.758-2.472 2.567-3.655" clip-rule="evenodd"/>
        <path fill="#FFA412" fill-rule="evenodd" d="M148.507 94.273c-.658 0-1.619.359-2.547.967-.744.488-1.383 1.074-1.803 1.65-.401.557-.551 1.05-.41 1.356.066.145.193.245.381.3.104.029.224.045.356.045.658 0 1.619-.359 2.547-.967.743-.488 1.383-1.074 1.802-1.65.402-.557.552-1.05.411-1.356-.066-.145-.193-.245-.381-.3-.104-.03-.225-.045-.356-.045zm-4.018 4.45c-.148 0-.282-.016-.397-.05-.227-.066-.384-.191-.467-.373-.162-.354-.012-.885.426-1.487.428-.59 1.079-1.19 1.837-1.684 1.163-.763 2.345-1.13 3.011-.938.227.064.384.189.465.37.163.357.014.886-.424 1.49-.426.59-1.079 1.187-1.837 1.684-.957.627-1.927.987-2.614.987zm35.206 7.11c.032-.068.073-.132.118-.189.036-.045.075-.084.118-.12l.175-.177.045.034c.898-.441 2.753.027 4.631 1.253 2.267 1.482 3.723 3.523 3.304 4.608l.063.046-.254.249-.036.039-.007.007-.002.002c-.064.059-.136.109-.218.152h-.002c-.885.466-2.76.003-4.658-1.237-2.311-1.51-3.778-3.598-3.277-4.667M114.133 23.692c.032-.068.073-.131.118-.188.037-.046.075-.084.118-.12l.175-.178.045.035c.898-.44 2.753.027 4.631 1.253 2.268 1.482 3.723 3.523 3.304 4.608l.063.045-.254.25-.036.039-.007.007-.002.002c-.063.059-.136.109-.218.152h-.002c-.884.465-2.76.002-4.658-1.237-2.311-1.51-3.778-3.598-3.277-4.668z" clip-rule="evenodd"/>
        <path fill="#FFB93E" fill-rule="evenodd" d="M185.051 106.364c-2.311-1.509-4.587-1.868-5.086-.801-.499 1.067.966 3.158 3.277 4.667 2.31 1.51 4.587 1.869 5.086.802.499-1.067-.966-3.158-3.277-4.668zM119.49 24.223c-2.311-1.51-4.588-1.868-5.087-.801-.499 1.067.966 3.157 3.277 4.667 2.311 1.51 4.588 1.869 5.087.802.498-1.067-.966-3.158-3.277-4.668z" clip-rule="evenodd"/>
        <path fill="#FFA412" fill-rule="evenodd" d="M181.121 105.565c-.238.069-.401.198-.487.382-.18.39.013 1.021.528 1.732.533.736 1.349 1.485 2.299 2.109 1.187.776 2.416 1.233 3.255 1.233.167 0 .322-.019.453-.057.241-.068.404-.198.49-.381.177-.393-.014-1.022-.528-1.733-.533-.735-1.35-1.484-2.302-2.109-1.184-.776-2.415-1.232-3.252-1.232-.168 0-.322.018-.454.056h-.002zm2.25 4.364c-.966-.636-1.801-1.399-2.347-2.152-.56-.772-.751-1.446-.545-1.9.109-.232.307-.391.597-.475.85-.245 2.363.225 3.846 1.199.966.633 1.8 1.398 2.347 2.15.558.771.751 1.446.544 1.902-.109.231-.306.39-.596.474-.15.043-.318.064-.508.064-.875 0-2.116-.461-3.338-1.262zM115.56 23.424c-.238.069-.402.198-.488.382-.179.39.014 1.021.528 1.732.533.735 1.35 1.485 2.3 2.109 1.186.776 2.415 1.233 3.254 1.233.168 0 .322-.019.454-.057.24-.068.403-.198.49-.382.176-.392-.014-1.021-.529-1.732-.533-.735-1.349-1.484-2.302-2.109-1.183-.776-2.415-1.232-3.252-1.232-.167 0-.322.018-.453.056h-.002zm2.249 4.364c-.966-.636-1.8-1.399-2.347-2.152-.56-.772-.75-1.447-.544-1.9.109-.232.306-.391.596-.475.851-.245 2.363.225 3.846 1.199.966.633 1.801 1.398 2.347 2.15.558.771.751 1.445.545 1.902-.109.231-.306.39-.597.474-.149.043-.317.064-.508.064-.875 0-2.115-.461-3.338-1.262z" clip-rule="evenodd"/>
        <path fill="#FFB93E" fill-rule="evenodd" d="M268.317 278.444v2.799c0 .222-.08.429-.22.601-.145.182-.356.323-.601.402-.075.027-.154.045-.236.057-.073.011-.147.016-.227.016h-53.026c-.683 0-1.247-.454-1.281-1.022v-2.91c.036-.568.598-1.022 1.281-1.022h53.029c.077 0 .151.007.226.018.08.012.159.028.234.055.245.079.453.22.601.402.14.172.22.381.22.604z" clip-rule="evenodd"/>
        <path fill="#FFA412" fill-rule="evenodd" d="M242.277 282.319h-28.403c-.613 0-1.111-.454-1.145-1.022v-2.91c.031-.568.535-1.022 1.145-1.022h24.918c.399 1.458 1.326 3.476 3.49 4.954h-.005zm18.986 0h.603v-4.954h-.603v4.954zm-2.041 0h.603v-4.954h-.603v4.954zm-2.445 0h.601v-4.954h-.601v4.954zm-3.751 0h.603v-4.954h-.603v4.954zm-3.964 0h.603v-4.954h-.603v4.954zm-6.08 0h.601v-4.954h-.601v4.954z" clip-rule="evenodd"/>
        <path fill="#FFA412" fill-rule="evenodd" d="M237.29 282.319h.603v-4.954h-.603v4.954zm-5.082 0h.603v-4.954h-.603v4.954zm30.995 0h.604v-4.954h-.604v4.954zm1.284 0h.603v-4.954h-.603v4.954zm1.238 0h.603v-4.954h-.603v4.954zm1.535-4.936v4.92c-.072.011-.147.016-.226.016h-.375v-4.954h.377c.077 0 .152.007.227.018h-.003zm.837.457v4.004c-.145.182-.356.323-.601.402v-4.808c.245.079.454.22.601.402z" clip-rule="evenodd"/>
        <path fill="#FFB93E" fill-rule="evenodd" d="M262.648 273.488v2.796c0 .225-.082.432-.22.604-.145.182-.356.323-.603.404-.073.023-.152.043-.234.055-.073.011-.15.018-.227.018H208.34c-.685 0-1.247-.456-1.283-1.024V273.433c.034-.568.598-1.024 1.283-1.024h53.024l.102.002.046.005c.013 0 .029 0 .045.005l.034.004c.082.011.159.032.234.057l.034.011.034.012c.02.009.043.015.063.027l.036.016.034.016.062.031.063.043c.018.01.034.021.05.035h.005l.031.024c.032.025.066.055.091.082l.027.025.025.027c.018.016.034.034.048.055.138.17.22.377.22.602" clip-rule="evenodd"/>
        <path fill="#FFA412" fill-rule="evenodd" d="M236.61 277.365h-28.408c-.612 0-1.114-.456-1.145-1.024V273.433c.031-.568.535-1.024 1.145-1.024h24.918l.036.123c.415 1.446 1.349 3.394 3.454 4.833zm18.983 0h.603v-4.956h-.603v4.956zm-2.041 0h.603v-4.956h-.603v4.956zm-2.447 0h.603v-4.956h-.603v4.956zm-3.748 0h.603v-4.956h-.603v4.956zm-3.964 0h.6v-4.956h-.6v4.956zm-6.08 0h.603v-4.956h-.603v4.956z" clip-rule="evenodd"/>
        <path fill="#FFA412" fill-rule="evenodd" d="M231.621 277.365h.603v-4.956h-.603v4.956zm-5.082 0h.603v-4.956h-.603v4.956zm30.998 0h.601v-4.956h-.601v4.956zm1.281 0h.603v-4.956h-.603v4.956zm1.238 0h.603v-4.956h-.603v4.956zm1.535-4.94v4.922c-.074.011-.149.018-.226.018h-.377v-4.956h.377c.077 0 .152.005.226.016zm.837.461v4.002c-.145.182-.356.323-.603.404v-4.812c.249.081.458.224.603.406" clip-rule="evenodd"/>
        <path fill="#FFB93E" fill-rule="evenodd" d="M265.389 268.652v2.799c0 .225-.081.432-.22.602-.147.182-.358.325-.603.406-.077.023-.154.043-.233.055-.075.011-.15.018-.227.018h-53.029c-.211 0-.413-.045-.589-.123-.377-.165-.644-.483-.688-.853l-.004-.048v-2.91c.036-.568.599-1.022 1.281-1.022h53.029c.077 0 .152.005.227.016.079.011.158.032.233.057.245.077.454.222.603.404.136.17.22.377.22.601" clip-rule="evenodd"/>
        <path fill="#FFA412" fill-rule="evenodd" d="M239.349 272.532h-28.408c-.19 0-.37-.046-.528-.123-.336-.166-.574-.483-.613-.853l-.004-.048v-2.91c.032-.568.535-1.022 1.145-1.022h24.92c.386 1.417 1.275 3.364 3.311 4.833l.177.123zm18.985 0h.601v-4.958h-.601v4.958zm-2.04 0h.6v-4.958h-.6v4.958zm-2.447 0h.603v-4.958h-.603v4.958zm-3.751 0h.603v-4.958h-.603v4.958zm-3.966 0h.603v-4.958h-.603v4.958zm-6.078 0h.603v-4.958h-.603v4.958z" clip-rule="evenodd"/>
        <path fill="#FFA412" fill-rule="evenodd" d="M234.36 272.532h.604v-4.958h-.604v4.958zm-5.082 0h.604v-4.958h-.604v4.958zm30.996 0h.603v-4.958h-.603v4.958zm1.283 0h.603v-4.958h-.603v4.958zm1.241 0h.601v-4.958h-.601v4.958zm1.535-4.94v4.922c-.075.011-.15.018-.227.018h-.376v-4.958h.376c.077 0 .152.007.227.018zm.837.461v4c-.148.181-.359.324-.604.406v-4.813c.245.08.454.225.604.407z" clip-rule="evenodd"/>
        <path fill="#FFB93E" fill-rule="evenodd" d="M266.659 263.697v2.799c0 .224-.082.431-.22.604-.147.181-.358.322-.603.401-.075.028-.155.046-.234.057-.075.012-.15.016-.227.016h-53.028c-.683 0-1.245-.454-1.282-1.021v-2.911c.034-.524.517-.953 1.13-1.015.05-.004.102-.006.152-.006h53.028c.077 0 .152.004.227.015.079.014.159.032.234.055.245.082.453.225.603.404.136.175.22.379.22.602" clip-rule="evenodd"/>
        <path fill="#FFA412" fill-rule="evenodd" d="M240.619 267.574h-28.408c-.61 0-1.112-.454-1.146-1.022V263.642c.03-.522.463-.953 1.01-1.015l.136-.007h24.92l.002.007c.399 1.46 1.327 3.471 3.486 4.949v-.002zm18.985 0h.601v-4.956h-.601v4.956zm-2.041 0h.601v-4.956h-.601v4.956zm-2.447 0h.603v-4.956h-.603v4.956zm-3.748 0h.601v-4.956h-.601v4.956zm-3.967 0h.601v-4.956h-.601v4.956zm-6.079 0h.603v-4.956h-.603v4.956z" clip-rule="evenodd"/>
        <path fill="#FFA412" fill-rule="evenodd" d="M235.629 267.574h.603v-4.956h-.603v4.956zm-5.082 0h.603v-4.956h-.603v4.956zm30.995 0h.603v-4.956h-.603v4.956zm1.284 0h.603v-4.956h-.603v4.956zm1.24 0h.601v-4.956h-.601v4.956zm1.535-4.938v4.922c-.074.011-.149.016-.226.016h-.377v-4.956h.377c.077 0 .152.007.226.018zm.837.459v4.004c-.147.182-.358.323-.603.402v-4.81c.245.082.454.225.603.404z" clip-rule="evenodd"/>
        <path fill="#FFB93E" fill-rule="evenodd" d="M262.759 258.75v2.799c0 .222-.079.431-.22.601-.145.182-.354.325-.601.404-.075.025-.154.044-.236.057l-.074.009-.041.003-.043.002h-53.092c-.685 0-1.248-.454-1.282-1.022l-.002-.054v-2.854l.005-.045c.049-.456.444-.833.961-.945l.039-.006c.09-.019.181-.028.279-.028h53.024l.115.005.052.004.059.007c.082.014.159.032.236.057.247.079.456.223.601.404.141.173.22.379.22.602" clip-rule="evenodd"/>
        <path fill="#FFA412" fill-rule="evenodd" d="M236.721 262.627h-28.408c-.612 0-1.111-.454-1.143-1.021l-.002-.057v-2.854l.005-.045c.045-.468.412-.849.888-.954.016 0 .032-.004.048-.009.068-.011.136-.016.204-.016h24.918l.011.034c.404 1.453 1.332 3.449 3.468 4.915l.011.007zm18.983 0h.603v-4.956h-.603v4.956zm-2.041 0h.604v-4.956h-.604v4.956zm-2.444 0h.601v-4.956h-.601v4.956zm-3.751 0h.603v-4.956h-.603v4.956zm-3.964 0h.603v-4.956h-.603v4.956zm-6.08 0h.603v-4.956h-.603v4.956z" clip-rule="evenodd"/>
        <path fill="#FFA412" fill-rule="evenodd" d="M231.731 262.627h.604v-4.956h-.604v4.956zm-5.082 0h.604v-4.956h-.604v4.956zm30.998 0h.603v-4.956h-.603v4.956zm1.281 0h.603v-4.956h-.603v4.956zm1.238 0h.604v-4.956h-.604v4.956zm1.536-4.94v4.924c-.075.012-.148.016-.227.016h-.377v-4.956h.377c.079 0 .152.005.227.016zm.836.461v4.002c-.145.182-.353.325-.6.404v-4.81c.247.079.455.223.6.404z" clip-rule="evenodd"/>
        <path fill="#FFB93E" fill-rule="evenodd" d="M262.648 253.83v2.799c0 .223-.082.429-.22.602-.145.181-.356.322-.603.404-.057.018-.118.034-.182.045l-.052.009c-.073.012-.15.016-.227.016H208.34c-.057 0-.113 0-.168-.007-.022-.004-.04-.004-.063-.011-.576-.086-1.021-.499-1.052-1.003v-2.913c.034-.567.598-1.021 1.283-1.021h53.024l.102.002.046.004.045.005.034.007c.082.011.159.027.234.054l.034.011.034.012.063.025.068.034.064.032.063.041.05.034.005.004.031.023c.032.027.066.052.091.082l.027.022.025.027.048.055c.138.173.22.381.22.604" clip-rule="evenodd"/>
        <path fill="#FFA412" fill-rule="evenodd" d="M236.61 257.705h-28.476l-.073-.007c-.544-.063-.975-.49-1.004-1.014v-2.913c.031-.567.535-1.021 1.145-1.021h24.918l.036.12c.41 1.437 1.333 3.364 3.402 4.799l.052.034v.002zm18.983.003h.603v-4.956h-.603v4.956zm-2.041 0h.603v-4.956h-.603v4.956zm-2.447 0h.603v-4.956h-.603v4.956zm-3.748 0h.603v-4.956h-.603v4.956zm-3.964 0h.6v-4.956h-.6v4.956zm-6.08 0h.603v-4.956h-.603v4.956z" clip-rule="evenodd"/>
        <path fill="#FFA412" fill-rule="evenodd" d="M231.621 257.708h.603v-4.956h-.603v4.956zm-5.082 0h.603v-4.956h-.603v4.956zm30.998 0h.601v-4.956h-.601v4.956zm1.281 0h.603v-4.956h-.603v4.956zm1.238 0h.603v-4.956h-.603v4.956zm1.535-4.938v4.92c-.074.011-.149.015-.226.015h-.377v-4.953h.377c.077 0 .152.007.226.018zm.837.456v4.005c-.145.182-.356.322-.603.404v-4.813c.249.082.458.223.603.404" clip-rule="evenodd"/>
        <path fill="#FFB93E" fill-rule="evenodd" d="M265.389 248.997v2.799c0 .221-.081.427-.22.602-.147.182-.358.322-.603.402-.077.025-.154.045-.233.057-.075.011-.15.015-.227.015h-53.029c-.211 0-.413-.045-.589-.12-.377-.166-.644-.483-.688-.853l-.004-.048v-2.91c.036-.568.599-1.022 1.281-1.022h53.029c.077 0 .152.004.227.016.079.011.158.029.233.057.245.079.454.22.603.401.136.173.22.382.22.604" clip-rule="evenodd"/>
        <path fill="#FFA412" fill-rule="evenodd" d="M239.349 252.875h-28.408c-.19 0-.37-.046-.528-.123-.336-.166-.574-.483-.613-.853l-.004-.048v-2.91c.032-.568.535-1.022 1.145-1.022h24.92c.386 1.419 1.275 3.364 3.311 4.833l.177.12v.003zm18.985 0h.601v-4.956h-.601v4.956zm-2.04 0h.6v-4.956h-.6v4.956zm-2.447 0h.603v-4.956h-.603v4.956zm-3.751 0h.603v-4.956h-.603v4.956zm-3.966 0h.603v-4.956h-.603v4.956zm-6.078 0h.603v-4.956h-.603v4.956z" clip-rule="evenodd"/>
        <path fill="#FFA412" fill-rule="evenodd" d="M234.36 252.875h.604v-4.956h-.604v4.956zm-5.082 0h.604v-4.956h-.604v4.956zm30.996 0h.603v-4.956h-.603v4.956zm1.283 0h.603v-4.956h-.603v4.956zm1.241 0h.601v-4.956h-.601v4.956zm1.535-4.94v4.921c-.075.012-.15.016-.227.016h-.376v-4.953h.376c.077 0 .152.004.227.016zm.837.458v4.005c-.148.182-.359.322-.604.404v-4.813c.245.082.454.223.604.404" clip-rule="evenodd"/>
        <path fill="#FFB93E" fill-rule="evenodd" d="M269.72 244.042v2.796c0 .225-.082.432-.22.602-.145.182-.356.325-.601.406-.077.023-.156.043-.236.055-.072.011-.149.018-.226.018H215.41c-.682 0-1.247-.456-1.281-1.024v-2.91c.034-.525.517-.954 1.129-1.015.05-.005.102-.009.152-.009h53.027c.077 0 .154.007.226.018.08.011.159.032.236.055.245.081.454.224.601.406.138.17.22.377.22.602" clip-rule="evenodd"/>
        <path fill="#FFA412" fill-rule="evenodd" d="M243.682 247.919h-28.408c-.612 0-1.113-.456-1.145-1.024v-2.91c.027-.525.46-.954 1.009-1.015.045-.005.091-.009.136-.009h24.92v.009c.399 1.46 1.327 3.473 3.488 4.949zm18.983 0h.603v-4.958h-.603v4.958zm-2.039 0h.601v-4.958h-.601v4.958zm-2.446 0h.603v-4.958h-.603v4.958zm-3.751 0h.603v-4.958h-.603v4.958zm-3.966 0h.603v-4.958h-.603v4.958zm-6.078 0h.603v-4.958h-.603v4.958z" clip-rule="evenodd"/>
        <path fill="#FFA412" fill-rule="evenodd" d="M238.693 247.919h.604v-4.958h-.604v4.958zm-5.082 0h.601v-4.958h-.601v4.958zm30.996 0h.603v-4.958h-.603v4.958zm1.283 0h.603v-4.958h-.603v4.958zm1.241 0h.601v-4.958h-.601v4.958zm1.535-4.94v4.922c-.075.011-.152.018-.227.018h-.376v-4.958h.376c.075 0 .152.007.227.018zm.837.461v4c-.148.182-.359.325-.603.406v-4.812c.244.081.453.224.603.406z" clip-rule="evenodd"/>
        <path fill="#FFB93E" fill-rule="evenodd" d="M262.759 239.093v2.799c0 .223-.079.431-.22.602-.145.181-.354.324-.601.404-.075.025-.154.045-.236.054-.022.005-.05.009-.074.009-.019.005-.039.005-.059.007h-.03l-.063.002h-53.024c-.685 0-1.248-.456-1.282-1.023l-.002-.055v-2.854c.036-.567.599-1.023 1.284-1.023h53.024l.068.002c.056 0 .106.007.158.016.082.011.159.029.236.054l.111.041.066.032.007.002.063.034.012.005.059.036c.045.03.086.059.127.093l.036.034.007.005.022.022h.003l.038.041.05.059c.141.171.22.38.22.602" clip-rule="evenodd"/>
        <path fill="#FFA412" fill-rule="evenodd" d="M236.721 242.97h-28.408c-.612 0-1.111-.456-1.143-1.023l-.002-.055v-2.854c.032-.567.535-1.023 1.145-1.023h24.918l.034.113c.415 1.446 1.345 3.394 3.445 4.836l.011.006zm18.983 0h.603v-4.955h-.603v4.955zm-2.041 0h.604v-4.955h-.604v4.955zm-2.444 0h.601v-4.955h-.601v4.955zm-3.751 0h.603v-4.955h-.603v4.955zm-3.964 0h.603v-4.955h-.603v4.955zm-6.08 0h.603v-4.955h-.603v4.955z" clip-rule="evenodd"/>
        <path fill="#FFA412" fill-rule="evenodd" d="M231.731 242.97h.604v-4.955h-.604v4.955zm-5.082 0h.604v-4.955h-.604v4.955zm30.998 0h.603v-4.955h-.603v4.955zm1.281 0h.603v-4.955h-.603v4.955zm1.238 0h.604v-4.955h-.604v4.955zm1.536-4.937v4.919c-.075.012-.148.018-.227.018h-.377v-4.955h.377c.079 0 .152.006.227.018zm.836.458v4.003c-.145.181-.353.324-.6.404v-4.813c.247.082.455.227.6.406z" clip-rule="evenodd"/>
        <path fill="#FFB93E" fill-rule="evenodd" d="M266.659 234.25v2.799c0 .223-.082.432-.22.604-.147.182-.358.323-.603.402-.075.027-.155.046-.234.057-.075.009-.15.016-.227.016h-53.028c-.204 0-.399-.039-.572-.114-.385-.161-.664-.486-.705-.862l-.005-.046V234.196c.034-.525.517-.954 1.13-1.015.05-.004.102-.007.152-.007h53.028c.077 0 .152.005.227.016.079.014.159.03.234.055.245.081.453.224.603.404.136.175.22.379.22.601" clip-rule="evenodd"/>
        <path fill="#FFA412" fill-rule="evenodd" d="M240.619 238.128h-28.408c-.182 0-.359-.039-.511-.114-.347-.161-.591-.486-.63-.862l-.005-.046V234.196c.03-.522.463-.954 1.01-1.015l.136-.007h24.92l.002.007c.388 1.421 1.279 3.369 3.322 4.833l.164.114zm18.985 0h.601v-4.954h-.601v4.954zm-2.041 0h.601v-4.954h-.601v4.954zm-2.447 0h.603v-4.954h-.603v4.954zm-3.748 0h.601v-4.954h-.601v4.954zm-3.967 0h.601v-4.954h-.601v4.954zm-6.079 0h.603v-4.954h-.603v4.954z" clip-rule="evenodd"/>
        <path fill="#FFA412" fill-rule="evenodd" d="M235.629 238.128h.603v-4.953h-.603v4.953zm-5.082 0h.603v-4.953h-.603v4.953zm30.995 0h.603v-4.953h-.603v4.953zm1.284 0h.603v-4.953h-.603v4.953zm1.24 0h.601v-4.953h-.601v4.953zm1.535-4.937v4.921c-.074.009-.149.016-.226.016h-.377v-4.956h.377c.077 0 .152.007.226.019zm.837.458v4.005c-.147.181-.358.322-.603.401v-4.81c.245.082.454.225.603.404z" clip-rule="evenodd"/>
        <path fill="#FFB93E" fill-rule="evenodd" d="M268.317 229.304v2.799c0 .223-.08.43-.22.602-.145.182-.356.325-.601.404-.075.025-.154.043-.236.057l-.073.009-.043.002-.04.003h-53.097c-.683 0-1.247-.455-1.281-1.022v-2.91c.036-.568.598-1.022 1.281-1.022h53.029c.077 0 .151.005.226.016.08.014.159.032.234.057.245.079.453.222.601.404.14.172.22.379.22.601" clip-rule="evenodd"/>
        <path fill="#FFA412" fill-rule="evenodd" d="M242.277 233.182h-28.403c-.613 0-1.111-.454-1.145-1.022v-2.912c.031-.568.535-1.022 1.145-1.022h24.918c.399 1.455 1.322 3.471 3.478 4.949l.012.007h-.005zm18.986 0h.603v-4.956h-.603v4.956zm-2.041 0h.603v-4.956h-.603v4.956zm-2.445 0h.601v-4.956h-.601v4.956zm-3.749 0h.601v-4.956h-.601v4.956zm-3.966 0h.603v-4.956h-.603v4.956zm-6.08 0h.604v-4.956h-.604v4.956z" clip-rule="evenodd"/>
        <path fill="#FFA412" fill-rule="evenodd" d="M237.29 233.182h.603v-4.956h-.603v4.956zm-5.082 0h.603v-4.956h-.603v4.956zm30.995 0h.604v-4.956h-.604v4.956zm1.284 0h.603v-4.956h-.603v4.956zm1.238 0h.603v-4.956h-.603v4.956zm1.535-4.938v4.922c-.072.011-.147.016-.226.016h-.375v-4.956h.377c.077 0 .152.005.227.016l-.003.002zm.837.459v4.002c-.145.182-.356.325-.601.404v-4.81c.245.079.454.222.601.404z" clip-rule="evenodd"/>
        <path fill="#FFB93E" fill-rule="evenodd" d="M265.559 224.262v2.799c0 .223-.082.432-.22.604-.145.182-.356.322-.601.402-.075.027-.154.045-.236.057-.073.011-.15.015-.227.015h-53.022c-.685 0-1.247-.454-1.283-1.021V224.208c.034-.568.598-1.022 1.283-1.022h53.024c.077 0 .155.005.227.016.082.014.159.032.236.057.245.079.456.222.601.401.138.175.22.38.22.602" clip-rule="evenodd"/>
        <path fill="#FFA412" fill-rule="evenodd" d="M239.521 228.139h-28.408c-.612 0-1.113-.454-1.145-1.021V224.208c.032-.568.535-1.022 1.145-1.022h24.92c.397 1.46 1.324 3.476 3.488 4.953zm18.983 0h.603v-4.953h-.603v4.953zm-2.039 0h.604v-4.953h-.604v4.953zm-2.447 0h.604v-4.953h-.604v4.953zm-3.75 0h.603v-4.953h-.603v4.953zm-3.964 0h.601v-4.953h-.601v4.953zm-6.08 0h.603v-4.953h-.603v4.953z" clip-rule="evenodd"/>
        <path fill="#FFA412" fill-rule="evenodd" d="M234.533 228.139h.603v-4.953h-.603v4.953zm-5.082 0h.603v-4.953h-.603v4.953zm30.998 0h.601v-4.953h-.601v4.953zm1.281 0h.603v-4.953h-.603v4.953zm1.238 0h.604v-4.953h-.604v4.953zm1.536-4.937v4.922c-.073.011-.15.015-.227.015h-.377v-4.953h.377c.077 0 .154.005.227.016zm.836.458v4.005c-.145.182-.356.322-.601.402v-4.808c.245.079.456.222.601.401" clip-rule="evenodd"/>
        <path fill="#FFB93E" fill-rule="evenodd" d="M259.889 219.308v2.799c0 .223-.08.432-.22.602-.145.182-.356.322-.601.404-.077.023-.154.045-.236.055-.073.011-.15.018-.227.018h-53.024c-.683 0-1.247-.457-1.281-1.024v-2.91c.036-.568.598-1.022 1.281-1.022h53.029l.099.002.046.005c.013 0 .029 0 .045.004l.034.005c.082.011.159.029.236.057l.034.011.032.011c.023.007.045.018.063.028l.037.015.034.016.059.032.068.041.05.034v.005l.034.022.093.082.024.023.025.029c.016.016.032.034.046.055.143.17.222.379.222.601" clip-rule="evenodd"/>
        <path fill="#FFA412" fill-rule="evenodd" d="M233.852 223.186h-28.408c-.612 0-1.113-.457-1.145-1.024v-2.91c.032-.568.533-1.022 1.145-1.022h24.918l.034.123c.417 1.448 1.351 3.393 3.456 4.833zm18.983 0h.603v-4.956h-.603v4.956zm-2.039 0h.601v-4.956h-.601v4.956zm-2.447 0h.604v-4.956h-.604v4.956zm-3.75 0h.603v-4.956h-.603v4.956zm-3.967 0h.604v-4.956h-.604v4.956zm-6.077 0h.603v-4.956h-.603v4.956z" clip-rule="evenodd"/>
        <path fill="#FFA412" fill-rule="evenodd" d="M228.863 223.186h.603v-4.956h-.603v4.956zm-5.082 0h.601v-4.956h-.601v4.956zm30.996 0h.603v-4.956h-.603v4.956zm1.283 0h.603v-4.956h-.603v4.956zm1.241 0h.601v-4.956h-.601v4.956zm1.533-4.94v4.922c-.073.011-.15.015-.227.015h-.377v-4.951h.379c.075 0 .152.007.227.016l-.002-.002zm.836.458v4.005c-.145.182-.356.322-.601.404V218.3c.245.082.454.223.601.404" clip-rule="evenodd"/>
        <path fill="#FFB93E" fill-rule="evenodd" d="M262.629 214.476v2.799c0 .222-.079.431-.22.601-.145.182-.353.323-.601.405-.074.022-.154.043-.235.054-.075.011-.148.018-.227.018h-53.024c-.214 0-.415-.045-.592-.122-.377-.166-.644-.484-.687-.854l-.003-.048-.002-.054v-2.856c.036-.568.599-1.022 1.284-1.022h53.024c.079 0 .152.005.227.016.081.012.158.03.235.057.248.08.456.22.601.402.141.172.22.381.22.604z" clip-rule="evenodd"/>
        <path fill="#FFA412" fill-rule="evenodd" d="M236.591 218.353h-28.408c-.19 0-.369-.045-.528-.122-.336-.166-.576-.484-.612-.854l-.003-.048-.002-.054v-2.856c.032-.568.535-1.022 1.145-1.022h24.918c.388 1.417 1.277 3.365 3.316 4.834l.174.122zm18.983 0h.604v-4.956h-.604v4.956zm-2.041 0h.604v-4.956h-.604v4.956zm-2.444 0h.601v-4.956h-.601v4.956zm-3.751 0h.603v-4.956h-.603v4.956zm-3.964 0h.603v-4.956h-.603v4.956zm-6.08 0h.603v-4.956h-.603v4.956z" clip-rule="evenodd"/>
        <path fill="#FFA412" fill-rule="evenodd" d="M231.603 218.353h.604v-4.956h-.604v4.956zm-5.082 0h.604v-4.956h-.604v4.956zm30.998 0h.603v-4.956h-.603v4.956zm1.281 0h.604v-4.956h-.604v4.956zm1.239 0h.603v-4.956h-.603v4.956zm1.537-4.94v4.922c-.075.011-.15.016-.227.016h-.378v-4.954h.376c.079 0 .154.005.227.016h.002zm.835.461v4.002c-.146.182-.354.323-.601.402v-4.808c.247.08.455.22.601.402" clip-rule="evenodd"/>
        <path fill="#FFB93E" fill-rule="evenodd" d="M263.899 209.52v2.797c0 .225-.079.431-.22.601-.145.182-.353.327-.6.407-.075.023-.155.043-.236.054-.073.012-.148.018-.227.018h-53.022c-.685 0-1.247-.456-1.281-1.023l-.002-.057v-2.854c.031-.524.517-.953 1.131-1.014.05-.005.1-.01.152-.01h53.026c.078 0 .152.007.227.019.08.011.159.031.234.054.247.082.456.225.601.406.14.171.22.377.22.602" clip-rule="evenodd"/>
        <path fill="#FFA412" fill-rule="evenodd" d="M237.862 213.397h-28.408c-.612 0-1.111-.456-1.143-1.023l-.002-.057v-2.854c.029-.524.462-.953 1.009-1.014.045-.005.09-.01.136-.01h24.92v.01c.401 1.457 1.329 3.471 3.488 4.948zm18.983 0h.603v-4.958h-.603v4.958zm-2.039 0h.601v-4.958h-.601v4.958zm-2.447 0h.601v-4.958h-.601v4.958zm-3.751 0h.604v-4.958h-.604v4.958zm-3.964 0h.604v-4.958h-.604v4.958zm-6.079 0h.603v-4.958h-.603v4.958z" clip-rule="evenodd"/>
        <path fill="#FFA412" fill-rule="evenodd" d="M232.872 213.397h.603v-4.958h-.603v4.958zm-5.082 0h.603v-4.958h-.603v4.958zm30.998 0h.603v-4.958h-.603v4.958zm1.283 0h.601v-4.958h-.601v4.958zm1.236 0h.603v-4.958h-.603v4.958zm1.538-4.939v4.921c-.075.012-.15.018-.227.018h-.379v-4.958h.379c.077 0 .152.007.227.019zm.834.46v4c-.145.182-.354.325-.601.407v-4.813c.247.082.456.225.601.406z" clip-rule="evenodd"/>
        <path fill="#FFB93E" fill-rule="evenodd" d="M260.001 204.571v2.799c0 .223-.081.432-.22.602-.145.182-.356.325-.601.404-.077.025-.154.045-.235.055-.023.004-.048.009-.075.009l-.041.004-.041.002h-53.097c-.682 0-1.247-.454-1.281-1.021v-2.906l.005-.045c.052-.457.444-.833.961-.945l.039-.009c.09-.016.181-.022.276-.022h53.142l.053.006c.02 0 .038.005.059.009.081.012.158.03.235.055.245.079.454.222.601.404.139.173.22.379.22.602" clip-rule="evenodd"/>
        <path fill="#FFA412" fill-rule="evenodd" d="M233.963 208.449h-28.408c-.612 0-1.113-.456-1.145-1.022V204.517l.005-.045c.045-.468.412-.849.889-.954l.047-.007c.068-.011.136-.018.204-.018h24.92l.01.034c.401 1.453 1.328 3.449 3.467 4.913l.011.009zm18.983 0h.604v-4.956h-.604v4.956zm-2.038 0h.601v-4.956h-.601v4.956zm-2.447 0h.603v-4.956h-.603v4.956zm-3.751 0h.603v-4.956h-.603v4.956zm-3.964 0h.601v-4.956h-.601v4.956zm-6.08 0h.603v-4.956h-.603v4.956z" clip-rule="evenodd"/>
        <path fill="#FFA412" fill-rule="evenodd" d="M228.974 208.449h.603v-4.956h-.603v4.956zm-5.082 0h.603v-4.956h-.603v4.956zm30.995 0h.603v-4.956h-.603v4.956zm1.283 0h.604v-4.956h-.604v4.956zm1.241 0h.601v-4.956h-.601v4.956zm1.533-4.938v4.92c-.073.011-.15.018-.227.018h-.376v-4.956h.378c.075 0 .152.007.227.018h-.002zm.837.459v4.002c-.145.182-.356.325-.601.404v-4.812c.245.081.453.227.601.406z" clip-rule="evenodd"/>
        <path fill="#FFB93E" fill-rule="evenodd" d="M259.889 199.65v2.801c0 .22-.08.429-.22.602-.145.181-.356.322-.601.402-.061.02-.123.036-.182.047h-.002l-.052.009c-.073.012-.15.016-.227.016h-53.024c-.057 0-.111-.002-.165-.009-.023 0-.044-.004-.064-.007-.576-.088-1.02-.504-1.052-1.005v-2.911c.036-.567.598-1.021 1.281-1.021h53.029l.099.002.046.005.045.004.034.005c.082.013.159.031.236.056l.034.012.032.011.063.025.071.034.059.034c.022.012.045.023.068.039l.05.034v.004l.034.023c.034.025.063.052.093.082l.024.022.025.028.046.054c.143.175.222.382.222.602" clip-rule="evenodd"/>
        <path fill="#FFA412" fill-rule="evenodd" d="M233.852 203.527h-28.476l-.073-.007c-.546-.063-.975-.492-1.004-1.014v-2.911c.032-.567.533-1.021 1.145-1.021h24.918l.034.12c.413 1.437 1.338 3.364 3.404 4.799l.052.034zm18.983 0h.603v-4.953h-.603v4.953zm-2.039 0h.601v-4.953h-.601v4.953zm-2.447 0h.604v-4.953h-.604v4.953zm-3.75 0h.603v-4.953h-.603v4.953zm-3.967 0h.604v-4.953h-.604v4.953zm-6.077 0h.603v-4.953h-.603v4.953z" clip-rule="evenodd"/>
        <path fill="#FFA412" fill-rule="evenodd" d="M228.863 203.527h.603v-4.953h-.603v4.953zm-5.082 0h.601v-4.953h-.601v4.953zm30.996 0h.603v-4.953h-.603v4.953zm1.283 0h.603v-4.953h-.603v4.953zm1.241 0h.601v-4.953h-.601v4.953zm1.533-4.937v4.921c-.073.012-.15.016-.227.016h-.377v-4.953h.379c.075 0 .152.004.227.016h-.002zm.836.46v4.003c-.145.181-.356.322-.601.402v-4.809c.245.08.454.223.601.402" clip-rule="evenodd"/>
        <path fill="#FFB93E" fill-rule="evenodd" d="M262.629 194.816v2.799c0 .223-.079.432-.22.604-.145.182-.353.323-.601.402-.074.027-.154.045-.235.055-.075.013-.148.018-.227.018h-53.024c-.214 0-.415-.043-.592-.121-.377-.165-.644-.483-.687-.853l-.003-.048-.002-.057V194.762c.036-.568.599-1.022 1.284-1.022h53.024c.079 0 .152.005.227.016.081.014.158.03.235.057.248.079.456.22.601.402.141.174.22.379.22.601" clip-rule="evenodd"/>
        <path fill="#FFA412" fill-rule="evenodd" d="M236.591 198.694h-28.408c-.19 0-.369-.043-.528-.121-.336-.165-.576-.483-.612-.853l-.003-.048-.002-.057V194.762c.032-.568.535-1.022 1.145-1.022h24.918c.388 1.419 1.277 3.367 3.316 4.833l.174.121zm18.983 0h.604v-4.954h-.604v4.954zm-2.041 0h.604v-4.954h-.604v4.954zm-2.444 0h.601v-4.954h-.601v4.954zm-3.751 0h.603v-4.954h-.603v4.954zm-3.964 0h.603v-4.954h-.603v4.954zm-6.08 0h.603v-4.954h-.603v4.954z" clip-rule="evenodd"/>
        <path fill="#FFA412" fill-rule="evenodd" d="M231.603 198.694h.604v-4.954h-.604v4.954zm-5.082 0h.604v-4.954h-.604v4.954zm30.998 0h.603v-4.954h-.603v4.954zm1.281 0h.604v-4.954h-.604v4.954zm1.239 0h.603v-4.954h-.603v4.954zm1.537-4.938v4.922c-.075.011-.15.016-.227.016h-.378v-4.954h.376c.079 0 .154.005.227.016h.002zm.835.459v4.004c-.146.182-.354.323-.601.402v-4.808c.247.079.455.22.601.402" clip-rule="evenodd"/>
        <path fill="#FFB93E" fill-rule="evenodd" d="M266.962 189.863v2.799c0 .223-.079.429-.22.602-.147.181-.356.322-.601.404-.074.023-.154.041-.235.054-.075.012-.148.018-.227.018h-53.027c-.682 0-1.247-.456-1.281-1.023v-2.908c.032-.527.517-.954 1.132-1.018.047-.006.099-.006.149-.006h53.027c.079 0 .152.004.227.016.081.011.158.029.235.056.245.08.454.221.601.404.141.171.22.377.22.602" clip-rule="evenodd"/>
        <path fill="#FFA412" fill-rule="evenodd" d="M240.924 193.738h-28.41c-.608 0-1.111-.454-1.143-1.021v-2.908c.03-.527.463-.954 1.009-1.018.046-.006.091-.006.136-.006h24.918l.005.006c.399 1.458 1.326 3.474 3.485 4.949v-.002zm18.983.002h.604v-4.955h-.604v4.955zm-2.041 0h.604v-4.955h-.604v4.955zm-2.444 0h.601v-4.955h-.601v4.955zm-3.751 0h.603v-4.955h-.603v4.955zm-3.964 0h.603v-4.955h-.603v4.955zm-6.08 0h.603v-4.955h-.603v4.955z" clip-rule="evenodd"/>
        <path fill="#FFA412" fill-rule="evenodd" d="M235.935 193.74h.604v-4.955h-.604v4.955zm-5.081 0h.603v-4.955h-.603v4.955zm30.997 0h.603v-4.955h-.603v4.955zm1.284 0h.601v-4.955h-.601v4.955zm1.236 0h.603v-4.955h-.603v4.955zm1.535-4.939v4.921c-.075.012-.148.018-.227.018h-.376v-4.955h.376c.079 0 .152.004.227.016zm.839.458v4.005c-.15.181-.356.322-.603.404v-4.813c.247.082.453.223.601.404" clip-rule="evenodd"/>
        <path fill="#FFB93E" fill-rule="evenodd" d="M358.203 278.294v2.796c0 .227-.084.432-.222.604-.148.182-.356.325-.601.404-.075.025-.157.044-.236.055-.075.014-.15.018-.227.018h-53.026c-.64 0-1.177-.399-1.27-.917-.007-.034-.011-.073-.014-.107v-2.908c0-.036.007-.072.014-.107.093-.517.63-.917 1.27-.917h53.026c.077 0 .152.005.227.016.079.012.159.032.236.057.245.079.453.222.601.404.136.173.22.379.22.602" clip-rule="evenodd"/>
        <path fill="#FFA412" fill-rule="evenodd" d="M332.16 282.171h-28.407c-.529 0-.971-.34-1.102-.799-.012-.039-.023-.077-.03-.118-.007-.034-.011-.073-.014-.107v-2.908c0-.036.007-.072.014-.107.007-.038.018-.079.03-.115.131-.459.573-.802 1.102-.802h24.922c.395 1.458 1.322 3.476 3.485 4.956zm18.986 0h.601v-4.956h-.601v4.956zm-2.041 0h.603v-4.956h-.603v4.956zm-2.445 0h.601v-4.956h-.601v4.956zm-3.75 0h.601v-4.956h-.601v4.956zm-3.967 0h.604v-4.956h-.604v4.956zm-6.077 0h.601v-4.956h-.601v4.956z" clip-rule="evenodd"/>
        <path fill="#FFA412" fill-rule="evenodd" d="M327.172 282.171h.603v-4.956h-.603v4.956zm-5.082 0h.603v-4.956h-.603v4.956zm30.997 0h.604v-4.956h-.604v4.956zm1.284 0h.603v-4.956h-.603v4.956zm1.238 0h.601v-4.956h-.601v4.956zm1.533-4.937v4.921c-.072.012-.147.016-.227.016h-.374v-4.956h.377c.077 0 .152.007.226.016l-.002.003zm.839.458v4.002c-.147.182-.356.325-.601.404v-4.81c.245.079.454.222.601.404z" clip-rule="evenodd"/>
        <path fill="#FFB93E" fill-rule="evenodd" d="M352.529 273.338v2.799c0 .223-.08.431-.218.602-.147.181-.356.324-.603.404-.075.022-.152.045-.236.057l-.111.011-.114.004h-53.026c-.642 0-1.179-.401-1.27-.919-.007-.032-.011-.068-.011-.102l-.002-.057V273.284c.002-.037.006-.071.013-.105.091-.52.628-.919 1.27-.919h53.026c.034 0 .068 0 .102.004l.037.005h.007l.045.004.034.005c.084.014.159.029.236.054l.034.012.032.011.024.011.041.016.037.016.011.005.023.011.059.034c.054.032.104.066.151.102.023.016.046.034.062.053.045.043.09.088.129.136.138.17.218.377.218.599" clip-rule="evenodd"/>
        <path fill="#FFA412" fill-rule="evenodd" d="M326.491 277.215h-28.406c-.528 0-.975-.34-1.104-.801-.014-.039-.023-.077-.03-.118-.007-.032-.011-.068-.011-.102l-.002-.057V273.284c.002-.037.006-.071.013-.105.007-.038.016-.079.03-.118.131-.461.576-.801 1.104-.801h24.916l.036.122c.215.749.569 1.635 1.154 2.509.542.817 1.286 1.634 2.3 2.324zm18.983 0h.603v-4.955h-.603v4.955zm-2.039 0h.603v-4.955h-.603v4.955zm-2.447 0h.603v-4.955h-.603v4.955zm-3.751 0h.604v-4.955h-.604v4.955zm-3.964 0h.604v-4.955h-.604v4.955zm-6.079 0h.603v-4.955h-.603v4.955z" clip-rule="evenodd"/>
        <path fill="#FFA412" fill-rule="evenodd" d="M321.504 277.215h.601v-4.955h-.601v4.955zm-5.084 0h.605v-4.955h-.605v4.955zm30.998 0h.6v-4.955h-.6v4.955zm1.281 0h.603v-4.955h-.603v4.955zm1.24 0h.603v-4.955h-.603v4.955zm1.536-4.937v4.919c-.075.012-.15.018-.227.018h-.377v-4.953h.377c.077 0 .152.007.227.018v-.002zm.836.461v4c-.147.181-.356.324-.603.404v-4.811c.247.08.456.223.603.404" clip-rule="evenodd"/>
        <path fill="#FFB93E" fill-rule="evenodd" d="M355.271 268.505v2.799c0 .223-.082.431-.22.602-.147.181-.358.322-.601.402-.077.027-.157.045-.236.056-.072.012-.15.018-.227.018h-53.026c-.213 0-.413-.045-.59-.122-.376-.166-.644-.481-.687-.854l-.004-.045v-2.913c0-.034.004-.068.011-.102.093-.517.63-.919 1.27-.919h53.026c.077 0 .155.007.227.016.079.013.159.031.236.056.243.08.454.223.601.404.138.173.22.38.22.602" clip-rule="evenodd"/>
        <path fill="#FFA412" fill-rule="evenodd" d="M329.233 272.382h-28.41c-.191 0-.37-.045-.526-.122-.336-.166-.576-.481-.613-.854l-.004-.045v-2.913c0-.034.004-.068.011-.102.009-.041.018-.079.032-.118.129-.461.574-.801 1.1-.801h24.922c.159.579.397 1.248.769 1.934.535.997 1.338 2.032 2.542 2.899l.177.122zm18.983 0h.601v-4.955h-.601v4.955zm-2.041 0h.603v-4.955h-.603v4.955zm-2.445 0h.601v-4.955h-.601v4.955zm-3.75 0h.603v-4.955h-.603v4.955zm-3.967 0h.603v-4.955h-.603v4.955zm-6.077 0h.601v-4.955h-.601v4.955z" clip-rule="evenodd"/>
        <path fill="#FFA412" fill-rule="evenodd" d="M324.241 272.382h.603v-4.955h-.603v4.955zm-5.082 0h.603v-4.955h-.603v4.955zm30.998 0h.603v-4.955h-.603v4.955zm1.283 0h.604v-4.955h-.604v4.955zm1.239 0h.603v-4.955h-.603v4.955zm1.533-4.937v4.919c-.071.012-.148.018-.227.018h-.374v-4.955h.376c.077 0 .154.007.227.018h-.002zm.839.458v4.003c-.146.181-.356.322-.604.404v-4.811c.248.08.458.223.604.404z" clip-rule="evenodd"/>
        <path fill="#FFB93E" fill-rule="evenodd" d="M356.54 263.551v2.797c0 .223-.079.431-.22.602-.038.045-.077.088-.122.129-.132.12-.295.216-.479.273-.077.027-.154.045-.235.059l-.114.011-.113.004H302.23c-.639 0-1.176-.399-1.269-.917-.007-.034-.01-.068-.012-.104v-2.91c0-.034.005-.069.009-.098.084-.481.545-.858 1.121-.919.049-.005.099-.007.151-.007h53.027c.077 0 .154.007.227.018.081.011.158.029.235.054.243.08.454.223.601.404.141.171.22.38.22.604" clip-rule="evenodd"/>
        <path fill="#FFA412" fill-rule="evenodd" d="M330.502 267.426h-28.41c-.526 0-.97-.34-1.1-.801-.013-.038-.022-.077-.031-.116-.007-.034-.01-.068-.012-.104v-2.91c0-.034.005-.069.009-.098.073-.479.488-.858.998-.919l.136-.007h24.923v.007c.136.499.34 1.066.628 1.657.555 1.121 1.44 2.32 2.857 3.291h.002zm18.983 0h.604v-4.955h-.604v4.955zm-2.038 0h.601v-4.955h-.601v4.955zm-2.447 0h.603v-4.955H345v4.955zm-3.751 0h.603v-4.955h-.603v4.955zm-3.966 0h.603v-4.955h-.603v4.955zm-6.078 0h.603v-4.955h-.603v4.955z" clip-rule="evenodd"/>
        <path fill="#FFA412" fill-rule="evenodd" d="M325.512 267.426h.604v-4.955h-.604v4.955zm-5.079 0h.601v-4.955h-.601v4.955zm30.995 0h.603v-4.955h-.603v4.955zm1.283 0h.604v-4.955h-.604v4.955zm1.239 0h.603v-4.955h-.603v4.955zm1.533-4.937v4.919c-.071.012-.148.018-.225.018h-.376v-4.955h.376c.077 0 .154.007.227.018h-.002zm.839.458v4.003c-.145.181-.356.324-.601.404v-4.813c.245.082.453.227.601.406z" clip-rule="evenodd"/>
        <path fill="#FFB93E" fill-rule="evenodd" d="M352.643 258.599v2.8c0 .224-.082.431-.22.603-.148.18-.356.323-.604.402-.072.027-.154.046-.233.055l-.075.011h-.011c-.023.005-.048.007-.073.007h-53.092c-.64 0-1.177-.4-1.27-.917-.007-.034-.011-.071-.011-.105v-2.91l.002-.045c.052-.459.447-.834.964-.943l.036-.011c.091-.013.181-.023.279-.023h53.026l.114.003c.018 0 .036 0 .05.007h.002c.023 0 .041.002.061.006.079.012.159.03.234.055.247.082.456.222.603.406.136.17.22.379.22.599" clip-rule="evenodd"/>
        <path fill="#FFA412" fill-rule="evenodd" d="M326.603 262.477h-28.408c-.526 0-.971-.341-1.102-.799-.012-.039-.023-.077-.03-.118-.007-.034-.011-.071-.011-.105v-2.91l.002-.045c.045-.466.413-.849.891-.952l.048-.009c.068-.011.134-.016.204-.016h24.918l.009.034c.404 1.456 1.331 3.444 3.469 4.913l.01.007zm18.983 0h.603v-4.954h-.603v4.954zm-2.039 0h.603v-4.954h-.603v4.954zm-2.447 0h.603v-4.954h-.603v4.954zm-3.748 0h.601v-4.954h-.601v4.954zm-3.967 0h.604v-4.954h-.604v4.954zm-6.079 0h.603v-4.954h-.603v4.954z" clip-rule="evenodd"/>
        <path fill="#FFA412" fill-rule="evenodd" d="M321.615 262.477h.603v-4.954h-.603v4.954zm-5.082 0h.601v-4.954h-.601v4.954zm30.996 0h.603v-4.954h-.603v4.954zm1.283 0h.601v-4.954h-.601v4.954zm1.238 0h.603v-4.954h-.603v4.954zm1.536-4.938v4.922c-.075.011-.15.016-.227.016h-.377v-4.954h.377c.077 0 .152.005.227.016zm.836.459v4.004c-.147.182-.356.323-.603.402v-4.808c.247.08.456.22.603.402" clip-rule="evenodd"/>
        <path fill="#FFB93E" fill-rule="evenodd" d="M352.529 253.68v2.799c0 .222-.08.429-.218.602-.147.181-.356.324-.603.404-.057.018-.12.034-.184.047l-.052.009c-.073.009-.147.016-.225.016h-53.026c-.057 0-.113-.004-.168-.011l-.061-.007c-.54-.082-.966-.452-1.043-.912-.005-.032-.009-.062-.009-.091l-.002-.057v-2.856l.013-.102c.091-.52.628-.919 1.27-.919h53.026c.034 0 .068 0 .102.004h.012l.032.002.045.005.034.007c.084.011.159.032.236.054l.034.012.032.011.024.009.041.018h.003l.029.016c.091.041.175.093.249.152.023.018.046.034.062.052.02.016.038.034.056.055l.023.025c.018.016.034.036.05.054.138.171.218.379.218.602" clip-rule="evenodd"/>
        <path fill="#FFA412" fill-rule="evenodd" d="M326.491 257.557h-28.474l-.073-.009c-.514-.059-.925-.442-.997-.921l-.007-.091-.002-.057v-2.856l.013-.102c.007-.041.016-.079.03-.118.131-.459.576-.801 1.104-.801h24.916l.036.122c.413 1.435 1.338 3.362 3.404 4.799l.05.034zm18.983 0h.603v-4.955h-.603v4.955zm-2.039 0h.603v-4.955h-.603v4.955zm-2.447 0h.603v-4.955h-.603v4.955zm-3.751 0h.604v-4.955h-.604v4.955zm-3.964 0h.604v-4.955h-.604v4.955zm-6.079 0h.603v-4.955h-.603v4.955z" clip-rule="evenodd"/>
        <path fill="#FFA412" fill-rule="evenodd" d="M321.504 257.557h.601v-4.955h-.601v4.955zm-5.084 0h.605v-4.955h-.605v4.955zm30.998 0h.6v-4.955h-.6v4.955zm1.281 0h.603v-4.955h-.603v4.955zm1.24 0h.603v-4.955h-.603v4.955zm1.536-4.937v4.921c-.075.012-.15.016-.227.016h-.377v-4.955h.377c.077 0 .152.006.227.018zm.836.458v4.003c-.147.181-.356.324-.603.404v-4.811c.247.08.456.223.603.404z" clip-rule="evenodd"/>
        <path fill="#FFB93E" fill-rule="evenodd" d="M355.271 248.848v2.799c0 .222-.082.429-.22.601-.147.182-.358.325-.601.405-.077.022-.157.045-.236.054-.038.007-.075.011-.113.014l-.114.004h-53.026c-.213 0-.413-.045-.59-.122-.376-.166-.644-.484-.687-.854l-.004-.048V248.793c0-.036.004-.07.011-.104.093-.52.63-.919 1.27-.919h53.026c.077 0 .155.004.227.018.079.011.159.029.236.054.243.082.454.223.601.404.138.173.22.377.22.602" clip-rule="evenodd"/>
        <path fill="#FFA412" fill-rule="evenodd" d="M329.233 252.725h-28.41c-.191 0-.37-.045-.526-.122-.336-.166-.576-.484-.613-.854l-.004-.048V248.793c0-.036.004-.07.011-.104.009-.041.018-.08.032-.118.129-.461.574-.801 1.1-.801h24.922c.386 1.418 1.27 3.366 3.311 4.835l.177.12zm18.983 0h.601v-4.955h-.601v4.955zm-2.041 0h.603v-4.955h-.603v4.955zm-2.445 0h.601v-4.955h-.601v4.955zm-3.75 0h.603v-4.955h-.603v4.955zm-3.967 0h.603v-4.955h-.603v4.955zm-6.077 0h.601v-4.955h-.601v4.955z" clip-rule="evenodd"/>
        <path fill="#FFA412" fill-rule="evenodd" d="M324.241 252.725h.603v-4.955h-.603v4.955zm-5.082 0h.603v-4.955h-.603v4.955zm30.998 0h.603v-4.955h-.603v4.955zm1.283 0h.604v-4.955h-.604v4.955zm1.239 0h.603v-4.955h-.603v4.955zm1.533-4.937v4.919c-.071.011-.148.018-.227.018h-.374v-4.955h.376c.077 0 .154.006.227.018h-.002zm.839.456v4.004c-.146.182-.356.325-.604.405v-4.811c.248.08.458.223.604.404" clip-rule="evenodd"/>
        <path fill="#FFB93E" fill-rule="evenodd" d="M359.605 243.892v2.799c0 .222-.081.429-.22.601l-.059.069c-.14.147-.329.265-.544.336-.075.022-.152.045-.234.054-.074.011-.149.018-.226.018h-53.027c-.639 0-1.177-.399-1.27-.919-.006-.032-.011-.068-.013-.102v-2.911c.034-.526.517-.953 1.129-1.017.052-.004.102-.007.154-.007h53.027c.077 0 .152.005.226.019.082.011.159.029.236.054.213.068.402.189.545.338.018.023.036.046.056.064.139.175.22.384.22.604" clip-rule="evenodd"/>
        <path fill="#FFA412" fill-rule="evenodd" d="M333.565 247.769h-28.408c-.526 0-.971-.34-1.1-.801-.014-.039-.025-.077-.032-.118-.006-.032-.011-.068-.013-.102v-2.911c.004-.05.011-.097.022-.145.093-.456.492-.815.987-.872l.136-.007h24.922v.007c.399 1.46 1.327 3.474 3.486 4.949zm18.985 0h.604v-4.956h-.604v4.956zm-2.041 0h.604v-4.956h-.604v4.956zm-2.447 0h.604v-4.956h-.604v4.956zm-3.748 0h.603v-4.956h-.603v4.956zm-3.966 0h.603v-4.956h-.603v4.956zm-6.078 0h.603v-4.956h-.603v4.956z" clip-rule="evenodd"/>
        <path fill="#FFA412" fill-rule="evenodd" d="M328.576 247.769h.603v-4.956h-.603v4.956zm-5.08 0h.601v-4.956h-.601v4.956zm30.995 0h.604v-4.956h-.604v4.956zm1.284 0h.603v-4.956h-.603v4.956zm1.238 0h.603v-4.956h-.603v4.956zm1.535-4.937v4.919c-.074.011-.149.018-.226.018h-.377v-4.956h.377c.077 0 .152.007.226.019zm.835.458v4.002c-.143.182-.354.323-.601.405v-4.813c.247.082.458.227.603.408" clip-rule="evenodd"/>
        <path fill="#FFB93E" fill-rule="evenodd" d="M352.643 238.946v2.799c0 .22-.082.429-.22.599-.148.182-.356.325-.604.404-.072.025-.154.046-.233.057l-.075.009h-.005l-.036.002-.02.003h-53.115c-.64 0-1.177-.398-1.27-.915-.007-.034-.011-.068-.011-.105v-2.908c0-.034.004-.07.011-.104.093-.518.63-.917 1.27-.917h53.101c.023.002.041.002.059.006.032 0 .064.005.093.01.079.013.159.031.234.056l.09.032.021.011c.199.082.367.205.492.359.136.173.22.379.22.604" clip-rule="evenodd"/>
        <path fill="#FFA412" fill-rule="evenodd" d="M326.603 242.818h-28.408c-.526 0-.971-.339-1.102-.797-.012-.039-.023-.077-.03-.118-.007-.034-.011-.068-.011-.105v-2.908c0-.034.004-.07.011-.104.007-.041.018-.08.03-.118.131-.459.576-.799 1.102-.799h24.922c.007.036.018.075.03.113.415 1.446 1.347 3.394 3.446 4.833l.01.007v-.004zm18.983.002h.603v-4.956h-.603v4.956zm-2.039 0h.603v-4.956h-.603v4.956zm-2.447 0h.603v-4.956h-.603v4.956zm-3.748 0h.601v-4.956h-.601v4.956zm-3.967 0h.604v-4.956h-.604v4.956zm-6.079 0h.603v-4.956h-.603v4.956z" clip-rule="evenodd"/>
        <path fill="#FFA412" fill-rule="evenodd" d="M321.615 242.82h.603v-4.956h-.603v4.956zm-5.082 0h.601v-4.956h-.601v4.956zm30.996 0h.603v-4.956h-.603v4.956zm1.283 0h.601v-4.956h-.601v4.956zm1.238 0h.603v-4.956h-.603v4.956zm1.536-4.938v4.922c-.075.011-.15.016-.227.016h-.377v-4.956h.377c.077 0 .152.007.227.018zm.836.459v4.002c-.147.182-.356.325-.603.404v-4.81c.247.082.456.225.603.404z" clip-rule="evenodd"/>
        <path fill="#FFB93E" fill-rule="evenodd" d="M356.54 234.101v2.801c0 .223-.079.432-.22.602-.147.182-.358.325-.601.404-.077.023-.154.043-.235.057-.073.009-.15.018-.227.018H302.23c-.206 0-.401-.043-.573-.116-.361-.154-.628-.447-.694-.794-.005-.023-.009-.046-.009-.071l-.005-.045v-2.908c0-.034.005-.068.009-.098.084-.479.545-.863 1.121-.919.049-.005.099-.007.151-.007h53.027l.143.007c.027 0 .056.004.084.009.081.013.158.032.235.057.243.079.454.222.601.404.141.17.22.376.22.601" clip-rule="evenodd"/>
        <path fill="#FFA412" fill-rule="evenodd" d="M330.502 237.983h-28.41c-.181 0-.358-.043-.51-.116-.324-.154-.56-.447-.619-.794-.005-.023-.009-.046-.009-.071l-.005-.045v-2.908c0-.034.005-.068.009-.098.073-.479.488-.863.998-.919l.136-.007h24.923v.007c.39 1.421 1.281 3.369 3.324 4.835l.163.114v.002zm18.983-.002h.604v-4.956h-.604v4.956zm-2.038 0h.601v-4.956h-.601v4.956zm-2.447 0h.603v-4.956H345v4.956zm-3.751 0h.603v-4.956h-.603v4.956zm-3.966 0h.603v-4.956h-.603v4.956zm-6.078 0h.603v-4.956h-.603v4.956z" clip-rule="evenodd"/>
        <path fill="#FFA412" fill-rule="evenodd" d="M325.512 237.981h.604v-4.956h-.604v4.956zm-5.079 0h.601v-4.956h-.601v4.956zm30.995 0h.603v-4.956h-.603v4.956zm1.283 0h.604v-4.956h-.604v4.956zm1.239 0h.603v-4.956h-.603v4.956zm1.533-4.94v4.921c-.071.012-.148.019-.225.019h-.376v-4.956h.376c.077 0 .154.004.227.016h-.002zm.839.461v4.002c-.145.182-.356.325-.601.404v-4.813c.245.082.453.225.601.407z" clip-rule="evenodd"/>
        <path fill="#FFB93E" fill-rule="evenodd" d="M358.203 229.157v2.799c0 .22-.084.427-.222.602-.036.045-.077.086-.123.127-.131.12-.294.215-.478.277-.075.022-.157.043-.236.052l-.075.011-.032.003-.12.004h-53.026c-.045 0-.093 0-.141-.007-.578-.054-1.043-.431-1.129-.912-.007-.034-.011-.068-.014-.105v-2.906c0-.036.007-.072.014-.106.093-.518.63-.917 1.27-.917h53.026c.077 0 .152.004.227.016.079.011.159.029.236.056.245.077.453.223.601.402.136.173.22.379.22.604" clip-rule="evenodd"/>
        <path fill="#FFA412" fill-rule="evenodd" d="M332.16 233.034h-28.407c-.041 0-.084-.004-.123-.009-.517-.052-.934-.431-1.009-.912-.007-.034-.011-.068-.014-.105v-2.906c0-.036.007-.072.014-.106.007-.039.018-.08.03-.118.131-.459.573-.799 1.102-.799h24.922c.395 1.453 1.32 3.468 3.476 4.949l.009.004v.002zm18.986-.002h.601v-4.953h-.601v4.953zm-2.041 0h.603v-4.953h-.603v4.953zm-2.445 0h.601v-4.953h-.601v4.953zm-3.75 0h.601v-4.953h-.601v4.953zm-3.967 0h.604v-4.953h-.604v4.953zm-6.077 0h.601v-4.953h-.601v4.953z" clip-rule="evenodd"/>
        <path fill="#FFA412" fill-rule="evenodd" d="M327.174 233.032h.603v-4.953h-.603v4.953zm-5.084 0h.603v-4.953h-.603v4.953zm30.997 0h.604v-4.953h-.604v4.953zm1.284 0h.603v-4.953h-.603v4.953zm1.238 0h.601v-4.953h-.601v4.953zm1.533-4.937v4.921c-.072.012-.147.016-.227.016h-.374v-4.953h.377c.077 0 .152.004.226.016h-.002zm.839.458v4.005c-.147.181-.356.322-.601.401v-4.808c.245.08.454.22.601.402" clip-rule="evenodd"/>
        <path fill="#FFB93E" fill-rule="evenodd" d="M191.03 278.293v2.799c0 .223-.079.43-.217.602-.148.182-.356.325-.604.404-.074.025-.154.043-.235.057-.073.011-.148.016-.227.016h-53.022c-.685 0-1.247-.454-1.281-1.022l-.003-.057V278.239c.037-.568.599-1.022 1.284-1.022h53.026c.077 0 .152.005.227.014.079.014.159.032.234.057.247.079.456.222.603.404.136.172.218.379.218.601" clip-rule="evenodd"/>
        <path fill="#FFA412" fill-rule="evenodd" d="M164.993 282.171h-28.408c-.61 0-1.112-.454-1.143-1.022l-.003-.056v-2.854c.032-.567.536-1.021 1.146-1.021h24.918c.399 1.457 1.326 3.473 3.49 4.953zm18.985 0h.601v-4.956h-.601v4.956zm-2.041 0h.601v-4.956h-.601v4.956zm-2.447 0h.603v-4.956h-.603v4.956zm-3.748 0h.601v-4.956h-.601v4.956zm-3.967 0h.604v-4.956h-.604v4.956zm-6.077 0h.601v-4.956h-.601v4.956z" clip-rule="evenodd"/>
        <path fill="#FFA412" fill-rule="evenodd" d="M160.003 282.171h.603v-4.956h-.603v4.956zm-5.082 0h.603v-4.956h-.603v4.956zm30.998 0h.603v-4.956h-.603v4.956zm1.283 0h.603v-4.956h-.603v4.956zm1.238 0h.601v-4.956h-.601v4.956zm1.533-4.937v4.921c-.072.012-.147.016-.226.016h-.375v-4.956h.377c.077 0 .152.007.227.016l-.003.003zm.839.458v4.002c-.147.182-.356.325-.603.404v-4.81c.247.079.456.222.603.404z" clip-rule="evenodd"/>
        <path fill="#FFB93E" fill-rule="evenodd" d="M185.362 273.338v2.799c0 .223-.08.431-.22.602-.145.181-.354.324-.601.404-.075.022-.154.045-.236.054-.073.012-.147.018-.227.018h-53.024c-.685 0-1.247-.454-1.283-1.021V273.284c.036-.568.598-1.024 1.283-1.024h53.024l.102.002.046.007c.015 0 .031 0 .045.004l.034.005c.082.011.159.029.236.054l.032.012.034.013.063.025.039.016.031.016.062.034.068.041.045.034h.005l.031.027c.032.023.066.053.095.08l.023.027.027.025.046.054c.14.173.22.38.22.602" clip-rule="evenodd"/>
        <path fill="#FFA412" fill-rule="evenodd" d="M159.324 277.215h-28.408c-.613 0-1.111-.454-1.145-1.021V273.284c.031-.568.535-1.024 1.145-1.024h24.915l.037.122c.415 1.449 1.351 3.396 3.453 4.836l.003-.003zm18.983 0h.603v-4.955h-.603v4.955zm-2.039 0h.603v-4.955h-.603v4.955zm-2.447 0h.603v-4.955h-.603v4.955zm-3.751 0h.604v-4.955h-.604v4.955zm-3.964 0h.604v-4.955h-.604v4.955zm-6.079 0h.603v-4.955h-.603v4.955z" clip-rule="evenodd"/>
        <path fill="#FFA412" fill-rule="evenodd" d="M154.336 277.215h.601v-4.955h-.601v4.955zm-5.084 0h.603v-4.955h-.603v4.955zm30.998 0h.601v-4.955h-.601v4.955zm1.281 0h.603v-4.955h-.603v4.955zm1.238 0h.603v-4.955h-.603v4.955zm1.535-4.937v4.919c-.072.012-.147.018-.227.018h-.376v-4.953h.376c.08 0 .155.007.227.018v-.002zm.837.461v4c-.145.181-.354.324-.601.404v-4.811c.247.08.456.223.601.404" clip-rule="evenodd"/>
        <path fill="#FFB93E" fill-rule="evenodd" d="M188.101 268.505v2.799c0 .223-.079.431-.218.602-.147.181-.358.322-.603.404-.075.023-.154.045-.234.054-.074.012-.149.018-.226.018h-53.027c-.213 0-.415-.045-.592-.122-.376-.166-.644-.481-.687-.854l-.002-.045-.002-.057V268.451c.036-.568.598-1.024 1.283-1.024h53.027c.077 0 .152.007.226.018.08.011.159.029.234.054.245.08.454.223.603.404.139.173.22.38.22.602" clip-rule="evenodd"/>
        <path fill="#FFA412" fill-rule="evenodd" d="M162.063 272.382h-28.408c-.191 0-.37-.045-.528-.122-.336-.166-.574-.481-.613-.854l-.002-.045-.002-.057V268.451c.032-.568.535-1.024 1.145-1.024h24.92c.386 1.419 1.275 3.366 3.313 4.833l.175.122zm18.985 0h.601v-4.955h-.601v4.955zm-2.041 0h.604v-4.955h-.604v4.955zm-2.447 0h.604v-4.955h-.604v4.955zm-3.748 0h.603v-4.955h-.603v4.955zm-3.966 0h.603v-4.955h-.603v4.955zm-6.078 0h.601v-4.955h-.601v4.955z" clip-rule="evenodd"/>
        <path fill="#FFA412" fill-rule="evenodd" d="M157.073 272.382h.603v-4.955h-.603v4.955zm-5.082 0h.603v-4.955h-.603v4.955zm30.998 0h.601v-4.955h-.601v4.955zm1.281 0h.603v-4.955h-.603v4.955zm1.241 0h.603v-4.955h-.603v4.955zm1.535-4.937v4.919c-.075.012-.15.018-.227.018h-.376v-4.955h.376c.077 0 .152.007.227.018zm.837.458v4.003c-.148.181-.359.322-.604.404v-4.811c.245.08.454.223.604.404z" clip-rule="evenodd"/>
        <path fill="#FFB93E" fill-rule="evenodd" d="M189.37 263.549v2.799c0 .223-.079.431-.218.602-.147.181-.356.324-.603.404-.075.025-.154.045-.233.054-.075.012-.15.018-.227.018h-53.026c-.685 0-1.248-.454-1.282-1.021V263.495c.032-.527.515-.954 1.13-1.017.049-.005.099-.007.152-.007h53.026c.077 0 .152.007.227.018.079.011.158.029.233.054.247.08.456.223.603.404.139.173.22.38.22.602" clip-rule="evenodd"/>
        <path fill="#FFA412" fill-rule="evenodd" d="M163.332 267.426h-28.408c-.61 0-1.111-.454-1.143-1.021V263.495c.027-.525.461-.954 1.007-1.017l.136-.007h24.92l.003.007c.399 1.457 1.326 3.473 3.485 4.948zm18.986 0h.603v-4.955h-.603v4.955zm-2.041 0h.603v-4.955h-.603v4.955zm-2.447 0h.603v-4.955h-.603v4.955zm-3.749 0h.603v-4.955h-.603v4.955zm-3.966 0h.603v-4.955h-.603v4.955zm-6.078 0h.604v-4.955h-.604v4.955z" clip-rule="evenodd"/>
        <path fill="#FFA412" fill-rule="evenodd" d="M158.342 267.426h.604v-4.955h-.604v4.955zm-5.079 0h.601v-4.955h-.601v4.955zm30.995 0h.603v-4.955h-.603v4.955zm1.284 0h.601v-4.955h-.601v4.955zm1.238 0h.603v-4.955h-.603v4.955zm1.535-4.937v4.919c-.075.012-.15.018-.227.018h-.376v-4.955h.376c.077 0 .152.007.227.018zm.837.458v4.003c-.148.181-.356.324-.603.404v-4.813c.247.082.455.227.603.406z" clip-rule="evenodd"/>
        <path fill="#FFB93E" fill-rule="evenodd" d="M185.473 258.599v2.802c0 .22-.079.429-.22.601-.145.182-.354.323-.601.402-.075.027-.154.046-.236.057l-.072.009-.043.005h-.041l-.068.002h-53.027c-.684 0-1.247-.454-1.281-1.022l-.002-.054v-2.856l.004-.045c.053-.454.447-.834.962-.945l.038-.007c.091-.018.182-.025.279-.025h53.027l.113.003.052.004.059.009c.082.014.159.03.236.057.247.08.456.22.601.402.141.172.22.381.22.601" clip-rule="evenodd"/>
        <path fill="#FFA412" fill-rule="evenodd" d="M159.437 262.477h-28.413c-.61 0-1.111-.454-1.143-1.022l-.002-.054v-2.856l.004-.045c.046-.466.413-.849.889-.952l.05-.009c.066-.011.132-.016.202-.016h24.923l.006.034c.404 1.453 1.331 3.447 3.47 4.913l.009.007h.005zm18.98 0h.604v-4.954h-.604v4.954zm-2.038 0h.603v-4.954h-.603v4.954zm-2.447 0h.603v-4.954h-.603v4.954zm-3.749 0h.601v-4.954h-.601v4.954zm-3.966 0h.603v-4.954h-.603v4.954zm-6.08 0h.603v-4.954h-.603v4.954z" clip-rule="evenodd"/>
        <path fill="#FFA412" fill-rule="evenodd" d="M154.445 262.477h.603v-4.954h-.603v4.954zm-5.082 0h.603v-4.954h-.603v4.954zm30.998 0h.603v-4.954h-.603v4.954zm1.283 0h.601v-4.954h-.601v4.954zm1.236 0h.604v-4.954h-.604v4.954zm1.536-4.938v4.922c-.073.011-.148.016-.227.016h-.374v-4.954h.376c.077 0 .152.005.227.016h-.002zm.836.459v4.004c-.145.182-.353.323-.601.402v-4.808c.248.08.456.22.601.402" clip-rule="evenodd"/>
        <path fill="#FFB93E" fill-rule="evenodd" d="M185.362 253.68v2.799c0 .222-.08.429-.22.602-.145.181-.354.324-.601.404-.059.02-.12.034-.184.045l-.052.011c-.073.012-.147.016-.227.016h-53.024c-.057 0-.113-.002-.168-.009l-.061-.009c-.578-.088-1.023-.502-1.054-1.006v-2.91c.036-.567.598-1.021 1.283-1.021h53.024c.034 0 .068 0 .102.004l.046.002c.015 0 .031.003.045.007l.034.005c.082.011.159.029.236.054l.032.012.034.011.063.027.068.034.064.032.068.041.045.034.005.002.031.023.095.082.023.025.027.025.046.056c.14.173.22.379.22.602" clip-rule="evenodd"/>
        <path fill="#FFA412" fill-rule="evenodd" d="M159.324 257.557h-28.408l-.068-.002-.073-.007c-.544-.063-.975-.49-1.004-1.015v-2.91c.031-.567.535-1.021 1.145-1.021h24.915l.037.122c.412 1.435 1.333 3.365 3.401 4.799l.052.034h.003zm18.983 0h.603v-4.955h-.603v4.955zm-2.039 0h.603v-4.955h-.603v4.955zm-2.447 0h.603v-4.955h-.603v4.955zm-3.751 0h.604v-4.955h-.604v4.955zm-3.964 0h.604v-4.955h-.604v4.955zm-6.079 0h.603v-4.955h-.603v4.955z" clip-rule="evenodd"/>
        <path fill="#FFA412" fill-rule="evenodd" d="M154.336 257.557h.601v-4.955h-.601v4.955zm-5.084 0h.603v-4.955h-.603v4.955zm30.998 0h.601v-4.955h-.601v4.955zm1.281 0h.603v-4.955h-.603v4.955zm1.238 0h.603v-4.955h-.603v4.955zm1.535-4.937v4.921c-.072.012-.147.016-.227.016h-.376v-4.955h.376c.08 0 .155.006.227.018zm.837.458v4.003c-.145.181-.354.324-.601.404v-4.811c.247.08.456.223.601.404z" clip-rule="evenodd"/>
        <path fill="#FFB93E" fill-rule="evenodd" d="M188.101 248.848v2.799c0 .222-.079.429-.218.601-.147.182-.358.325-.603.405-.075.022-.154.043-.234.054-.074.011-.149.018-.226.018h-53.027c-.213 0-.415-.045-.592-.122-.376-.166-.644-.482-.687-.852l-.002-.05-.002-.054v-2.856c.036-.567.598-1.021 1.283-1.021h53.027c.077 0 .152.004.226.015.08.014.159.032.234.057.245.08.454.223.603.404.139.173.22.379.22.602" clip-rule="evenodd"/>
        <path fill="#FFA412" fill-rule="evenodd" d="M162.063 252.725h-28.408c-.191 0-.37-.045-.528-.122-.336-.166-.574-.482-.613-.852l-.002-.05-.002-.054v-2.856c.032-.567.535-1.021 1.145-1.021h24.92c.386 1.418 1.275 3.366 3.313 4.835l.175.12zm18.985 0h.601v-4.955h-.601v4.955zm-2.041 0h.604v-4.955h-.604v4.955zm-2.447 0h.604v-4.955h-.604v4.955zm-3.748 0h.603v-4.955h-.603v4.955zm-3.966 0h.603v-4.955h-.603v4.955zm-6.078 0h.601v-4.955h-.601v4.955z" clip-rule="evenodd"/>
        <path fill="#FFA412" fill-rule="evenodd" d="M157.073 252.725h.603v-4.955h-.603v4.955zm-5.082 0h.603v-4.955h-.603v4.955zm30.998 0h.601v-4.955h-.601v4.955zm1.281 0h.603v-4.955h-.603v4.955zm1.241 0h.603v-4.955h-.603v4.955zm1.535-4.937v4.919c-.075.011-.15.018-.227.018h-.376v-4.955h.376c.077 0 .152.006.227.018zm.837.456v4.004c-.148.182-.359.325-.604.405v-4.811c.245.08.454.223.604.404" clip-rule="evenodd"/>
        <path fill="#FFB93E" fill-rule="evenodd" d="M192.436 243.892v2.799c0 .222-.081.431-.222.601-.145.182-.356.323-.601.405-.075.022-.154.045-.234.054-.074.011-.151.018-.226.018h-53.027c-.685 0-1.247-.454-1.283-1.021v-2.911c.032-.526.517-.953 1.131-1.017.05-.004.1-.007.152-.007h53.027c.075 0 .152.007.226.019.08.011.159.029.234.054.245.082.454.223.601.404.141.173.222.379.222.602" clip-rule="evenodd"/>
        <path fill="#FFA412" fill-rule="evenodd" d="M166.398 247.769h-28.412c-.61 0-1.111-.454-1.145-1.021v-2.911c.029-.526.462-.953 1.009-1.017l.136-.007h24.92v.007c.399 1.458 1.329 3.474 3.488 4.949h.004zm18.984 0h.601v-4.956h-.601v4.956zm-2.041 0h.603v-4.956h-.603v4.956zm-2.447 0h.603v-4.956h-.603v4.956zm-3.751 0h.603v-4.956h-.603v4.956zm-3.964 0h.601v-4.956h-.601v4.956zm-6.08 0h.603v-4.956h-.603v4.956z" clip-rule="evenodd"/>
        <path fill="#FFA412" fill-rule="evenodd" d="M161.407 247.769h.603v-4.956h-.603v4.956zm-5.08 0h.601v-4.956h-.601v4.956zm30.993 0h.603v-4.956h-.603v4.956zm1.284 0h.603v-4.956h-.603v4.956zm1.24 0h.603v-4.956h-.603v4.956zm1.535-4.937v4.919c-.074.011-.149.018-.226.018h-.377v-4.956h.377c.077 0 .152.007.226.019zm.837.458v4.002c-.147.182-.358.323-.603.405v-4.813c.245.082.454.227.603.408" clip-rule="evenodd"/>
        <path fill="#FFB93E" fill-rule="evenodd" d="M185.473 238.943v2.799c0 .223-.079.432-.22.602-.145.182-.354.325-.601.404-.075.025-.154.045-.236.057l-.072.009-.062.004h-.029l-.061.003h-53.027c-.684 0-1.247-.454-1.281-1.022l-.002-.057V238.889c.036-.568.599-1.022 1.283-1.022h53.095c.054.002.106.007.159.016.079.011.158.032.233.055.039.013.077.027.111.043l.066.029.009.005.064.034.009.004.059.037c.045.027.086.059.127.09l.036.035.007.004.022.023h.003l.038.043.05.057c.141.172.22.379.22.601" clip-rule="evenodd"/>
        <path fill="#FFA412" fill-rule="evenodd" d="M159.437 242.82h-28.413c-.61 0-1.111-.454-1.143-1.022l-.002-.056v-2.854c.032-.567.535-1.021 1.145-1.021h24.923c.006.036.018.074.029.113.415 1.446 1.345 3.394 3.447 4.833l.009.007h.005zm18.98 0h.604v-4.956h-.604v4.956zm-2.038 0h.603v-4.956h-.603v4.956zm-2.447 0h.603v-4.956h-.603v4.956zm-3.749 0h.601v-4.956h-.601v4.956zm-3.966 0h.603v-4.956h-.603v4.956zm-6.08 0h.603v-4.956h-.603v4.956z" clip-rule="evenodd"/>
        <path fill="#FFA412" fill-rule="evenodd" d="M154.445 242.82h.603v-4.956h-.603v4.956zm-5.082 0h.603v-4.956h-.603v4.956zm30.998 0h.603v-4.956h-.603v4.956zm1.283 0h.601v-4.956h-.601v4.956zm1.236 0h.604v-4.956h-.604v4.956zm1.536-4.938v4.922c-.073.011-.148.016-.227.016h-.374v-4.956h.376c.077 0 .152.007.227.018h-.002zm.836.459v4.002c-.145.182-.353.325-.601.404v-4.81c.248.082.456.225.601.404z" clip-rule="evenodd"/>
        <path fill="#FFB93E" fill-rule="evenodd" d="M189.37 234.101v2.801c0 .223-.079.432-.218.602-.147.182-.356.325-.603.404-.075.025-.154.043-.233.054-.075.012-.15.019-.227.019h-53.026c-.205 0-.402-.041-.574-.114-.386-.163-.662-.488-.703-.865l-.005-.045v-2.908c.032-.527.515-.954 1.13-1.017.049-.005.099-.007.152-.007h53.026c.077 0 .152.004.227.016.079.013.158.032.233.057.247.079.456.222.603.404.139.172.22.376.22.601" clip-rule="evenodd"/>
        <path fill="#FFA412" fill-rule="evenodd" d="M163.332 237.981h-28.408c-.181 0-.356-.041-.51-.114-.347-.163-.592-.488-.63-.865l-.003-.045v-2.908c.027-.525.461-.954 1.007-1.017l.136-.007h24.92l.003.007c.387 1.421 1.279 3.369 3.322 4.835l.163.114zm18.986 0h.603v-4.956h-.603v4.956zm-2.041 0h.603v-4.956h-.603v4.956zm-2.447 0h.603v-4.956h-.603v4.956zm-3.749 0h.603v-4.956h-.603v4.956zm-3.966 0h.603v-4.956h-.603v4.956zm-6.078 0h.604v-4.956h-.604v4.956z" clip-rule="evenodd"/>
        <path fill="#FFA412" fill-rule="evenodd" d="M158.342 237.981h.604v-4.956h-.604v4.956zm-5.079 0h.601v-4.956h-.601v4.956zm30.995 0h.603v-4.956h-.603v4.956zm1.284 0h.601v-4.956h-.601v4.956zm1.238 0h.603v-4.956h-.603v4.956zm1.535-4.94v4.921c-.075.012-.15.019-.227.019h-.376v-4.956h.376c.077 0 .152.004.227.016zm.837.461v4.002c-.148.182-.356.325-.603.404v-4.813c.247.082.455.225.603.407z" clip-rule="evenodd"/>
        <path fill="#FFB93E" fill-rule="evenodd" d="M191.031 229.155v2.801c0 .22-.08.427-.218.602-.147.181-.356.322-.603.401-.075.025-.154.046-.236.057l-.073.009-.043.005h-.041l-.068.002h-53.026c-.685 0-1.247-.454-1.284-1.021V229.1c.037-.567.599-1.021 1.284-1.021h53.026c.078 0 .152.004.227.016.08.011.159.029.234.056.247.08.456.22.603.402.136.173.218.381.218.602" clip-rule="evenodd"/>
        <path fill="#FFA412" fill-rule="evenodd" d="M164.993 233.034h-28.408c-.61 0-1.112-.456-1.146-1.023V229.1c.032-.567.536-1.021 1.146-1.021h24.918c.399 1.453 1.324 3.466 3.478 4.946l.012.007v.002zm18.985-.002h.601v-4.953h-.601v4.953zm-2.041 0h.601v-4.953h-.601v4.953zm-2.447 0h.603v-4.953h-.603v4.953zm-3.748 0h.601v-4.953h-.601v4.953zm-3.967 0h.604v-4.953h-.604v4.953zm-6.077 0h.601v-4.953h-.601v4.953z" clip-rule="evenodd"/>
        <path fill="#FFA412" fill-rule="evenodd" d="M160.003 233.032h.603v-4.953h-.603v4.953zm-5.082 0h.603v-4.953h-.603v4.953zm30.998 0h.603v-4.953h-.603v4.953zm1.283 0h.603v-4.953h-.603v4.953zm1.238 0h.601v-4.953h-.601v4.953zm1.533-4.937v4.921c-.072.012-.147.016-.226.016h-.375v-4.953h.377c.077 0 .152.004.227.016h-.003zm.839.458v4.005c-.147.181-.356.322-.603.401v-4.808c.247.08.456.22.603.402" clip-rule="evenodd"/>
        <path fill="#E2810E" fill-rule="evenodd" d="M270.443 255.854c0-14.625 11.842-26.477 26.451-26.477s26.451 11.852 26.451 26.477c0 14.624-11.842 26.479-26.451 26.479s-26.451-11.855-26.451-26.479" clip-rule="evenodd"/>
        <path fill="#F09210" fill-rule="evenodd" d="M318.602 282.171h-14.849c-.404 0-.758-.2-.962-.499 3.576-.815 6.876-2.355 9.735-4.457h9.563v1.001c-1.043 1.437-2.215 2.761-3.487 3.955zm4.104-4.749v-.204h.136l-.136.204zm-.617.794v-.998h.604v.143c-.193.29-.395.574-.604.855z" clip-rule="evenodd"/>
        <path fill="#F09D26" fill-rule="evenodd" d="M324.192 274.89c-.585-.876-.939-1.761-1.157-2.508h2.368c-.365.858-.771 1.698-1.211 2.508" clip-rule="evenodd"/>
        <path fill="#F09210" fill-rule="evenodd" d="M322.79 277.215h-10.264c1.411-1.035 2.717-2.209 3.894-3.501v3.501h.606v-4.182c.181-.213.358-.431.535-.651h3.943v4.835h.601v-4.835h.93c.218.749.572 1.634 1.157 2.508-.436.802-.903 1.576-1.402 2.325" clip-rule="evenodd"/>
        <path fill="#F09210" fill-rule="evenodd" d="M321.504 277.215h.601v-4.833h-.601v4.833zm-4.479 0h-.605v-3.501c.204-.222.408-.451.605-.681v4.182z" clip-rule="evenodd"/>
        <path fill="#F09D26" fill-rule="evenodd" d="M326.514 269.361c-.372-.686-.612-1.353-.771-1.934h1.297c-.154.654-.331 1.298-.526 1.934z" clip-rule="evenodd"/>
        <path fill="#F09210" fill-rule="evenodd" d="M325.402 272.382h-.557v-4.955h-.604v4.955h-4.478v-3.214c.331-.568.639-1.149.929-1.741h5.051c.158.581.399 1.248.771 1.934-.307.992-.66 1.959-1.057 2.899l-.055.122zm-6.243 0h-1.598c.571-.715 1.104-1.457 1.598-2.229v2.229z" clip-rule="evenodd"/>
        <path fill="#F09210" fill-rule="evenodd" d="M324.241 272.382h.603v-4.955h-.603v4.955zm-4.476 0h-.606v-2.229c.209-.324.408-.654.603-.985v3.214" clip-rule="evenodd"/>
        <path fill="#F09D26" fill-rule="evenodd" d="M327.643 264.134c-.29-.59-.49-1.158-.628-1.657h.8c-.045.556-.1 1.108-.172 1.657" clip-rule="evenodd"/>
        <path fill="#F09210" fill-rule="evenodd" d="M327.04 267.426h-.925v-4.949h.9c.136.499.341 1.067.629 1.657-.143 1.117-.345 2.218-.604 3.292zm-1.528 0h-4.479v-.731c.608-1.348 1.102-2.761 1.479-4.218h3v4.949zm0 0h.603v-4.949h-.603v4.949z" clip-rule="evenodd"/>
        <path fill="#F09210" fill-rule="evenodd" d="M321.035 267.426h-.343c.116-.241.232-.486.34-.731v.731" clip-rule="evenodd"/>
        <path fill="#F09D26" fill-rule="evenodd" d="M327.304 262.477h-.703l-.011-.007c-1.927-1.323-2.871-3.071-3.331-4.467l.032-.445h4.013v4.919" clip-rule="evenodd"/>
        <path fill="#F09210" fill-rule="evenodd" d="M326.603 262.477h-4.091c.372-1.446.623-2.942.748-4.474.46 1.396 1.406 3.144 3.334 4.467l.009.007zm1.213 0h-.51v-4.919h.512c.061.806.091 1.621.091 2.442 0 .833-.03 1.658-.093 2.47v.007" clip-rule="evenodd"/>
        <path fill="#F09D26" fill-rule="evenodd" d="M327.815 257.558h-1.325l-.05-.034c-1.8-1.251-2.732-2.872-3.215-4.221l-.064-.578h3.914c.043.174.08.349.118.526v4.307h.603v-.25.007l.019.209v.034z" clip-rule="evenodd"/>
        <path fill="#F09210" fill-rule="evenodd" d="M326.491 257.558h-3.199c.034-.563.054-1.13.054-1.702 0-.861-.043-1.712-.12-2.552.483 1.349 1.415 2.97 3.216 4.22l.049.034zm1.307 0h-.604v-4.304c.286 1.319.488 2.672.604 4.055v.249zm-.721-4.833h-2.232v-4.955h.624c.651 1.543 1.181 3.16 1.578 4.835.011.036.018.079.03.12zm-2.835 0h-1.08c-.201-1.707-.562-3.364-1.072-4.955h2.154v4.955" clip-rule="evenodd"/>
        <path fill="#F09210" fill-rule="evenodd" d="M324.241 252.725h.604v-4.956h-.604v4.956zm1.227-4.956h-3.379c-.555-1.734-1.283-3.389-2.163-4.949h2.889c.231.35.46.709.68 1.074v3.875h.601v-2.831c.504.913.962 1.857 1.372 2.831" clip-rule="evenodd"/>
        <path fill="#F09210" fill-rule="evenodd" d="M324.097 247.769h-.601v-3.875c.206.34.408.688.601 1.044v2.831zm-1.282-4.951h-.596v-.858c.202.281.399.565.589.853l.007.007v-.002zm-1.202.002h-1.687c-.809-1.423-1.744-2.769-2.791-4.013v-.825h1.626c1.025.977 1.979 2.034 2.855 3.167v1.671h-.003zm-5.023-4.645l-.172-.188h.172v.188zm5.629 4.645h-.603v-1.671c.206.268.408.536.603.811v.862" clip-rule="evenodd"/>
        <path fill="#F09210" fill-rule="evenodd" d="M317.134 238.807c-.197-.234-.397-.466-.601-.69v-.137h.601v.827z" clip-rule="evenodd"/>
        <path fill="#F09210" fill-rule="evenodd" d="M318.76 237.983h-2.35c-1.771-1.937-3.825-3.61-6.098-4.949h1.116c2.644 1.18 5.073 2.822 7.209 4.833l.123.114v.002zm-7.332-4.949h-1.116c-.793-.472-1.61-.899-2.456-1.285 1.22.336 2.409.763 3.559 1.276l.013.007" clip-rule="evenodd"/>
        <path fill="#E2810E" fill-rule="evenodd" d="M302.791 281.672c-.062-.091-.109-.193-.141-.299-.011-.039-.023-.078-.03-.119-.006-.034-.011-.072-.013-.106v-2.908c0-.037.007-.073.013-.107.007-.039.019-.079.03-.116.131-.458.574-.801 1.102-.801h-5.669c-.526 0-.971-.341-1.102-.802-.014-.038-.023-.077-.03-.118-.007-.031-.011-.068-.011-.102l-.002-.056V273.284c.002-.036.006-.07.013-.104.007-.039.016-.08.03-.119.131-.46.576-.801 1.104-.801h2.211c-.336-.166-.576-.481-.612-.853l-.005-.046v-2.912c0-.034.005-.069.012-.103.009-.04.018-.079.031-.118.13-.46.574-.801 1.1-.801h1.27c-.526 0-.971-.341-1.1-.801-.013-.039-.022-.078-.032-.116-.006-.034-.009-.068-.011-.105v-2.91c0-.034.005-.068.009-.098.073-.479.488-.858.998-.919h-3.762c-.526 0-.971-.34-1.102-.799-.012-.039-.023-.077-.03-.118-.007-.034-.011-.07-.011-.105v-2.91l.002-.045c.045-.466.413-.849.891-.951-.514-.059-.925-.443-.997-.922l-.007-.091-.002-.057v-2.856l.013-.102c.007-.041.016-.079.03-.118.131-.458.576-.801 1.104-.801h2.211c-.336-.166-.576-.484-.612-.854l-.005-.047v-2.908c0-.037.005-.071.012-.105.009-.041.018-.079.031-.118.13-.461.574-.801 1.1-.801h4.331c-.523 0-.968-.341-1.097-.802-.014-.038-.025-.077-.032-.118-.007-.031-.011-.068-.013-.102V243.838c.004-.05.011-.098.022-.145.093-.457.492-.815.987-.872h-6.826c-.526 0-.971-.341-1.102-.799-.012-.039-.023-.077-.03-.118-.007-.034-.011-.068-.011-.105v-2.908c0-.034.004-.07.011-.104.007-.041.018-.08.03-.118.131-.459.576-.799 1.102-.799h3.388c-.324-.155-.56-.448-.619-.795-.005-.023-.009-.045-.009-.07l-.005-.046V234.049c0-.034.005-.068.009-.098.073-.479.488-.862.998-.919l.136-.007h1.538c-.517-.052-.935-.431-1.01-.912-.006-.034-.011-.069-.013-.105v-1.09c1.803.087 3.56.368 5.25.831.843.386 1.662.813 2.456 1.283 2.272 1.339 4.326 3.015 6.098 4.949l.122.136c.204.227.404.456.601.69 1.048 1.247 1.982 2.588 2.789 4.014.882 1.559 1.61 3.214 2.166 4.949.51 1.591.871 3.246 1.073 4.956l.063.578c.077.84.12 1.692.12 2.55 0 .574-.02 1.142-.054 1.705l-.032.445c-.125 1.532-.376 3.028-.748 4.474-.377 1.457-.871 2.87-1.479 4.218-.109.245-.224.49-.34.731-.29.592-.599 1.174-.93 1.741-.193.332-.394.661-.603.985-.494.772-1.027 1.515-1.599 2.23-.177.218-.356.438-.535.651-.197.23-.399.459-.605.681-1.18 1.292-2.484 2.466-3.894 3.501-2.86 2.102-6.159 3.641-9.735 4.456" clip-rule="evenodd"/>
        <path fill="#FFB93E" fill-rule="evenodd" d="M268.138 255.854c0-14.625 11.842-26.477 26.448-26.477 14.609 0 26.451 11.852 26.451 26.477 0 14.624-11.842 26.479-26.451 26.479-14.606 0-26.448-11.855-26.448-26.479" clip-rule="evenodd"/>
        <path fill="#FFA412" fill-rule="evenodd" d="M294.587 233.481c-12.496 0-22.662 10.177-22.662 22.685 0 12.509 10.166 22.686 22.662 22.686 12.495 0 22.663-10.177 22.663-22.686 0-12.508-10.168-22.685-22.663-22.685zm0 46.81c-6.436 0-12.489-2.508-17.04-7.067-4.552-4.556-7.06-10.613-7.06-17.058 0-6.442 2.508-12.501 7.06-17.058 4.551-4.556 10.604-7.066 17.04-7.066 6.438 0 12.488 2.51 17.042 7.066 4.551 4.557 7.059 10.616 7.059 17.058 0 6.445-2.508 12.502-7.059 17.058-4.554 4.559-10.604 7.067-17.042 7.067z" clip-rule="evenodd"/>
        <path fill="#FFA412" fill-rule="evenodd" d="M297.904 263.168c.064-.52.046-.985-.056-1.401-.098-.413-.295-.801-.59-1.162-.295-.363-.689-.711-1.184-1.044-.494-.336-1.106-.679-1.837-1.029-1.247-.613-2.378-1.235-3.383-1.861-1.007-.631-1.85-1.317-2.531-2.064-.682-.749-1.179-1.584-1.496-2.513-.313-.931-.402-2.002-.257-3.217.125-1.053.427-1.991.901-2.815.476-.822 1.099-1.514 1.868-2.077.769-.561 1.66-.985 2.672-1.273 1.015-.287 2.127-.416 3.34-.386l.472-3.975 3.197.379-.478 4.031c1.127.287 2.131.713 3.007 1.281.879.57 1.603 1.26 2.168 2.066.566.81.966 1.734 1.201 2.774.234 1.037.279 2.179.132 3.414l-5.776-.685c.177-1.485-.02-2.636-.592-3.451-.574-.817-1.41-1.29-2.517-1.421-.599-.073-1.125-.05-1.578.068-.454.113-.837.302-1.15.558-.318.259-.562.577-.742.958-.181.382-.297.799-.353 1.26-.055.459-.037.879.052 1.267.091.386.279.761.567 1.112.29.357.687.704 1.195 1.049.506.341 1.141.711 1.905 1.101 1.233.636 2.351 1.271 3.351 1.907.998.634 1.837 1.326 2.518 2.08.68.751 1.179 1.593 1.496 2.522.316.93.399 1.995.259 3.196-.129 1.09-.436 2.048-.919 2.87-.48.821-1.106 1.507-1.875 2.056-.767.55-1.662.958-2.687 1.226s-2.143.386-3.357.354l-.437 3.698-3.177-.376.435-3.68c-1.091-.243-2.132-.611-3.12-1.106-.989-.493-1.839-1.137-2.558-1.932-.715-.794-1.25-1.755-1.604-2.876-.351-1.124-.442-2.427-.265-3.914l5.776.686c-.107.881-.07 1.63.107 2.247.177.618.453 1.126.821 1.528.371.402.811.706 1.322.913.51.204 1.036.34 1.583.404.625.072 1.186.059 1.678-.046.492-.106.914-.281 1.267-.529.354-.247.635-.556.839-.928.204-.37.336-.783.393-1.244" clip-rule="evenodd"/>
        <path fill="#E2810E" fill-rule="evenodd" d="M134.817 198.151c0-16.527 13.385-29.925 29.894-29.925s29.895 13.398 29.895 29.925-13.384 29.928-29.895 29.928c-16.509 0-29.894-13.399-29.894-29.928" clip-rule="evenodd"/>
        <path fill="#FFB93E" fill-rule="evenodd" d="M132.211 198.151c0-16.527 13.384-29.925 29.893-29.925S192 181.624 192 198.151s-13.384 29.928-29.896 29.928c-16.509 0-29.893-13.399-29.893-29.928z" clip-rule="evenodd"/>
        <path fill="#FFA412" fill-rule="evenodd" d="M162.104 172.866c-14.122 0-25.612 11.501-25.612 25.639 0 14.139 11.49 25.64 25.612 25.64 14.121 0 25.611-11.501 25.611-25.64 0-14.138-11.49-25.639-25.611-25.639zm0 52.906c-7.275 0-14.115-2.837-19.26-7.986-5.143-5.151-7.976-11.998-7.976-19.281 0-7.282 2.833-14.129 7.976-19.28 5.145-5.149 11.985-7.986 19.26-7.986 7.275 0 14.114 2.837 19.259 7.986 5.144 5.151 7.976 11.998 7.976 19.28 0 7.283-2.832 14.13-7.976 19.281-5.147 5.149-11.984 7.986-19.259 7.986z" clip-rule="evenodd"/>
        <path fill="#FFA412" fill-rule="evenodd" d="M165.855 206.42c.068-.588.045-1.117-.066-1.585-.113-.468-.335-.906-.669-1.312-.333-.409-.778-.804-1.338-1.183-.558-.379-1.247-.765-2.07-1.162-1.415-.693-2.69-1.394-3.828-2.105-1.136-.71-2.091-1.489-2.862-2.331-.769-.845-1.331-1.791-1.69-2.842-.356-1.049-.453-2.261-.29-3.633.143-1.189.481-2.249 1.018-3.178.538-.931 1.243-1.714 2.112-2.349.868-.636 1.875-1.115 3.023-1.442 1.145-.325 2.403-.47 3.771-.433l.533-4.495 3.614.429-.542 4.556c1.275.322 2.409.806 3.402 1.448.991.645 1.807 1.421 2.449 2.336.64.913 1.091 1.957 1.359 3.133.265 1.174.315 2.461.147 3.859l-6.527-.774c.2-1.68-.022-2.981-.669-3.905-.648-.919-1.596-1.452-2.846-1.602-.678-.08-1.272-.057-1.784.075-.51.131-.944.342-1.3.635-.356.291-.635.652-.839 1.081-.204.431-.335.906-.397 1.423-.061.518-.04.995.059 1.43.102.441.316.859.642 1.26.327.402.776.795 1.349 1.183.572.388 1.289.802 2.155 1.249 1.392.717 2.658 1.434 3.785 2.152 1.129.715 2.077 1.498 2.846 2.349.771.852 1.333 1.803 1.689 2.852.358 1.053.454 2.256.295 3.614-.147 1.23-.492 2.311-1.039 3.239-.544.931-1.251 1.705-2.118 2.327-.866.622-1.882 1.083-3.038 1.385-1.157.302-2.422.436-3.792.402l-.497 4.177-3.59-.425.495-4.156c-1.236-.277-2.413-.693-3.529-1.251-1.116-.559-2.079-1.287-2.891-2.186-.81-.897-1.413-1.982-1.812-3.249-.399-1.269-.499-2.742-.299-4.422l6.526.772c-.118.996-.077 1.843.123 2.54.199.699.51 1.274.929 1.73.418.454.916.794 1.492 1.028.574.232 1.171.386 1.787.457.708.084 1.341.068 1.896-.05.556-.118 1.034-.318 1.433-.597.402-.28.717-.629.948-1.047.236-.422.384-.89.445-1.407" clip-rule="evenodd"/>
        <path fill="#FFEDDC" fill-rule="evenodd" d="M344.519 199.52s-2.809 3.961-5.386 4.016c-2.576.054-6.494-1.837-6.494-1.837s-2.366-5.276-.76-7.339c0 0 1.608-.709 3.288.54.291.216.585.486.873.835.408.491.867.772 1.352.918 1.839.56 4.021-.756 4.837.515.476.738.993 1.294 1.42 1.682.503.45.87.67.87.67zm-36.63 28.565s9.932-24.091 27.809-24.549c0 0 16.498 1.836 17.416 24.547h-45.225" clip-rule="evenodd"/>
        <path fill="#DB6A1D" fill-rule="evenodd" d="M330.8 204.271s7.166 1.596 9.375.658c0 0 .335-3.001-2.683-2.579-2.066.287-3.411-.706-4.202-1.107-1.12-.572-2.789 1.773-2.49 3.028" clip-rule="evenodd"/>
        <path fill="#E5C1A1" fill-rule="evenodd" d="M337.035 199.752c-.46.343-1.866-4.852-1.866-4.852.288.216.583.486.871.836.408.49.866.772 1.351.917.005.152.089 2.763-.356 3.099zm6.613-.902c-.1.062-3.415 2.048-3.864 2.048-.458 0 2.444-3.73 2.444-3.73.477.738.994 1.294 1.42 1.682z" clip-rule="evenodd"/>
        <path fill="#F9DDBF" fill-rule="evenodd" d="M317.592 221.354c-.186-.156 7.026-10.631 9.015-10.706 1.986-.077 6.449 2.293 9.678 2.6 3.23.306 6.364-.613 6.974 1.3.612 1.912 2.29 8.691 1.26 9.776-1.029 1.083-22.963.422-26.927-2.97" clip-rule="evenodd"/>
        <path fill="#FFEDDC" fill-rule="evenodd" d="M247.189 166.113s-2.222 3.132-4.259 3.175c-2.036.046-5.136-1.452-5.136-1.452s-1.869-4.173-.601-5.803c0 0 1.272-.561 2.603.427.227.17.461.386.687.66.325.389.685.609 1.071.727 1.451.443 3.177-.599 3.823.404.377.586.787 1.024 1.125 1.333.397.354.687.529.687.529zm-28.963 22.585s7.85-19.046 21.985-19.41c0 0 13.049 1.453 13.772 19.41h-35.757z" clip-rule="evenodd"/>
        <path fill="#DB6A1D" fill-rule="evenodd" d="M236.339 169.87s5.665 1.262 7.416.522c0 0 .261-2.373-2.123-2.043-1.633.229-2.698-.557-3.324-.874-.885-.454-2.205 1.403-1.969 2.395z" clip-rule="evenodd"/>
        <path fill="#E5C1A1" fill-rule="evenodd" d="M241.27 166.295c-.363.272-1.474-3.837-1.474-3.837.227.173.46.386.687.663.324.388.685.608 1.07.726.003.118.068 2.182-.283 2.448zm5.232-.711c-.082.045-2.701 1.619-3.057 1.619-.363 0 1.932-2.952 1.932-2.952.376.586.787 1.024 1.125 1.333z" clip-rule="evenodd"/>
        <path fill="#F9DDBF" fill-rule="evenodd" d="M225.895 183.377c-.145-.125 5.556-8.404 7.128-8.468 1.571-.059 5.102 1.816 7.656 2.057 2.553.243 5.03-.484 5.515 1.03.483 1.51 1.809 6.87.998 7.728-.817.858-18.16.336-21.294-2.347" clip-rule="evenodd"/>
        <path fill="#FFEDDC" fill-rule="evenodd" d="M198.152 226.651s5.466 7.702 10.477 7.809c5.01.107 12.631-3.571 12.631-3.571s4.599-10.263 1.479-14.279c0 0-3.129-1.374-6.4 1.053-.562.42-1.133.945-1.694 1.626-.793.953-1.687 1.498-2.63 1.784-3.576 1.09-7.819-1.473-9.404.999-.93 1.437-1.937 2.517-2.767 3.276-.98.874-1.692 1.303-1.692 1.303zm71.248 55.557s-19.317-46.856-54.086-47.748c0 0-32.097 3.569-33.879 47.748H269.4z" clip-rule="evenodd"/>
        <path fill="#DB6A1D" fill-rule="evenodd" d="M224.84 235.89s-13.937 3.103-18.237 1.28c0 0-.648-5.834 5.221-5.017 4.016.561 6.633-1.373 8.173-2.156 2.177-1.108 5.422 3.453 4.843 5.893z" clip-rule="evenodd"/>
        <path fill="#E5C1A1" fill-rule="evenodd" d="M212.712 227.097c.891.668 3.628-9.434 3.628-9.434-.562.42-1.134.944-1.694 1.625-.793.953-1.687 1.498-2.63 1.784-.009.295-.17 5.374.696 6.025zm-12.865-1.75c.195.116 6.642 3.98 7.513 3.98.893 0-4.749-7.256-4.749-7.256-.929 1.437-1.936 2.518-2.766 3.276" clip-rule="evenodd"/>
        <path fill="#F9DDBF" fill-rule="evenodd" d="M250.532 269.118c.356-.305-13.67-20.675-17.534-20.824-3.865-.15-12.545 4.46-18.829 5.055-6.282.597-12.375-1.189-13.564 2.529-1.19 3.719-4.458 16.904-2.451 19.013 2.005 2.111 44.665.824 52.378-5.773" clip-rule="evenodd"/>
        <path fill="#233862" fill-rule="evenodd" d="M195.906 167.384s-.442-2.177 4.563-8.877c1.08-1.443 4.372-6.885 4.372-6.885 1.302-.318 5.357 1.839 6.425 2.497l.34.214s1.733 7.527-1.95 6.674c-.116-.03-.232-.05-.347-.068-3.565-.556-7.005 2.983-8.568 5.232-1.016 1.46-4.159 1.272-4.835 1.213zm26.415-14.629s-.44-2.177 4.565-8.876c1.079-1.444 4.374-6.886 4.374-6.886 1.3-.318 5.352 1.839 6.423 2.497l.34.214s1.732 7.528-1.95 6.674c-.118-.03-.232-.05-.347-.068-3.563-.556-7.003 2.985-8.568 5.233-1.018 1.459-4.159 1.271-4.837 1.212" clip-rule="evenodd"/>
        <path fill="#ED7D2B" fill-rule="evenodd" d="M278.706 115.493c-1.025-4.404-12.409-18.132-18.239-14.951-5.831 3.178-2.806 20.449 3.272 40.817.091.309.186.62.283.926-12.25-2.013-26.831-2.626-26.831-2.626l-1.536 7.094c11.04 3.053 32.486 13.666 41.479 18.236 3.441 1.559 7.479 1.56 8.3-1.467 2.756-10.14-6.728-48.029-6.728-48.029" clip-rule="evenodd"/>
        <path fill="#AC6B58" fill-rule="evenodd" d="M256.967 178.939s-26.059-11.771-41.949-16.527c-1.968-.588-3.776-1.067-5.363-1.407l1.671-6.82s1.558-.027 4.082-.025c9.894.027 34.667.583 39.096 5.444 5.551 6.104 2.463 19.335 2.463 19.335zm19.69-161.353c.858 1.973 1.543 4.558.96 5.925-.656 1.544-.477 2.663-.477 2.663l-1.399.343-1.673.408s-.091-.143-.223-.388c-.136-.243-.312-.59-.489-.994 0 0-.08-.74-.794-1.079-.712-.338-1.46-1.198-1.597-2.031-.136-.834-.991-2.386-.748-2.55.587-.397 1.465 2.02 1.982 2.127.47.098.617-.234.642-.297l.004-.014c.815-1.975-.687-6.962.502-7.24.444-.101 2.948 2.287 3.31 3.127zM186.483 57.4c1.456 1.58 3.545 3.25 5.023 3.27 1.678.023 2.631.643 2.631.643l.878-1.144 1.049-1.366s-.095-.141-.265-.364c-.168-.22-1.356-1.221-1.376-2.011-.021-.788-.506-1.82-1.209-2.284-.708-.46-1.78-1.87-2.03-1.714-.598.375 1.254 2.157 1.146 2.674-.1.468-.465.47-.533.468l-.014-.002c-2.134-.055-6.084-3.444-6.817-2.468-.272.368.896 3.623 1.517 4.298" clip-rule="evenodd"/>
        <path fill="#F99746" fill-rule="evenodd" d="M249.528 118.782c-6.427 1.669-4.814 9.405-3.855 30.64.111 2.402.333 4.722.651 6.936-9.423-1.894-23.904-2.18-30.916-2.198 0 0-1.164 2.593-1.111 4.665.104 4.411 2.356 7.328 2.356 7.328 15.888 4.756 40.313 12.786 40.313 12.786l.003-.018c1.63.424 3.163-.393 4.381-2.727 4.86-9.317 13.173-71.305 13.173-71.305.075-4.522-18.568 12.225-24.995 13.893" clip-rule="evenodd"/>
        <path fill="#AC6B58" fill-rule="evenodd" d="M239.036 71.193s2.261-5.734-2.132-13.916l6.246 1.39 4.245.944s.703 1.448 1.619 4.14c.243.709 1.138 3.55 1.401 4.427 1.493.064-.657 2.327-3.721 2.772-3.408.497-7.658.243-7.658.243z" clip-rule="evenodd"/>
        <path fill="#854E42" fill-rule="evenodd" d="M247.395 59.61s.703 1.45 1.62 4.142c-3.647 1.09-10.151-2.461-10.151-2.461 1.467-1.342 2.923-2.173 4.286-2.624l4.245.944" clip-rule="evenodd"/>
        <path fill="#AC6B58" fill-rule="evenodd" d="M250.2 57.47s-7.239 8.013-12.155 3.425c-4.914-4.59-9.157-6.644-4.747-11.956 4.413-5.31 7.203-4.54 9.216-3.406 2.012 1.13 9.441 9.735 7.686 11.937z" clip-rule="evenodd"/>
        <path fill="#2B478B" fill-rule="evenodd" d="M237.641 60.398s.742-.821-.331-1.893c-1.073-1.07-2.295-2.61-1.109-3.087 1.186-.475 1.842.256 1.882-.504.037-.763-1.456-2.656 1.293-5.056 2.744-2.397 4.694-2.325 5.556-3.961.862-1.637-.66-3.7-.66-3.7s.19 1.014-.197 1.695c0 0-.191-4.785-4.4-4.826-4.206-.043-5.737 3.391-7.15 4.66-3.107 2.793-5.061 4.666-4.424 7.662.635 2.997 5.805 8.609 9.54 9.013" clip-rule="evenodd"/>
        <path fill="#fff" fill-rule="evenodd" d="M245.678 55.801l2.685-2.529s1.09 1.676.324 2.407c-.766.726-3.009.122-3.009.122" clip-rule="evenodd"/>
        <path fill="#2B478B" fill-rule="evenodd" d="M281.724 40.646c-1.147-7.113-4.603-14.931-4.603-14.931l-3.765-.172s.417 9.634.324 16.372c-.045 3.237-1.458 6.163-1.841 6.683-1.17 1.566-18.384 18.15-18.958 18.679l-.016.013.002.003c-1.832.31-1.628 3.325-3.51 3.83-3.139.842-8.35-.693-11.139.34 0 0-22.351.027-25.753-1.603-3.401-1.632-16.668-11.419-16.668-11.419l-2.453 2.863s9.102 17.546 16.321 20.702c3.927 1.718 12.556 3.786 19.604 5.312 2.789.606 5.021 2.674 5.867 5.403 6.631 21.403 3.293 39.455 3.293 39.455s6.356.713 14.266-1.487c10.286-2.86 17.802-7.494 17.802-7.494 2.898-3.519 1.183-16.42 1.183-16.42s2.003 2.164 2.672 5.778c.483 2.604.744 4.045.905 4.96.151.86 1.152 1.262 1.855.742 1.485-1.103 3.605-2.817 4.27-4.077 2.313-4.399-2.835-22.315-9.949-34.82-1.27-2.236-1.224-4.982.136-7.164 4.377-7.028 11.101-18.172 11.185-20.409.045-1.212-.368-7.05-1.03-11.14" clip-rule="evenodd"/>
        <path fill="#F99746" fill-rule="evenodd" d="M239.597 68.048l6.957 2.302.345 1.322-8.681-.207s.462-1.998 1.379-3.417zm10.179-1.916l.234 3.603s.912.747.9.647c-.013-.1 1.957-3.09 1.957-3.09s-1.635-.785-3.091-1.157" clip-rule="evenodd"/>
        <path fill="#233862" fill-rule="evenodd" d="M273.182 25.041l-.316 2.99s3.774.059 3.774 0c0-.057.113-1.483.113-1.483l.628 1.655 1.4-.458-1.601-2.704s-1.601.756-3.998 0zM195.8 58.439l-2.456 2.865.721 2.797 1-.688-.494-2.1 1.721 1.415 2.229-2.947-2.721-1.342z" clip-rule="evenodd"/>
        <path fill="#EBF3FA" fill-rule="evenodd" d="M195.264 61.069c0-.127.102-.227.226-.227.127 0 .232.1.232.227s-.105.227-.232.227c-.124 0-.226-.1-.226-.227zm80.677-34.143c0-.1.079-.182.179-.182.1 0 .181.082.181.182 0 .1-.081.181-.181.181-.1 0-.182-.081-.182-.181h.003zm-5.931 69.639c0-.268.216-.486.483-.486.27 0 .488.218.488.486 0 .27-.218.486-.488.486-.267 0-.483-.216-.483-.486zm-3.859-8.043c0-.27.217-.488.487-.488.268 0 .486.217.486.488 0 .267-.218.485-.486.485-.27 0-.487-.218-.487-.485zm-5.314-6.089c0-.268.218-.486.486-.486.267 0 .487.218.487.486s-.22.486-.487.486c-.268 0-.486-.218-.486-.486z" clip-rule="evenodd"/>
    </g>
    <defs>
        <clipPath id="clip0">
            <path fill="#fff" d="M0 0H494V339H0z"/>
        </clipPath>
    </defs>
</svg>
