<svg xmlns="http://www.w3.org/2000/svg" width="100" height="18" fill="none" viewBox="0 0 100 18">
    <path fill="#4D4A4A" d="M5.993 14.4c.107-.332.465-.517.787-.406l6.35 2.123c.34.11.698-.148.698-.517L13.9 3.138c0-.295-.322-.461-.555-.277L8.336 7.015c-.268.222-.662.185-.876-.092-.215-.277-.18-.683.09-.905L14.614.185c.215-.185.555-.019.555.276l-.107 16.911c0 .37-.358.646-.698.517l-7.96-2.677c-.34-.11-.52-.461-.412-.812z"/>
    <path fill="#fff" d="M.43 9.582L11.752.185c.268-.222.662-.185.877.092.214.277.179.683-.09.905L2.952 9.138c-.501.407-.358 1.219.232 1.44l9.16 3.324c.322.11.5.48.375.812-.107.332-.465.517-.787.387L.68 11.003c-.608-.222-.734-1.015-.25-1.421z"/>
    <path fill="#4D4A4A" d="M25.26 2.603c.769 0 1.448.11 2.003.35.554.24 1.02.536 1.377.924.358.388.627.85.805 1.366.18.517.25 1.07.25 1.625 0 .443-.053.904-.16 1.347-.107.444-.286.868-.519 1.237-.232.388-.537.72-.894 1.016-.376.295-.823.517-1.36.683l3.22 5.704H27.3l-3.149-5.52h-3.595c-.233 0-.34.111-.34.351v5.151H17.8v-5.612c0-.794.178-1.385.518-1.736.34-.35.895-.535 1.664-.535h5.385c.34 0 .626-.056.876-.166.25-.111.448-.259.59-.443.144-.185.269-.388.34-.628.072-.24.108-.48.108-.738 0-.499-.161-.942-.465-1.33-.304-.369-.787-.554-1.467-.554h-7.567V2.603h7.477zM38.605 5.705c1.288 0 2.218.295 2.79.904.573.591.859 1.44.859 2.53 0 1.033-.286 1.827-.84 2.381-.555.554-1.504.83-2.827.83h-5.134v.795c0 .443.125.812.375 1.107.25.296.68.425 1.27.425h6.62v2.178h-6.62c-.68 0-1.252-.092-1.735-.277-.465-.184-.858-.443-1.163-.775-.304-.332-.536-.72-.662-1.163-.143-.443-.196-.942-.196-1.477V9.378c0-.516.071-1.015.197-1.458.143-.443.357-.85.661-1.163.304-.332.698-.59 1.163-.775.465-.185 1.056-.277 1.735-.277h3.507zm-5.152 4.892h5.08c.59 0 1.002-.11 1.234-.35.233-.24.358-.555.358-.98 0-.424-.125-.756-.376-1.015-.25-.258-.626-.387-1.162-.387h-3.47c-.609 0-1.02.147-1.27.443-.251.295-.377.664-.377 1.089v1.2h-.017zM57.531 5.705c1.843 0 3.22.424 4.115 1.273.894.85 1.36 2.05 1.36 3.6v6.277h-2.183v-6.277c0-.886-.25-1.569-.77-2.03-.518-.462-1.341-.702-2.486-.702h-2.54v8.99h-2.183V7.866h-5.492c-.178 0-.268.11-.268.313v8.677H44.92V7.44c0-.665.108-1.108.34-1.366.233-.24.627-.37 1.163-.37h11.11zM68.229 1.514v2.603h-2.183V1.514h2.183zm-.036 4.19v11.152H66.03V5.704h2.164zM71.7 5.705v-2.64h2.182v2.64h2.987v2.16h-2.987v5.28c0 .627.107 1.07.34 1.31.232.24.59.351 1.109.351h1.485v2.05h-1.95c-.555 0-1.038-.056-1.45-.185-.41-.13-.733-.333-.983-.628s-.447-.683-.573-1.181c-.125-.499-.178-1.108-.178-1.847v-5.15h-1.467v-2.16h1.484z"/>
    <path fill="#fff" d="M79.732 5.705v-2.64h2.182v2.64h2.988v2.16h-2.988v5.28c0 .627.108 1.07.34 1.31.233.24.59.351 1.11.351h1.484v2.05h-1.95c-.554 0-1.037-.056-1.449-.185-.411-.13-.733-.333-.984-.628-.25-.295-.447-.683-.572-1.181-.126-.499-.18-1.108-.18-1.847v-5.15h-1.466v-2.16h1.485zM88.551 5.705l3.596 8.953c.09.222.25.333.536.333.287 0 .483-.111.573-.333l3.739-8.953h2.325l-4.168 9.95c-.233.536-.555.905-.948 1.127-.411.221-.912.332-1.52.332-.627 0-1.145-.11-1.54-.332-.393-.222-.697-.591-.911-1.127l-3.972-9.95h2.29z"/>
</svg>
