<svg xmlns="http://www.w3.org/2000/svg" width="192" height="138" fill="none" viewBox="0 0 192 138">
    <path fill="#FFC200" fill-rule="evenodd" d="M190.652 59.078c-4.015-10.969-27.301-1.353-31.084-13.043-3.077-9.508 8.484-17.866 4.542-28.137-4.514-11.759-20.498-11.306-30.901-6.32-5.849 2.803-11.662 3.997-18.34 2.415-9.348-2.212-14.901-9.126-23.694-11.825C75.49-2.647 57.238 5.45 54.068 18.872c-1.414 5.985.058 14.178-3.412 19.295-5.559 8.195-16.564 8.696-26.392 8.696-8.023 0-18.176-1.72-22.48 5.69-3.141 5.407-.903 12.891 4.053 16.659 3.605 2.74 10.056 3.757 12.573 7.415 3.707 5.39-2.486 13.121-6.744 17.06-4.454 4.122-9.048 6.651-7.67 13.063 1.057 4.922 7.518 8.754 11.165 12.707 6.24 6.762 10.565 8.511 21.49 8.482.739-.001 1.466.007 2.185.015 3.389.038 6.578.076 9.764-.934 4.15-1.317 8.22-3.547 12.52-4.87 5.232-1.61 11.658-2.013 17.074-.435 5.313 1.549 10.31 5.037 15.93 5.809 6.2.853 10.991-1.67 15.483-4.193 5.634-3.167-6.4-4.581.486-1.084 38.627 19.615 68.648-7.556 64.053-15.817-2.924-5.257-10.074-8.926-10.341-15.031-.246-5.649 3.638-6.614 8.873-10.099 7.894-5.254 21.684-12.085 17.974-22.22v-.002z" clip-rule="evenodd" opacity=".273"/>
    <path fill="#2B3964" fill-rule="evenodd" d="M39.845 137.195c-1.727 0-3.66-.258-5.123-1.252-1.425-.966 1.28-2.463 2.233-3.16-.275-.318-1.81-.361-3.221-.361-.265 0-.528.002-.777.003l-.696.003c-.203 0-.386-.001-.537-.005-2.01-.058-4.148-.248-6.085-.756-2.425-.637-7.425-1.83-8.427-4.519-.431-2.587 11.743-3.563 20.494-3.563 1.483 0 2.87.028 4.078.081 1.04.046 2.112.067 3.211.067 2.125 0 4.35-.079 6.64-.208 1.828.449 3.958.621 6.624.621h.356c.491 0 .976.006 1.456.013.48.006.953.012 1.423.012 1.992 0 3.907-.114 5.82-.824 1.098-.408 2.187-.918 3.279-1.456 5.264-.481 10.357-.867 14.879-.867 10.374 0 13.239 3.473 23.54 4.382 6.625.584 13.574.989 20.24.989 5.949 0 20.931.754 26.88.754 3.885 0-.106.934 3.756 1.306 2.822.271 5.626.95 8.37 1.26 3.193.361 6.439.184 9.629.508.247.025.509.035.78.035.616 0 1.286-.053 1.972-.105.686-.052 1.387-.103 2.06-.103 1.048 0 2.032.125 2.797.573 2.125 1.246-.093 2.729-1.857 3.059-.599.112-1.239.15-1.894.15-1.31 0-2.68-.15-3.904-.15H163.8c-9.833-.001-19.757-.715-29.66-.715-2.792 0-5.584.057-8.369.202.53 2.402-10.485 2.707-17.265 2.707-2.313 0-4.132-.035-4.834-.035-8.448 0-16.31-.899-24.851-.899l-13.754.269c-4.791 0-10.869.679-21.575 1.709-.745.073-2.115.275-3.647.275" clip-rule="evenodd"/>
    <path fill="#A8A2C4" fill-rule="evenodd" d="M61.494 124.171c-.47 0-.944-.006-1.423-.012-.48-.007-.964-.013-1.455-.013h-.357c-2.665 0-4.795-.172-6.624-.621 6.097-.346 12.65-1.058 18.958-1.635-1.092.539-2.181 1.049-3.278 1.457-1.913.711-3.828.824-5.82.824" clip-rule="evenodd"/>
    <path fill="#42A1D2" fill-rule="evenodd" d="M78.068 72.637s-.112-.266-.293-.717c-.034-.15-.092-.29-.17-.424-.995-2.478 2.609-7.185 2.322-9.573-.37-3.07-.253-8.374.016-10.808.269-2.435-1.826-4.398-2.292-6.682-.466-2.286-3.873-7.886-4.827-9.646-.952-1.761-3-2.343-4.135-4.319-.588-1.024-1.126-2.486-1.629-4.027.105-2.556-.624-4.813-1.245-6.245l4.475-2.457c.534-.293.73-.962.436-1.496-.293-.535-.962-.73-1.495-.438l-4.392 2.41c-1.124-2.59-3.3-5.449-5.05-4.84-2.068.72-10.967 1.89-11.326 5.128-.239 2.155.634 5.223 1.247 7.037.04.142.087.283.141.422l.017.036.13.362-3.77 2.07c-.533.292-.73.963-.436 1.497.292.534.963.73 1.496.436l4.013-2.202c.537.548.983.804 1.092.896.205.17-.063 3.03.348 3.583.41.554 1.517-.266 1.794-.365.278-.099.483.497.672.797.189.302.734-.148.734-.148s.051.669.37.775c.319.104.816.044.996.305.18.262.526 1.126 1.245.894.717-.231 1.416-1.181 2.599-1.422 1.181-.241 1.168.95 1.168.95s-1.708 1.2-1.959 1.846c-.251.646-2.924 6.078-2.69 7.646.235 1.567-.398 2.632-.95 3.678-.55 1.048.046 2.482.046 2.482s-4.524-5.714-5.44-6.462c-.917-.749-2.98-2.396-3.743-2.807-.764-.411-2.156-.297-2.4-.247-.244.05-.796.955-.796.955s-4.158-1.787-5.308-2.289c-1.15-.502-1.568 1.198-.805 1.75.764.553 4.561 1.96 4.561 1.96s-.782.33-.49.923c.29.592 1.693.533 1.693.533s.13 1.19.794 1.254c.656 1.14 1.597 1.034 1.597 1.034s2.683-.026 2.907.098c.222.124.737.83.737.83l-1.277 3.548s7.323 8.004 7.959 9.178c.395.731-2.6 12.147-2.18 16.375 0 .002 5.991 21.52 4.947 43.099.16 13.133 9.367 4.633 9.367 4.633s-.499-26.698 3.495-35.46c3.737-8.196 5.98-12.49 5.524-16.282l.159-.064" clip-rule="evenodd"/>
    <path fill="#327BAC" fill-rule="evenodd" d="M75.557 62.804l.172.069c-.492 4.097.015 8.853 4.053 17.704 4.314 9.464 5.689 38.184 5.689 38.184s9.945 9.182 10.117-5.005c-1.127-23.307.135-54.106.136-54.11.453-4.565.408-4.755.836-5.546.687-1.266 8.776-6.327 8.776-6.327l-1.608-5.74s.436-.34.676-.474c.242-.134 3.474.066 3.474.066s1.017.116 1.725-1.117c.717-.068.858-1.355.858-1.355s1.515.063 1.829-.576c.314-.64-.53-.995-.53-.995s4.101-1.52 4.926-2.118c.825-.597.373-2.433-.869-1.89-1.241.542-5.732 2.473-5.732 2.473s-.596-.98-.86-1.033c-.266-.053-1.769-.178-2.594.267-.824.444-3.052 2.223-4.042 3.032-.99.807-3.851 2.243-3.851 2.243s-.257-3.528-.124-4.798c.165-1.573-.252-3.27-.66-4.931-.666-2.712-2.32-5.885-2.592-6.583-.27-.697-1.752-2.384-1.752-2.384s0-1.305.74-1.2c1.29.186 1.512 1.131 2.286 1.38.775.251 1.15-.682 1.344-.964.194-.282.732-.218 1.077-.332.344-.113.4-.836.4-.836s.589.488.792.161c.204-.325.427-.968.726-.86.299.105 1.114.732 1.557.132.442-.598.536-3.425.756-3.61.221-.184.887-1.18 1.918-3.541 1.708-4.335-2.221-10.062-6.218-11.153-.653-.177-1.276-.219-1.864-.166-1.326-1.655-2.853.133-7.064 6.775.66 3.705-1.17-.9-1.17-.899-1.285 1.767-.072 1.44-1.528 4.807-1.849 4.274-.629 2.84-5.933 9.586-1.337 1.701-4.227 3.255-4.585 10.435-.126 2.516 1.107 4.283 1.398 6.913.29 2.63-.14 8.694-.541 12.01-.31 2.58-.57 8.397-1.644 11.074-.085.145-.148.296-.184.457-.197.487-.316.775-.316.775" clip-rule="evenodd"/>
    <path fill="#2E70AD" fill-rule="evenodd" d="M67.177 107.4c-3.46 3.484-5.393 6.426-11.71 3.521-3.516-1.616-8.55-4.207-13.081-6.075-2.826-.622-5.922 1.642-5.366 4.315.501 2.229 1.072 4.568 1.862 6.826 7.157 3.71 18.709 15.688 32.451 14.536 16.285-1.367 11.942-17.46 11.942-17.46s-12.638-9.147-16.098-5.663z" clip-rule="evenodd"/>
    <path fill="#2E70AD" fill-rule="evenodd" d="M63.445 110.36c-3.841 3.643-5.927 5.067-12.629 1.757-4.366-2.157-10.604-5.566-15.407-7.01-1.915.032-3.756.836-5.142 2.017-2.623 2.502-3.808 6.444.338 9.881 3.611 3.794 24.192 16.22 39.453 14.851 17.9-1.606 13.321-18.195 13.321-18.195s-16.092-6.946-19.934-3.301zm4.03-38.547s2.75.313 1.939 4.722c2.274.098 6.764-3.647 6.764-3.647s-.403-5.868.157-9.672c-.405-2.697-1.62-4.349-2.43-4.463-.811-.116-7.208 10.835-6.43 13.061" clip-rule="evenodd"/>
    <path fill="#2E70AD" fill-rule="evenodd" d="M63.074 57.135s-1.639 4.204-1.532 5.04c.106.822-.287 1.341-.807 1.988-.52.646-1.096 1.327-.916 1.8.179.474 1.44.814 1.44.814s-.006.756-.159.922c-.084.31.56.554.56.554s.564.251.982.259c-.19.331-.923.36-1.071.421-.326.134-.022.579.344.699s.528.773.042 1.547c-.486.775.712 1.977 2.578 1.392 1.867-.585 4.631-.92 5.468-1.922.836-1.004.854-4.286.854-4.286s.286-2.255.844-5.175c.557-2.919 4.467-5.018 1.104-6.729-3.363-1.71-8.221-.37-9.73 2.676" clip-rule="evenodd"/>
    <path fill="#2E70AD" fill-rule="evenodd" d="M77.154 54.303c-1.22-3.017-5.936-3.078-8.593-2.656-2.657.42-5.214-2.123-6.03 3.68-.666 2.563 0 3.003 0 3.003s2.254.187 3.905-.814c1.648-1.002.3 1.578-.213 2.314-.513.737.546 1.718 1.16 2.315.616.596.145 3.022-.537 3.645-.145.134-.306.25-.467.365h2.255c.319-1.928 1.103-4.472 2.395-4.459 1.714.022 1.602.828 2.017 1.597.417.77.029 2.885.745 4.078.716 1.192 2.25 1.71 2.25 1.71s2.704-5.55 3.245-7.304c.54-1.751.987-5.658-2.132-7.474" clip-rule="evenodd"/>
    <path fill="#2E70AD" fill-rule="evenodd" d="M61.864 62.049s.053.015.135.032c.082.016.196.032.326.044.127.01.271.014.416.008.072 0 .145-.002.217-.01.069.001.138-.006.206-.011l.088-.003.044-.003.022-.003h.011l-.032-.006.016.002c.04.005.08.008.121.01.043 0 .084.005.099.007.044.005.093-.004.155.01.06.006.12.014.177.026.117.017.223.042.305.058l.133.029s.002-.054-.02-.139c-.013-.041-.025-.098-.053-.149-.026-.055-.055-.118-.102-.177-.043-.062-.098-.123-.166-.18-.059-.06-.156-.113-.256-.162-.056-.03-.092-.04-.129-.053-.038-.015-.077-.026-.116-.037l-.015-.004-.052-.007-.04-.004-.078-.005-.159-.004c-.095.012-.192.024-.284.045-.088.024-.172.053-.252.085-.157.07-.291.153-.399.241-.106.088-.186.175-.24.244-.052.067-.077.116-.077.116zm8.264 2.416s-.092-1.324-.134-1.856c-.041-.53 1.007-2.335 2.111-1.256 1.106 1.078.618 3.38.105 4.246-.513.865-1.986.879-2.08.268-.096-.611-.003-1.4-.003-1.4" clip-rule="evenodd"/>
    <path fill="#2E70AD" fill-rule="evenodd" d="M71.928 65.752c.318-.956.448-2.437-.338-3.208-.634-.626-1.25-.162-1.596.371.12-.593.974-1.853 1.865-.977.978.961.536 3.025.078 3.8l-.01.015v-.001zm-34.04 11.696s-4.444-6.563-5.068-7.325c-.624-.763-1.317-.042-1.026.477.293.518 4.89 7.03 4.89 7.03l1.204-.182zm44.432-1.104s-4.919-5.128-6.247-5.762c-3.4.81-8.568 7.861-10.115 12.088-1.55 4.227-2.61 17.574-2.84 20.111-.23 2.537-4.426 9.208-4.426 9.208s17.26 12.501 25.176 11.045c5.771-17.326 5.873-38.838-1.548-46.69z" clip-rule="evenodd"/>
    <path fill="#2E70AD" fill-rule="evenodd" d="M66.97 96.272s-6.682 6.773-9.147 6.745c-2.466-.029-8.315-9.404-10.092-12.59-1.778-3.188-2.926-4.943-4.084-5.17-1.16-.227-3.445-.202-4.338-.791-.89-.588-1.364-1.321-1.422-1.713-.785-.404-1.758-1.262-1.415-1.917-.454-.613-.658-.985-.196-1.295.462-.312 1.675-.255 1.675-.255s-1.94-.873-2.548-1.417c-.376-.338-.551-1.382.249-1.396.802-.014 3.902 1.369 5.163 1.39 1.263.022 1.89-.422 2.73.524.838.945 1.519 3.145 2.323 3.855.802.709 10.635 10.299 11.92 11.175 1.196-.77 4.53-3.2 4.53-3.2l4.652 6.055" clip-rule="evenodd"/>
    <path fill="#2E70AD" fill-rule="evenodd" d="M59.786 91.367s5.539-5.082 7.377-8.163c1.838-3.081 4.685-5.963 6.922-6.113 2.236-.15 5.8 2.18 3.691 8.514-2.108 6.333-7.735 8.504-9.74 10.416-2.008 1.91-3.629 2.387-3.629 2.387s-2.262-4.541-4.622-7.042zm-19.676 29.07s-5.508 2.577-8.973 5.955c-3.464 3.379 5.775 5.602 9.772 4.535 3.998-1.067 7.157-5.245 7.157-5.245l-7.956-5.245z" clip-rule="evenodd"/>
    <path fill="#2E70AD" fill-rule="evenodd" d="M68.503 81.233l-10.271 8.132s-7.818-12.463-10.038-15.596c-2.576-3.667-4.501-4.04-5.923-3.646-1.421.393-5.5 2.33-6.334 3.173-.835.844 1.124.76 1.893.473.77-.29 1.657-.645 1.657-.645s.535 1.125 1.422 1.125c.414 1.068 1.719 1.186 1.719 1.186s1.953 1.009 2.96.77c1.007-.237 2.63 3.114 3.376 6.164s3.02 13.694 8.765 14.67c5.744.977 11.785-3.35 11.785-3.35l-1.01-12.456" clip-rule="evenodd"/>
    <path fill="#961B02" fill-rule="evenodd" d="M150.815 118.208l4.322 4.183-4.428 1.449-1.398-1.385 1.504-4.247z" clip-rule="evenodd"/>
    <path fill="#233861" fill-rule="evenodd" d="M78.62 115.846s-1.447 16.806 15.017 15.248c16.61-1.572 26.742-21.277 33.191-22.019 9.059 6.622 22.532 14.297 22.532 14.297l2.91-4.973s-20.357-19.544-24.801-21.659c-3.622-1.722-15.19 7.561-21.536 11.987-5.774 4.026-8.224 1.442-12.294-1.408-4.07-2.85-15.02 8.527-15.02 8.527" clip-rule="evenodd"/>
    <path fill="#2B478B" fill-rule="evenodd" d="M150.201 123.345s.881 1.559.488 2.76c-.392 1.201-.73 2.738.065 3.461.795.724 12.077.396 14.366-.021 2.289-.419 4.001-2.499 2.24-3.578-1.761-1.079-4.996-.449-7.061-.599-2.068-.151-5.301-3.525-5.301-3.525s-3.853 2.307-4.797 1.502z" clip-rule="evenodd"/>
    <path fill="#DAE3E4" fill-rule="evenodd" d="M167.36 125.968l-.056-.03c-.352.857-1.502 1.684-2.854 1.931-2.175.397-12.472.712-14.171.121-.039.635.073 1.21.475 1.576.795.724 12.077.396 14.366-.021 2.289-.418 4.001-2.499 2.24-3.577z" clip-rule="evenodd"/>
    <path fill="#C62A0B" fill-rule="evenodd" d="M158.059 118.896l4.756 4.318-4.872 1.494-1.54-1.429 1.656-4.383z" clip-rule="evenodd"/>
    <path fill="#2A4E96" fill-rule="evenodd" d="M78.622 116.459s-1.59 17.342 16.524 15.734c18.277-1.623 29.426-21.953 36.519-22.72 9.97 6.833 24.795 14.752 24.795 14.752l3.201-5.131s-22.399-20.166-27.289-22.347c-3.985-1.777-15.513 7.84-21.595 12.338-6.082 4.498-8.413 3.453-12.892.513-4.479-2.941-19.264 6.861-19.264 6.861" clip-rule="evenodd"/>
    <path fill="#2B478B" fill-rule="evenodd" d="M78.622 116.46s-1.59 17.341 16.524 15.733c18.277-1.622 29.426-21.953 36.519-22.719 9.97 6.832 24.795 14.751 24.795 14.751l1.996-3.201s-22.775-20.708-27.667-22.89c-3.985-1.776-13.93 6.454-20.012 10.951-6.082 4.498-8.413 3.453-12.892.513-4.479-2.941-19.264 6.862-19.264 6.862" clip-rule="evenodd"/>
    <path fill="#2A4E96" fill-rule="evenodd" d="M100.506 129.888c-12.242-.769-12.69-8.085-12.69-8.085s13.033-7.781 17.028-9.791c-5.803 1.959-26.223 4.448-26.223 4.448s-1.59 17.341 16.526 15.733c4.145-.368 7.921-1.699 11.368-3.546-1.912.621-3.908 1.373-6.007 1.241h-.002zm56.879-5.689s.968 1.607.538 2.847c-.433 1.239-.804 2.824.071 3.57.875.748 13.288.409 15.806-.021 2.519-.432 4.403-2.578 2.465-3.692-1.937-1.114-5.418-.968-7.691-1.125-2.274-.155-5.912-3.13-5.912-3.13s-4.239 2.38-5.277 1.55" clip-rule="evenodd"/>
    <path fill="#FFFFFE" fill-rule="evenodd" d="M176.645 127.181c-.382.888-1.651 1.749-3.146 2.005-2.519.431-14.933.77-15.807.022-.086-.073-.157-.156-.219-.244-.048.665.071 1.27.519 1.652.877.747 13.29.408 15.808-.021 2.323-.4 4.103-2.255 2.845-3.414" clip-rule="evenodd"/>
    <path fill="#961B02" fill-rule="evenodd" d="M111.899 76.318s-2.461 0-3.183 2.525c-2.17-.775-5.385-4.836-5.385-4.836s2.613-5.349 3.536-9.129c1.406-2.371 3.175-3.457 3.978-3.256.804.201 2.63 12.906 1.055 14.696" clip-rule="evenodd"/>
    <path fill="#C62A0B" fill-rule="evenodd" d="M121.615 64.236s.321 5.026-.483 5.308c-.804.281-.24 1.367 0 2.17.241.805.522 1.663.174 2.039-.348.374-1.66.214-1.66.214s-.282.71-.201.924c-.041.322-.738.305-.738.305s-1.372-.906-1.694-1.402c-.484 1.603 1.213 2.156 1.36 2.224.148.067-.04.401-.428.375-.389-.027-.791.523-.629 1.433.16.913-1.422 1.583-2.948.323-1.528-1.26-3.991-2.627-4.393-3.887-.402-1.26.831-4.344.831-4.344s.59-2.223 1.178-5.172c.589-2.95-2.277-6.408 1.528-6.73 3.804-.321 7.847 2.788 8.103 6.22" clip-rule="evenodd"/>
    <path fill="#C65B4A" fill-rule="evenodd" d="M121.132 69.544c.804-.281.483-5.308.483-5.308-.255-3.432-4.3-6.541-8.105-6.22-2.675.227-2.051 2.005-1.65 4.065.876.27 1.774.478 2.62.836.75.315 1.462.575 2.18.958.658.35 1.343.626 1.987.99.824.468 1.446.926 1.355 1.936-.048.554-.144 1.025-.668 1.089-2.837.343-2.032 3.181-2.649 4.013-.466.63-1.014 1.252-1.204 2.028-.191.782.28 1.496-.139 2.245-.341.608-.916 1.135-1.561 1.513.206.155.403.308.587.46 1.527 1.26 3.108.59 2.947-.322-.161-.91.241-1.46.63-1.433.388.025.576-.309.428-.376-.148-.068-1.718-.58-1.36-2.224.322.496 1.694 1.403 1.694 1.403s.701.205.737-.305c-.08-.215.202-.925.202-.925s1.312.16 1.66-.214c.348-.376.067-1.234-.174-2.038-.241-.804-.804-1.89 0-2.171" clip-rule="evenodd"/>
    <path fill="#C62A0B" fill-rule="evenodd" d="M120.839 73.753c.347-.376.066-1.234-.175-2.038-.24-.804-.803-1.89 0-2.171.804-.281.483-5.308.483-5.308-.238-3.198-3.767-6.114-7.325-6.238-.104.005-.208.01-.312.019-2.675.226-2.051 2.004-1.65 4.065.876.27 1.774.477 2.62.835.75.315 1.462.575 2.18.958.658.35 1.343.626 1.987.99.824.468 1.446.926 1.355 1.936-.048.554-.144 1.025-.668 1.089-2.837.343-2.032 3.181-2.649 4.013-.466.63-1.014 1.252-1.204 2.028-.191.782.28 1.496-.139 2.245-.341.609-.916 1.135-1.561 1.513.206.155.403.308.587.46.512.423 1.029.624 1.485.677.653-.083 1.082-.504.995-.999-.162-.91.24-1.46.629-1.433.388.025.576-.309.428-.376-.147-.068-1.779-.503-.981-2.347.068.078.155.234.18.244.249.382 1.169 1.134 1.603 1.281.123-.053.25-.146.27-.304-.081-.215.289-1.102.289-1.102h.467s.157.02.374.029c.331-.018.58.097.732-.066" clip-rule="evenodd"/>
    <path fill="#170224" fill-rule="evenodd" d="M121.667 65.56s-2.183-.68-3.348-2.25c-1.165-1.568-.884 1.365-.684 2.25.202.887-1.164 1.403-1.968 1.729-.804.325-1.286 2.777-.884 3.622.402.844 1.245 1.487.562 2.654-.682 1.166-.602 2.855.281 3.458.885.603 1.257.723 1.653.401.276 1.006-.246 2.132-.246 2.132s-1.326.18-3.214-.713c-1.888-.895-3.662-3.346-3.579-4.071.082-.724 1.706-1.168 2.28-2.655.575-1.487 1.514-6.003-.1-6.638-1.614-.635-1.817.163-2.5.727-.683.563-1.124 2.694-2.25 3.538-1.124.845-2.762.745-2.762.745s1.316-5.41 1.477-7.258c.161-1.85 1.326-4.724 4.942-5.238 2.29-2.363 4.903-2.403 7.233-.996 2.331 1.408 6.59 3.74 5.143 9.49-1.165-.321-2.036-.926-2.036-.926z" clip-rule="evenodd"/>
    <path fill="#C65B4A" fill-rule="evenodd" d="M112.211 68.419s.59-1.207.831-1.69c.241-.482-.053-2.573-1.5-1.983-1.447.589-1.867 2.934-1.715 3.94.152 1.006 1.528 1.582 1.848 1.046.323-.537.536-1.313.536-1.313" clip-rule="evenodd"/>
    <path fill="#C65B4A" fill-rule="evenodd" d="M110.034 68.937c.065-1.018.507-2.454 1.538-2.878.833-.344 1.234.325 1.355.956.113-.602-.207-2.108-1.376-1.627-1.284.53-1.655 2.631-1.521 3.535l.004.014" clip-rule="evenodd"/>
    <path fill="#961B02" fill-rule="evenodd" d="M103.979 98.712s3.753 7.398 6.216 6.996c2.463-.401 7.504-9.972 8.801-13.43 1.296-3.458 2.179-5.388 3.304-5.79 1.127-.403 3.417-.724 4.221-1.448.804-.724 1.166-1.529 1.166-1.93.721-.523 3.199-.51 2.076-2.144.566-1.716-.443-1.072-.952-1.314-.509-.241-1.714 0-1.714 0s2.036-.841 2.329-1.056c.296-.214.646-.38-.158-.273-.803.106-3.859.981-5.118 1.195-1.259.212-2.331.402-3.027 1.474-.697 1.072-1.075 4.021-1.772 4.852-.697.83-6.801 8.729-7.956 9.8-.551-.439-2.064-4.048-2.064-4.048l-5.352 7.115" clip-rule="evenodd"/>
    <path fill="#15AB93" fill-rule="evenodd" d="M111.599 94.796s-3.749-5.934-4.487-9.49c-.737-3.556-3.255-7.318-5.344-8.202-2.09-.886-6.268.16-6.349 6.916-.08 6.755 4.581 10.696 5.866 13.19 1.287 2.492 2.68 3.483 2.68 3.483s4.55-4.288 7.634-5.897z" clip-rule="evenodd"/>
    <path fill="#225185" fill-rule="evenodd" d="M129.209 78.711s3.456-7.237 3.964-8.095c.509-.858 1.313-.241 1.099.322-.214.562-3.83 7.773-3.83 7.773h-1.233" clip-rule="evenodd"/>
    <path fill="#15AB93" fill-rule="evenodd" d="M96.259 74.904s6.563-2.93 8.05-3.019c2.879 2.055 6.089 8.765 5.931 13.318-.158 4.554-6.71 18.965-7.46 21.431-.75 2.467 2.292 5.265 2.292 5.265s-21.174 10.571-28.04 6.189c1.184-18.447 9.28-38.651 19.227-43.184z" clip-rule="evenodd"/>
    <path fill="#6FC1B0" fill-rule="evenodd" d="M104.611 72.118c1.907 2.802 2.952 7.568 2.825 11.224-.159 4.554-5.158 19.395-5.909 21.862-.601 1.979 2.19 5.496 3.316 6.807.149-.071.228-.111.228-.111s-3.041-2.799-2.291-5.265c.75-2.467 7.301-16.879 7.459-21.433.153-4.394-2.832-10.796-5.628-13.084" clip-rule="evenodd"/>
    <path fill="#5ABA9F" fill-rule="evenodd" d="M104.611 72.118c1.907 2.802 2.952 7.568 2.825 11.224-.159 4.554-5.158 19.395-5.909 21.862-.601 1.979 2.19 5.496 3.316 6.807.149-.071.228-.111.228-.111s-3.534-2.822-2.784-5.288c.751-2.467 6.542-16.811 6.7-21.364.152-4.395-1.579-10.84-4.376-13.13" clip-rule="evenodd"/>
    <path fill="#C65B4A" fill-rule="evenodd" d="M105.845 99.638s4.819 8.078 7.281 7.675c2.464-.402 6.899-10.668 8.195-14.125 1.298-3.458 2.18-5.39 3.306-5.79 1.126-.404 3.415-.724 4.22-1.448.803-.724 1.164-1.529 1.164-1.93.724-.523 1.568-1.529 1.126-2.132.361-.683.509-1.086 0-1.327-.509-.24-1.714 0-1.714 0s1.809-1.167 2.334-1.804c.327-.395.344-1.465-.459-1.359-.804.107-3.697 1.96-4.956 2.173-1.259.212-1.956-.136-2.652.936-.697 1.072-1.045 3.38-1.742 4.21-.696.83-8.274 11.719-9.427 12.79-1.315-.588-2.804-4.886-2.804-4.886l-3.872 7.017" clip-rule="evenodd"/>
    <path fill="#AC6B58" fill-rule="evenodd" d="M105.845 99.638s4.267 7.755 6.73 7.353c2.463-.403 5.894-8.923 7.19-12.381 1.298-3.458 3.736-6.811 4.862-7.213 1.126-.403 2.737-.433 3.541-1.157.804-.722 1.189-1.693 1.189-2.094.723-.523 1.631-1.525 1.189-2.128.386-.47.679-1.291.318-1.467-.506-.248-1.441.01-1.441.01s1.599-1.635 1.894-1.85c.295-.215.785-1.42-.019-1.313-.804.107-3.697 1.96-4.956 2.173-1.259.212-1.956-.136-2.652.936-.697 1.072-1.045 3.379-1.742 4.21-.696.83-8.274 11.719-9.427 12.79-1.315-.589-2.804-4.886-2.804-4.886l-3.872 7.017" clip-rule="evenodd"/>
    <path fill="#35B297" fill-rule="evenodd" d="M112.279 95.493s-3.615-6.694-4.354-10.25c-.737-3.557-2.504-7.256-4.594-8.14-2.09-.885-6.269.16-6.349 6.917-.08 6.755 4.581 10.696 5.867 13.19 1.286 2.492 2.679 3.483 2.679 3.483s3.666-3.59 6.751-5.2z" clip-rule="evenodd"/>
    <path fill="#6FC1B0" fill-rule="evenodd" d="M101.767 77.104c2.09.883 3.388 6.04 4.127 9.594.673 3.255 3.759 9.137 4.276 10.11.7-.496 1.419-.955 2.108-1.315 0 0-3.615-6.694-4.353-10.25-.737-3.556-2.504-7.256-4.594-8.14-.636-.269-1.464-.358-2.31-.164.271.016.524.07.746.165" clip-rule="evenodd"/>
    <path fill="#5ABA9F" fill-rule="evenodd" d="M101.767 77.104c2.09.883 3.388 6.04 4.127 9.594.673 3.255 3.759 9.137 4.276 10.11.7-.496.637-.514 1.327-.873 0 0-3.559-6.283-4.296-9.838-.738-3.555-1.78-8.11-3.87-8.993-.636-.27-1.464-.359-2.31-.165.271.016.524.07.746.165z" clip-rule="evenodd"/>
    <path fill="#170224" fill-rule="evenodd" d="M117.282 77.437l-.003-.013c-.396.322-.768.202-1.653-.4-.884-.605-.963-2.294-.281-3.46.683-1.166-.16-1.81-.562-2.653-.241-.507-.163-1.59.11-2.447l-.093.038c-.599.269-1.133.39-1.208 1.072-.059.544.29 1.01.223 1.517-.076.584-.565.883-.36 1.555.154.505.454.749.406 1.33-.022.273-.167.496-.183.748-.021.338.122.355-.052.697-.213.417-.668.905-.526 1.484.152.616.855.85 1.263 1.24.39.377.686.835 1.021 1.255h.003c.119.028.229.053.337.072l.063.01c.088.016.173.03.253.04l.047.006c.187.024.35.035.485.04h.037c.06.003.114.003.162.003h.01l.133-.006h.016l.066-.006h.014l.023-.003s.517-1.117.249-2.119z" clip-rule="evenodd"/>
    <path fill="#170224" fill-rule="evenodd" d="M123.846 65.82c.018-.097.035-.195.05-.292l.029-.212c.011-.08.019-.159.027-.235l.021-.234.01-.187c.005-.085.009-.172.011-.256v-.116c0-.354-.021-.283-.025-.61-.021-2.565-2.072-4.288-2.072-4.288s.739 1.055 1.171 2.002c.382.839.465 1.584.398 1.536-.417-.294-1.053-1.145-1.56-1.163-.008.2.002.414-.021.605-.225.024-.353-.13-.56-.165-.003.053-.016.121-.015.171-.284-.021-.572-.344-.829-.477-.149.746-1.23-.165-1.653-.336-.337-.135-.721-.248-1.084-.301-.081.276-.036.595-.045.888-.567.021-1.545-.032-1.822.64-.102.248.106.56.039.794-.073.261-.385.411-.449.76-.042.233.048.492.002.724-.068.349-1.866 1.89-1.866 4.438 0 .344 1.02-1.282 1.249-.903.505-1.722 3.073-1.444 2.784-3.042-.162-.894-.482-3.819.683-2.25 1.166 1.568 3.349 2.25 3.349 2.25s.115.08.315.196l.022.013.044.024.072.04.013.008.115.062.02.01.123.064.019.009c.146.072.307.147.483.22l.01.005c.059.024.118.047.18.07l.041.016c.183.069.376.133.578.19.043-.167.079-.33.111-.49.012-.06.021-.118.031-.177" clip-rule="evenodd"/>
    <path fill="#2E70AD" fill-rule="evenodd" d="M62.236 56.36s12.301 6.001 15.567 8.983c3.266 2.983 4.524 4.53 5.064 4.656.54.125 1.168-.788-.315-2.356-1.483-1.567-3.8-4.458-3.8-4.458s2.99-4.395-.29-8.938c-3.281-4.544-8.09-4.679-10.204-4.769-2.112-.09-5.752 5.127-6.022 6.882" clip-rule="evenodd"/>
    <path fill="#327BAC" fill-rule="evenodd" d="M104.22 14.002l1.953 1.09s3.649-8.348-2.483-12.654C99.245-.528 97.306.69 97.306.69s-.76-1.333-3.418-.287c-1.714.677-7.378 5.876-8.083 17.627.478 6.736 3.688 4.83 4.177 4.83.488 0 14.239-8.858 14.239-8.858" clip-rule="evenodd"/>
</svg>
