<svg xmlns="http://www.w3.org/2000/svg" width="210" height="138" fill="none" viewBox="0 0 210 138">
    <g clip-path="url(#clip0)">
        <path fill="#FFC200" fill-rule="evenodd" d="M95.467 136.59c8.083-.062 35.864-.263 62.863.074 27 .337 36.924-21.202 40.104-51.664 6.584-63.07-59.286-60.238-79.416-42.72C98.89 59.795 83.342 2.57 62.416.431 41.49-1.706 13.627 12.785 3.4 49.962c-10.228 37.177 5.615 86.365 20.82 86.365 15.204 0 71.247.337 71.247.337v-.074z" clip-rule="evenodd" opacity=".273"/>
        <path fill="#F8C553" fill-rule="evenodd" d="M76.032 60.429v.004c-.058.153-1.507 3.943-6.374 4.03-8.829.09-11.057-6.399-11.057-6.399 1.663-1.724 2.994-2.69 2.994-2.69s12.569.304 13.305 1.28c0 0 .53 1.692 1.133 3.775" clip-rule="evenodd"/>
        <path fill="#9F3638" fill-rule="evenodd" d="M60.87 98.505c.484.625.907 1.296 1.285 1.989.383.691.718 1.408 1.018 2.14.15.365.28.739.416 1.108.115.379.25.75.342 1.136.218.758.35 1.54.445 2.322-.234-.753-.458-1.503-.72-2.239-.253-.739-.525-1.47-.825-2.19-.288-.725-.604-1.439-.931-2.149-.332-.708-.666-1.417-1.03-2.117" clip-rule="evenodd"/>
        <path fill="#AC6B58" fill-rule="evenodd" d="M64.493 132.418s.491 1.229 0 2.601c-.492 1.374-1.365 1.877 4.566 1.693 5.932-.182 6.116.184 7.128-.503 1.011-.685-.69-1.235-2.943-1.875-2.253-.641-3.954-1.008-3.31-2.883.643-1.876-5.441.967-5.441.967zM35.247 120.36s-1.18 1.939-3.11 2.58-2.483.456-1.196 3.844c1.289 3.386-.187 7.046 3.93 6.498.485-.047-.297-.459-.573-1.511-.275-1.053.29-4.942.95-5.994.66-1.053 2.223-2.746 2.223-2.746l-2.225-2.671" clip-rule="evenodd"/>
        <path fill="#CF524E" fill-rule="evenodd" d="M55.406 124.679s-9.199 10.272-17.108 1.567c-5.15-6.509-4.414-13.459 1.656-18.311 6.07-4.853 13.467-11.265 16.665-23.433 3.199-12.169 13.315 16.75 13.315 17.481 0 .732-.765 10.25-4.52 13.544-3.757 3.295-10.008 9.152-10.008 9.152" clip-rule="evenodd"/>
        <path fill="#CF524E" fill-rule="evenodd" d="M77.751 118.547c1.196 8.878-4.047 14.002-11.219 14.094-15.726-1.007-9.933-15.558-8.829-22.055 1.103-6.498 1.747-12.446.552-15.466-1.195-3.02-5.427-11.439-6.162-21.872-.47-6.673 3.546-12.12 6.508-15.184 1.663-1.724 2.994-2.69 2.994-2.69s12.569.304 13.305 1.28c0 0 .53 1.692 1.133 3.775v.004c.522 1.793 1.1 3.876 1.442 5.402 2.836 10.642.551 23.428-2.392 32.03.461.642 1.472 11.806 2.668 20.682" clip-rule="evenodd"/>
        <path fill="#9F3638" fill-rule="evenodd" d="M66.531 132.641c-.54-.049-1.084-.071-1.623-.139-.535-.086-1.077-.142-1.605-.28-1.067-.216-2.105-.581-3.075-1.086-.966-.507-1.853-1.188-2.554-2.036-.705-.844-1.215-1.84-1.54-2.886-.655-2.105-.617-4.336-.39-6.483.237-2.16.712-4.28 1.19-6.385.517-2.094.844-4.219 1.165-6.356.308-2.133.548-4.277.642-6.426.036-1.073.028-2.151-.09-3.216-.057-.532-.157-1.057-.287-1.575-.15-.508-.35-1.008-.561-1.506-.827-1.995-1.657-3.994-2.356-6.04.778 2.017 1.638 3.997 2.523 5.97.218.494.428.995.593 1.521.142.527.253 1.063.317 1.603.138 1.08.163 2.168.144 3.251-.05 2.169-.303 4.323-.595 6.466-.309 2.134-.627 4.286-1.137 6.389-.489 2.103-.97 4.206-1.216 6.341-.24 2.125-.268 4.31.328 6.365.3 1.021.778 1.993 1.45 2.822.666.833 1.521 1.51 2.46 2.024.94.519 1.957.909 3.011 1.15.52.15 1.06.217 1.591.317.535.087 1.076.128 1.615.195zm8.553-34.776l-1.34-6.035c-.447-2.01-.884-4.024-1.3-6.046-.198-1.013-.367-2.03-.552-3.043-.18-1.014-.376-2.026-.538-3.044-.165-1.017-.328-2.036-.466-3.059-.062-.512-.121-1.025-.163-1.54-.039-.511-.08-1.035.005-1.545-.026.257-.014.513.007.77.022.255.05.51.086.766.067.508.153 1.017.243 1.523.174 1.014.367 2.026.567 3.035l1.172 6.067 1.215 6.06.568 3.039c.171 1.016.348 2.032.496 3.052" clip-rule="evenodd"/>
        <path fill="#F8C553" fill-rule="evenodd" d="M65.07 18.377c0 .099-.08.18-.18.18-.101 0-.183-.081-.183-.18 0-.1.082-.182.182-.182.1 0 .182.082.182.182z" clip-rule="evenodd"/>
        <path fill="#161616" fill-rule="evenodd" d="M66.196 19.535c.33 3.715 1.272 10.69 1.928 12.823.656 2.132 5.384 15.71-7.3 15.492-7.13.652-13.563-5.335-13.082-11.818.48-6.483 3.063-4.285 4.332-8.507 1.268-4.22.555-13.546 8.767-13.444 1.486-.043 4.987 1.32 5.355 5.455" clip-rule="evenodd"/>
        <path fill="#AC6B58" fill-rule="evenodd" d="M58.811 28.351c-.357-.17-.583-.326-.943-.693-1.176-1.126-1.158-3.22-1.158-3.22s-2.343-1.213-.78-2.94c1.081-.996 1.962.59 1.962.59 2.842 0 5.073-1.175 5.772-3.569.568.74 1.3 1.745 1.435 2.439.397 2.05-1.219 9.805-6.289 7.393h.001z" clip-rule="evenodd"/>
        <path fill="#AC6B58" fill-rule="evenodd" d="M61.986 34.166l1.12-.956 1.102-3.604-1.223-.142-.603-2.413c-.594-.203-1.682-1.065-2.712-.338-.251.177-.279-.19-.485.15l-.657-.55v2.865c-.738 1.408-.954 3.43-.954 3.43l4.412 1.558z" clip-rule="evenodd"/>
        <path fill="#F8C553" fill-rule="evenodd" d="M62.112 14.198c.267.274.475.599.657.935.182.337.323.693.444 1.055.103.368.199.739.242 1.12.031.187.035.378.053.567.005.19.004.38 0 .57-.044-.377-.083-.752-.156-1.123-.065-.37-.159-.734-.269-1.093-.11-.36-.249-.71-.407-1.05-.16-.34-.342-.672-.564-.98" clip-rule="evenodd"/>
        <path fill="#F8C553" fill-rule="evenodd" d="M64.009 18.739c0 .274-.225.496-.501.496s-.5-.222-.5-.496c0-.275.224-.498.5-.498s.5.223.5.498zm-.456-1.594c0 .1-.08.181-.182.181-.1 0-.181-.081-.181-.181 0-.1.082-.18.181-.18.102 0 .182.08.182.18zm2.395.543c0 .099-.08.18-.181.18-.1 0-.182-.081-.182-.181 0-.1.082-.18.182-.18.1 0 .181.08.181.18v.001zm-3.872 1.156c0 .1-.08.18-.18.18-.1 0-.183-.08-.183-.18 0-.1.082-.18.183-.18.1 0 .181.08.181.18h-.001zm-1.284-.18c0 .099-.081.18-.181.18-.101 0-.183-.081-.183-.18 0-.1.082-.182.183-.182.1 0 .18.082.18.182zm-1.077-.242c0 .1-.08.18-.181.18-.1 0-.183-.08-.183-.18 0-.1.082-.18.183-.18.1 0 .181.08.181.18zm-.985-.522c0 .1-.082.181-.182.181-.1 0-.182-.081-.182-.181 0-.1.081-.18.182-.18.1 0 .182.08.182.18zm-.818-.606c0 .1-.082.18-.182.18-.1 0-.181-.08-.181-.18 0-.1.081-.182.18-.182.101 0 .183.082.183.182zm-.713-.773c0 .099-.082.18-.182.18-.1 0-.181-.081-.181-.18 0-.1.08-.182.18-.182.101 0 .183.082.183.182zm-.522-.938c0 .1-.082.18-.181.18-.1 0-.183-.08-.183-.18 0-.1.082-.18.183-.18.1 0 .181.08.181.18zm6.587.432c0 .1-.082.181-.182.181-.1 0-.182-.082-.182-.181 0-.1.081-.18.182-.18.1 0 .182.08.182.18zm-.364-.848c0 .1-.08.181-.18.181-.101 0-.183-.081-.183-.181 0-.1.082-.18.182-.18.1 0 .181.08.181.18zm-.551-.892c0 .099-.08.18-.181.18-.1 0-.182-.081-.182-.18 0-.1.081-.182.182-.182.1 0 .182.082.182.182" clip-rule="evenodd"/>
        <path fill="#F8C553" fill-rule="evenodd" d="M56.394 15.38c.266.656.69 1.238 1.193 1.727.505.488 1.103.876 1.75 1.149.65.268 1.344.42 2.047.492.35.041.706.03 1.06.047l1.064-.057-1.062.123c-.355-.003-.715.02-1.07-.009-.357-.038-.716-.063-1.063-.158-.354-.063-.69-.193-1.029-.313-.657-.29-1.271-.687-1.771-1.202-.255-.251-.469-.541-.666-.837-.183-.306-.346-.625-.453-.963" clip-rule="evenodd"/>
        <path fill="#854E42" fill-rule="evenodd" d="M57.633 27.4c.216.277.482.5.765.687.284.186.594.33.918.435.324.098.66.16 1.003.191.17.02.343.014.517.027.174.001.348-.01.525-.005-.17.042-.344.075-.519.108-.175.012-.352.04-.53.034-.358.002-.716-.054-1.06-.155-.343-.114-.67-.277-.95-.502-.282-.22-.523-.499-.67-.82z" clip-rule="evenodd"/>
        <path fill="#E847FF" fill-rule="evenodd" d="M61.801 32.06c1.863-.712 1.185-2.596 1.185-2.596s2.397-.398 6.266.174c3.869.569 9.6 3.421 9.6 3.421l7.166 13.547-6.664 2.78-5.938 13.579c-8.806 1.615-11.28 2.6-18.022-.93L52.63 51.17s-4.013-3.564-3.583-9.126c.43-5.562 2.865-8.699 4.871-9.982 2.007-1.284 4.372-2.353 4.372-2.353s1.647 3.066 3.51 2.353z" clip-rule="evenodd"/>
        <path fill="#CB1CE6" fill-rule="evenodd" d="M86.017 46.606l-2.438-4.612c-3.425.986-12.713 3.532-16.19 3.185-4.298-.427-8.884-4.135-8.884-4.135l-6.986 8.883c.62.804 1.11 1.242 1.11 1.242.098 4.905 1.63 9.091 2.763 10.867 6.743 3.53 14.164 4.094 21.043.413 1.722-1.96 1.914-5.977 1.34-8.829l8.242-7.014z" clip-rule="evenodd"/>
        <path fill="#E847FF" fill-rule="evenodd" d="M85.015 50.313l-2.15-2.139S76.13 51.027 69.252 49.6c-6.877-1.426-10.173-9.554-10.173-9.554l-9.606-.821c-.2.86-.346 1.798-.426 2.818-.43 5.56 3.583 9.126 3.583 9.126 8.884 9.839 26.94 11.265 32.385-.856" clip-rule="evenodd"/>
        <path fill="#E0472C" fill-rule="evenodd" d="M82.864 48.174s.574-2.709 1.577-2.709c1.003 0 0 1.282 0 1.282s2.435-2.851 3.296-1.282c.86 1.568-2.723 4.848-2.723 4.848l-2.15-2.139" clip-rule="evenodd"/>
        <path fill="#35105F" fill-rule="evenodd" d="M59.613 56.395c.199-.522.516-1.001.899-1.419.388-.412.856-.763 1.386-.994.263-.115.54-.205.822-.265.284-.054.571-.09.86-.096.578-.01 1.15.086 1.7.237.551.159 1.085.392 1.562.714.24.159.463.344.67.541.212.196.395.419.563.65.339.461.584.982.757 1.518.165.54.268 1.099.259 1.659-.061-.555-.203-1.095-.404-1.608-.1-.256-.219-.505-.354-.743-.134-.239-.284-.467-.454-.68-.673-.859-1.632-1.464-2.684-1.75-.525-.15-1.07-.243-1.612-.242-.272-.002-.542.024-.81.069-.266.05-.527.123-.78.221-.506.198-.971.501-1.372.877-.402.375-.746.818-1.008 1.312" clip-rule="evenodd"/>
        <path fill="#43A539" fill-rule="evenodd" d="M173.655 127.904c-2.068 2.699-3.365 5.507-3.894 8.423h-.855c-.095-3.952.039-6.498.401-7.636.544-1.706 7.448-4.836 4.348-.787z" clip-rule="evenodd"/>
        <path fill="#43A539" fill-rule="evenodd" d="M173.368 132.513c.32.229.393.674.164.992-.03.041-.065.079-.103.114l-3.53 3.167-.592-.216c.771-1.4 1.332-2.324 1.684-2.771.245-.311.588-.698 1.028-1.159.355-.372.931-.425 1.349-.127z" clip-rule="evenodd"/>
        <path fill="#43A539" fill-rule="evenodd" d="M165.102 133.028c-.495 1.562 2.759 3.758 3.457 3.758h.734l.591-.216c-.771-1.4-1.332-2.324-1.683-2.771-.104-.131-.177-.322-.22-.573-.136-.804-.903-1.346-1.711-1.21-.549.093-1 .484-1.169 1.012h.001zm-144.153-4.62c-2.068 2.7-3.366 5.508-3.896 8.423h-.855c-.095-3.952.04-6.498.402-7.636.544-1.706 7.449-4.835 4.349-.787z" clip-rule="evenodd"/>
        <path fill="#43A539" fill-rule="evenodd" d="M20.488 129.253c.32.229.393.673.164.992-.03.041-.065.079-.103.114l-3.53 3.166-.592-.215c.77-1.401 1.332-2.324 1.684-2.771.245-.312.588-.699 1.028-1.159.355-.372.93-.425 1.349-.127z" clip-rule="evenodd"/>
        <path fill="#43A539" fill-rule="evenodd" d="M12.643 130.734c-.496 1.564 2.76 3.758 3.456 3.758h.734l.592-.215c-.771-1.4-1.332-2.324-1.684-2.771-.104-.131-.177-.322-.218-.574-.138-.804-.905-1.345-1.713-1.209-.549.092-1 .484-1.168 1.011zm8.935 2.173c.495 1.565-2.759 3.759-3.456 3.759h-.734l-.592-.215c.77-1.401 1.332-2.325 1.685-2.771.102-.132.176-.323.218-.574.137-.804.903-1.345 1.711-1.21.55.093 1 .484 1.169 1.011h-.001z" clip-rule="evenodd"/>
        <path stroke="#2B3964" stroke-linecap="round" stroke-width=".8" d="M-.332 136.327l210.01.673"/>
        <path fill="#FFC035" fill-rule="evenodd" d="M72.62 34.13l2.005 25.666 26.08-.712V33.7l-28.086.428z" clip-rule="evenodd"/>
        <path fill="#FFA658" fill-rule="evenodd" d="M74.625 59.796l1.252-.034c-.08-4.195.038-14.683 3.046-18.341 2.999-3.644 16.308-5.056 21.782-5.49v-2.23l-28.086.428 2.006 25.667" clip-rule="evenodd"/>
        <path fill="#298BF5" fill-rule="evenodd" d="M80.5 15.45l1.004 10.836 16.908-.998v-10.41L80.5 15.45z" clip-rule="evenodd"/>
        <path fill="#2071F5" fill-rule="evenodd" d="M81.502 26.286l.252-.015c.683-1.558 2.013-3.495 4.55-5.617 4.894-4.097 10.047-4.583 12.108-4.595v-1.18l-17.912.57 1.004 10.837" clip-rule="evenodd"/>
        <path fill="#35105F" fill-rule="evenodd" d="M88.47 9.842c1.002-.989 1.785-2.181 2.278-3.477.12-.325.233-.652.316-.99.084-.333.164-.673.192-1.004.028-.332.005-.665-.117-.948-.12-.283-.344-.526-.611-.623-.262-.1-.565-.034-.811.136-.253.169-.433.423-.552.722-.12.296-.185.628-.241.97-.057.341-.103.685-.141 1.03-.153 1.376-.16 2.77-.01 4.146h-.52c.14-1.34-.147-2.728-.801-3.918-.322-.597-.73-1.15-1.213-1.627-.128-.113-.247-.234-.38-.34-.134-.104-.266-.22-.399-.31-.267-.18-.574-.316-.835-.276-.066.008-.127.03-.184.062-.058.031-.109.07-.15.118-.084.095-.134.228-.152.376-.033.3.043.634.163.94.033.075.066.151.104.224l.125.227c.08.152.173.3.262.449.184.293.381.58.59.857.842 1.109 1.896 2.062 3.095 2.804-1.258-.642-2.38-1.555-3.295-2.645-.23-.273-.442-.56-.644-.853-.096-.15-.197-.297-.288-.451l-.137-.23c-.046-.082-.088-.165-.127-.25-.149-.34-.254-.708-.224-1.111.018-.199.082-.413.226-.589.07-.087.16-.16.255-.214.095-.058.202-.098.31-.115.221-.041.438-.005.625.057.192.063.362.155.522.256.163.1.297.217.444.328.144.11.275.239.413.357.527.502.974 1.086 1.33 1.72.095.155.168.322.248.485.078.163.141.335.212.502.057.173.12.344.17.519.044.176.102.349.133.529.15.712.196 1.447.122 2.174l-.259 2.557-.262-2.557c-.144-1.416-.134-2.847.04-4.26.044-.352.098-.704.163-1.053.064-.348.137-.711.287-1.063.076-.176.169-.348.291-.506.125-.157.27-.297.442-.405.17-.109.365-.19.574-.22.207-.033.431-.01.627.07.197.078.365.207.5.354.136.15.24.322.313.505.145.371.153.76.107 1.124-.046.368-.142.71-.243 1.052-.101.343-.23.676-.368 1.003-.572 1.304-1.433 2.478-2.515 3.382" clip-rule="evenodd"/>
        <path fill="#298BF5" fill-rule="evenodd" d="M78.924 9.317l.716 6.845 19.631-.713V8.747l-20.347.57z" clip-rule="evenodd"/>
        <path fill="#35105F" fill-rule="evenodd" d="M88.382 9.016c.171 1.383.291 2.769.394 4.154.056.694.093 1.387.14 2.081l.11 2.081.081 2.084c.017.694.045 1.388.052 2.084.026 1.39.033 2.78-.013 4.172-.172-1.383-.293-2.768-.395-4.154-.057-.693-.093-1.387-.14-2.08l-.109-2.082-.08-2.083c-.018-.694-.044-1.389-.053-2.084-.025-1.39-.033-2.78.012-4.173" clip-rule="evenodd"/>
        <path fill="#FFC035" fill-rule="evenodd" d="M70.613 25.288l1.147 10.551 30.091-.997v-10.41l-31.238.856z" clip-rule="evenodd"/>
        <path fill="#35105F" fill-rule="evenodd" d="M83.08 25.017c.395 2.866.737 5.738 1.063 8.61.167 1.436.317 2.875.474 4.312l.444 4.314.417 4.317c.13 1.44.268 2.88.387 4.32.249 2.88.478 5.763.657 8.65-.396-2.865-.739-5.737-1.064-8.61-.168-1.436-.316-2.874-.474-4.311l-.444-4.314-.417-4.318c-.13-1.44-.267-2.88-.386-4.32-.25-2.88-.48-5.764-.659-8.65h.001zm9.17-.324c.061 2.894.07 5.788.061 8.68 0 1.447-.019 2.893-.028 4.34l-.057 4.338-.085 4.338c-.04 1.445-.068 2.892-.116 4.338-.086 2.891-.191 5.783-.347 8.673-.063-2.895-.071-5.787-.061-8.68 0-1.446.018-2.893.027-4.339l.058-4.339.086-4.338c.038-1.445.068-2.892.116-4.337.086-2.891.19-5.783.346-8.674" clip-rule="evenodd"/>
        <path fill="#AC6B58" fill-rule="evenodd" d="M143.157 132.561s-.5 1.253 0 2.652c.5 1.397 1.39 1.91-4.651 1.723-6.044-.185-6.23.187-7.261-.512-1.03-.699.703-1.259 2.997-1.911 2.296-.652 4.029-1.026 3.373-2.936-.656-1.911 5.541.984 5.541.984h.001zm13.78-25.886s1.901 1.322 3.964 1.128c2.064-.196 2.503-.592 2.705 3.09.202 3.682 3.091 6.488-.972 7.664-.47.156.088-.548-.091-1.641-.178-1.094-2.314-4.486-3.365-5.196-1.05-.71-3.207-1.647-3.207-1.647l.966-3.399" clip-rule="evenodd"/>
        <path fill="#161616" fill-rule="evenodd" d="M144.188 19.437s.551-.234 1.448.513c.896.745 1.973.326 3.004.558 1.031.234 4.497 2.415 4.075 6.428.093.983.702 2.38 2.529 3.128 1.826.745 3.278 4.8 1.171 7.503-2.108 2.703.094 4.66-.187 7.596-.282 2.937-8.349 6.013-13.284 2.284-4.936-3.727-5.45 3.263-5.45 3.263s-6.277.233-7.026-5.314c-.375-3.309-.14-5.453 1.874-7.317 2.013-1.864 1.638-4.8 2.95-6.757 1.311-1.958 1.967-1.85 1.733-3.651-.235-1.802.749-5.716 2.951-6.463.89-.326 1.117-1.818 4.212-1.771" clip-rule="evenodd"/>
        <path fill="#2B5F53" fill-rule="evenodd" d="M140.256 133.063c12.646 0 13.632-11.279 11.312-20.973-2.319-9.694-1.57-35.298-1.57-35.298l-5.842-18.951-6.896-1.865s1.125 3.262-1.03 7.457c-1.125 2.61-4.028 13.61-2.811 28.337 1.218 14.727.094 19.482-1.592 23.955-1.686 4.475-4.215 17.338 8.43 17.338" clip-rule="evenodd"/>
        <path fill="#2B5F53" fill-rule="evenodd" d="M135.01 47.666c0 2.781 1.5 4.861 2.25 8.31 2.528 2.238 15.954 1.183 15.267 0-.686-1.182-.311-2.733.311-3.792h.037c.241.015.473.015.712-.003 2.245-.134 4.482-1.458 5.88-2.554-.225-.467-.442-.959-.652-1.466l-.004-.003c-1.69-4.02-3.152-8.99-6.891-9.848-.963-.22-1.734-.324-2.44-.398-.77-.083-1.467-.13-2.258-.25-1.514-.235-.465-3.721-.465-3.721s-3.72-.18-4.864-.313c.233 2.941-.419 3.642-.794 3.955-.262.218-1.401.284-2.251.079-.364-.09-.671-.229-.84-.42.094 2.516-2.998 7.642-2.998 10.424z" clip-rule="evenodd"/>
        <path fill="#AC6B58" fill-rule="evenodd" d="M144.187 44.109c3.392 0 5.468-3.14 5.294-6.198-.771-.082-1.468-.13-2.258-.25-1.515-.234-.465-3.72-.465-3.72s-3.721-.18-4.864-.313c.232 2.941-.419 3.642-.794 3.955-.262.218-1.401.284-2.252.078-.348 2.741 2.743 6.448 5.34 6.448h-.001zm-7.957 19.324c3.679 2.659 7.549 2.73 10.337 2.23l-2.409-7.822-6.899-1.865s1.125 3.262-1.029 7.457zM117.229 19.19s5.642 14.816 8.087 18.003c1.491 1.934 3.199 3.104 6.792 4.987.649.338 2.974.975 3.623 1.3l-.02-.016c2.079-1.834 2.201-6.495 2.201-6.495-.55-.216-1.131-.453-1.714-.697l-.037-.014c-2.734-1.133-5.543-2.416-6.142-2.728-2.993-4.265-10.654-15.111-10.654-15.111l-2.136.771zm2.136-.771c-.433-.464.739-2.222.98-3.325.241-1.102-.314-2.518-.947-3.53-.634-1.013-.514.974-.398 2.174-1.252.866-1.684 1.548-1.274 2.98" clip-rule="evenodd"/>
        <path fill="#AC6B58" fill-rule="evenodd" d="M117.228 19.192c-.751-1.233-.655-.968-1.094-1.86-.44-.895.812-2.851 1.522-3.184.604-.518.894-2.314.728-3.91-.166-1.594 1.509.838 1.376 3.771-.135 2.933-1.043 3.519-.022 5.218 1.02 1.7-2.51-.035-2.51-.035" clip-rule="evenodd"/>
        <path fill="#885144" fill-rule="evenodd" d="M119.398 11.564c-.062-.105-.114-.22-.235-.292-.072-.041-.164.022-.189.082-.033.058-.054.12-.069.181-.059.247-.063.495-.073.741-.015.494.029.984.065 1.473l.044-.094c-.249.166-.487.352-.708.56-.219.21-.423.45-.555.732-.132.283-.173.598-.155.9.024.302.098.593.203.871-.055-.29-.102-.584-.092-.873.004-.29.062-.575.201-.822.263-.506.753-.858 1.224-1.2l.05-.036-.006-.058c-.055-.485-.088-.97-.118-1.455-.011-.241-.017-.486.013-.72.015-.106.046-.265.145-.234.101.043.18.15.255.244zm10.623 21.967c-.269.147-.477.367-.65.608-.168.243-.303.522-.328.826.183-.242.335-.473.502-.706.162-.234.328-.464.474-.728" clip-rule="evenodd"/>
        <path fill="#F8C553" fill-rule="evenodd" d="M120.362 19.827c.12-.083.262-.12.396-.12.204 0 .4.082.551.229.151.145.25.365.248.61 0 .233-.083.482-.252.735-.171.254-.426.517-.794.791-.756.562-1.348.792-1.836.794-.347.004-.639-.13-.822-.333-.184-.202-.264-.453-.264-.69 0-.14.028-.28.093-.407.064-.126.172-.245.324-.31l.235.55-.026.032c-.014.027-.027.077-.027.136 0 .098.037.21.109.287.072.076.173.137.378.139.284.003.78-.153 1.477-.674.327-.244.535-.465.654-.645.12-.18.152-.316.152-.406-.002-.093-.032-.145-.069-.184-.04-.04-.092-.058-.131-.058l-.057.016-.339-.492zm1.455 2.061c.101-.07.223-.106.341-.106.222.001.413.12.54.284.128.166.201.384.201.63-.001.522-.32 1.142-1.124 1.74-.749.558-1.369.785-1.887.786-.409.002-.746-.153-.963-.377-.218-.223-.327-.5-.329-.765 0-.12.022-.242.082-.355.058-.112.16-.217.292-.272l.236.549-.009-.02.015.016-.006.004-.009-.02.015.016-.004-.005.004.004-.004-.004.004.004s-.017.028-.016.083c-.002.094.047.24.157.348.109.109.27.196.535.198.332.002.843-.156 1.528-.667.711-.53.885-.996.885-1.263 0-.128-.04-.218-.077-.266l-.05-.045-.016-.007v-.006l.002.006h-.002v-.006l.002.006-.004.003-.338-.492h-.001zm13.193 44.9s.447 1.161 2.455 2.043c1.574.695 4.106 1.217 8.142.885.498-.041 1.022-.098 1.57-.164 1.457-2.3-2.615-3.647-2.615-3.647s-5.834-.048-8.333-2.472c-1.06 2.173-1.219 3.355-1.219 3.355z" clip-rule="evenodd"/>
        <path fill="#2B5F53" fill-rule="evenodd" d="M128.08 39.899c.292.258.615.518.963.776 2.376 1.782 5.819 3.486 7.891 3.434 2.371-.06.978-7.137.978-7.137l-4.714-2.007-1.229-.521s-1.805 5.268-3.888 5.455" clip-rule="evenodd"/>
        <path fill="#EB8D44" fill-rule="evenodd" d="M138.282 54.936c.079.105.161.209.244.31 1.997 2.535 3.634 4.959 4.971 7.882.948 2.064 1.574 4.346 2.106 6.58.109.451.214.9.315 1.343 1.019 4.436 2.342 10.212.802 14.683-.218.625-.419 1.238-.612 1.837-.55 1.705-1.003 3.279-1.359 4.613-.652 2.479-.956 4.127-.863 4.22.166.161 12.951 3.382 12.013-.719-.149-.656-.198-1.339-.186-2.036.021-1.462.322-2.971.542-4.336.473-2.863 1.087-5.705 1.686-8.541.645-3.047 1.173-5.93.937-9.065-.229-3.035-.978-6.089-1.858-8.937-1.027-3.322-2.6-6.48-4.627-9.31-2.304-3.218-5.696-5.434-7.895-8.71-1.424-2.126-2.807-4.653-3.399-7.167-.115-.5-.958-.667-1.333-.342-.374.324-.682-.14-1.173-.395-.491-.258-.948-.094-.91.256.138 1.443-.881 4.475-1.922 6.615-2.381 4.9-.203 7.718 2.521 11.22" clip-rule="evenodd"/>
        <path fill="#2B5F53" fill-rule="evenodd" d="M123.302 99.413c2.905 5.779 18.734 14.542 25.385 15.007 6.65.467 13.582-4.38 11.975-14.634-.495-3.162-2.439-5.037-4.949-6.137-3.339-1.462-7.681-1.551-10.964-1.465-2.255.064-4.005.209-4.586.052-2.061-.56-1.03-1.212.562-1.771 2.323-.84 4.069-1.853 5.384-2.894.192-.6.393-1.212.611-1.837 1.54-4.471.217-10.247-.801-14.684l-.312-1.334c-4.036.331-6.568-.19-8.142-.883-1.274 1.319-4.114 4.452-7.793 9.608-5.058 7.084-9.274 15.194-6.37 20.972" clip-rule="evenodd"/>
        <path fill="#183D34" fill-rule="evenodd" d="M152.013 114.206c-1.623.254-3.278.21-4.86-.152-1.588-.363-3.141-.883-4.654-1.496-1.526-.587-3.014-1.266-4.492-1.971-.738-.352-1.47-.721-2.197-1.096l-1.092-.565-1.085-.58c.682.456 1.384.88 2.088 1.304.712.411 1.43.808 2.157 1.193 1.457.762 2.956 1.443 4.483 2.06 1.536.591 3.106 1.122 4.734 1.432.814.142 1.647.232 2.472.206.827-.03 1.65-.13 2.446-.335zm-5.904-26.635c-1.708 1.25-3.63 2.155-5.625 2.83-.251.088-.502.182-.75.297-.246.12-.493.237-.711.465-.109.094-.219.315-.144.514.071.2.216.281.336.369.253.144.513.24.773.315.122.042.281.076.417.09.139.013.275.021.41.025.269.008.536.005.802 0l1.589-.05c2.112-.106 4.223-.142 6.326-.006 1.052.067 2.1.187 3.134.385 1.038.184 2.059.463 3.047.844-1.92-.91-4.047-1.312-6.158-1.515-2.118-.196-4.248-.158-6.364-.08l-1.583.067c-.263.008-.525.013-.785.009-.265-.008-.502-.014-.739-.095-.248-.068-.489-.156-.695-.272-.092-.06-.188-.133-.2-.19-.017-.05-.009-.113.074-.196.144-.159.382-.285.607-.4.229-.114.47-.214.714-.309.991-.373 1.971-.797 2.904-1.307.926-.517 1.817-1.103 2.621-1.79zm-9.548-17.776c-.541.403-.996.88-1.43 1.374-.425.502-.829 1.021-1.145 1.616.542-.402.996-.878 1.431-1.374.423-.502.828-1.021 1.144-1.616z" clip-rule="evenodd"/>
        <path fill="#F8C553" fill-rule="evenodd" d="M128.079 39.899c.292.258.615.518.964.776 2.44-.39 3.964-5.791 3.964-5.791l-1.038-.44s-1.806 5.268-3.89 5.455zm24.137 10.812c.21.437.48 1.06.659 1.474.241.014.473.014.712-.005l.09-.007c1.99-.146 3.964-1.212 5.348-2.215.152-.112.303-.224.442-.331-.225-.468-.442-.959-.652-1.466l-.004-.003s-3.098 3.098-6.595 2.553" clip-rule="evenodd"/>
        <path fill="#183D34" fill-rule="evenodd" d="M151.591 48.769c.07.619.247 1.2.447 1.77.214.57.454 1.127.801 1.646-.069-.62-.245-1.2-.448-1.772-.214-.568-.453-1.126-.8-1.644" clip-rule="evenodd"/>
        <path fill="#BD6C30" fill-rule="evenodd" d="M140.272 38.868c-.057 2.412.659 4.792 1.668 6.976 1.012 2.196 2.379 4.216 3.898 6.09.751.945 1.606 1.816 2.415 2.694.415.432.793.895 1.187 1.346.375.466.751.931 1.11 1.41.724.952 1.395 1.946 1.994 2.983.604 1.033 1.154 2.103 1.556 3.235-.677-2.314-1.919-4.428-3.307-6.396-.699-.984-1.471-1.917-2.282-2.81l-1.217-1.333c-.4-.445-.787-.902-1.171-1.36-1.531-1.838-2.867-3.84-3.932-5.979-.533-1.069-.979-2.181-1.317-3.327-.344-1.144-.56-2.329-.602-3.53zm-1.451 1.807c-.116.829-.171 1.666-.212 2.502-.028.84-.02 1.678.016 2.518.106 1.674.338 3.373 1.072 4.94.42.774.957 1.405 1.457 2.082.511.665 1.02 1.331 1.554 1.978l1.605 1.936c.549.634 1.092 1.274 1.658 1.893l-3.036-4.005-1.509-2.005c-.486-.674-1.027-1.34-1.395-2.046-.37-.726-.589-1.527-.771-2.331-.172-.809-.259-1.636-.349-2.461-.138-1.659-.158-3.33-.091-5.001" clip-rule="evenodd"/>
        <path fill="#AC6B58" fill-rule="evenodd" d="M145.847 66.588s.404.22 1.818 2.211c4.121-3.45 9.786-8.536 11.907-12.14 1.005-1.704.39-4.366-.547-6.7-1.383 1.002-3.358 2.069-5.348 2.214.882 1.346 1.162 2.83-.037 4.27-2.131 2.553-7.793 10.145-7.793 10.145" clip-rule="evenodd"/>
        <path fill="#AC6B58" fill-rule="evenodd" d="M147.179 69.552s-1.415 2.18-2.513 3.477c-1.096 1.297-2.394 2.093-3.907 1.796-1.513-.297.896-.439 1.846-2.033.95-1.593 1.288-2.312 1.288-2.312s-1.197 1.139-2.262.623c-1.066-.516.958-.17 1.427-2.081.153-.628.868-2.127 2.499-2.377.347-.037 1.416-.323 1.416-.323s.391-.075.491.084c.102.158.478.78.478.78l1.1.101-1.863 2.265" clip-rule="evenodd"/>
        <path fill="#183D34" fill-rule="evenodd" d="M140.332 90.61c-1.114.205-2.186.622-3.165 1.213-.482.304-.949.655-1.319 1.106-.371.44-.641 1.02-.574 1.59.086-.563.415-1.014.792-1.394.385-.38.832-.699 1.299-.986.465-.293.957-.548 1.452-.8.499-.246 1.002-.492 1.515-.729" clip-rule="evenodd"/>
        <path fill="#183D34" fill-rule="evenodd" d="M139.225 91.165c-.273.1-.515.267-.731.46-.216.193-.4.425-.549.68-.145.258-.241.547-.273.842-.039.295.017.597.131.86.04-.289.071-.552.155-.804.084-.248.18-.489.313-.716.259-.46.595-.876.956-1.322" clip-rule="evenodd"/>
        <path fill="#AC6B58" fill-rule="evenodd" d="M148.59 32.098c-.756 1.543-3.49 3.06-5.079 2.825-5.302-.782-3.85-8.208-3.85-8.208.011-.04.028-.081.043-.119.03-.092.066-.183.101-.27 1.271-3.143 3.519-2.81 3.657-2.273 1.234 3.609 4.572 4.676 5.045 4.596.759-.3 1.951.246 2.009 1.274.053 1.026-.815 2.016-1.926 2.175z" clip-rule="evenodd"/>
        <path fill="#854E42" fill-rule="evenodd" d="M146.563 34.06c-.348.182-.707.326-1.07.454-.363.122-.735.217-1.11.268-.376.06-.758.054-1.136.014-.382-.032-.746-.157-1.117-.286.329.207.692.394 1.089.46.391.078.799.096 1.194.035.791-.116 1.548-.441 2.15-.945" clip-rule="evenodd"/>
        <path fill="#F8C553" fill-rule="evenodd" d="M146.403 37.417c0 .187.151.337.339.337.185 0 .338-.15.338-.337 0-.185-.153-.337-.338-.337-.188 0-.339.152-.339.337zm-1.108.6c0 .185.15.337.338.337.186 0 .339-.152.339-.337 0-.187-.153-.337-.339-.337-.188 0-.338.15-.338.337zm-1.376.135c0 .187.15.337.338.337.186 0 .339-.15.339-.337 0-.185-.153-.337-.339-.337-.188 0-.338.152-.338.337zm-1.355-.221c0 .186.151.337.338.337.187 0 .339-.151.339-.337 0-.186-.152-.337-.339-.337-.187 0-.338.151-.338.337zm-1.233-.674c0 .186.153.337.338.337.187 0 .339-.15.339-.337 0-.185-.152-.337-.339-.337-.185 0-.338.151-.338.337z" clip-rule="evenodd"/>
    </g>
    <defs>
        <clipPath id="clip0">
            <path fill="#fff" d="M0 0H210V138H0z"/>
        </clipPath>
    </defs>
</svg>
