<svg xmlns="http://www.w3.org/2000/svg" xmlns:xlink="http://www.w3.org/1999/xlink" width="506" height="392" fill="none" viewBox="0 0 506 392">
    <path fill="#FFECAC" d="M169 112c84.435 11.87 116.265 7 179-75.5C386.5-14.13 470 4.5 506 2v390H109.5C82.836 364.63 73 272.299 73 217.569 73 120.718 116.5 102 169 112z"/>
    <path fill="#E6B927" fill-rule="evenodd" d="M232.888 101.952l.184.19c.059-.118.136-.231.164-.359.008-.043-.105-.118-.164-.177l-.186.346h.002zm7.282 0l.184.19c.056-.118.133-.231.161-.359.01-.043-.105-.118-.161-.177l-.186.346h.002zm10.509.269l-.187.19c.118.059.228.138.35.166.044.011.113-.107.172-.166l-.335-.19zm-39.005 1.607l-.184.189c.115.059.225.139.348.167.043.01.115-.108.171-.167l-.332-.189h-.003zm19.132.266l.184.192c.059-.12.136-.235.164-.358.01-.047-.105-.118-.164-.18l-.184.346zm8.84 0l.187.192c.059-.12.135-.235.161-.358.01-.047-.102-.118-.161-.18-.064.118-.128.233-.184.346h-.003zm1.487-.077c.057.059.128.18.172.167.12-.026.232-.108.347-.167-.056-.059-.128-.179-.171-.166-.123.025-.23.107-.348.166zm11.255 3.561l-.332.19c.054.059.125.177.169.166.122-.028.235-.107.347-.166l-.184-.192v.002zm44.909 6.615c.059.062.128.18.172.17.122-.029.235-.108.35-.17-.059-.059-.128-.176-.171-.166-.123.028-.233.107-.351.166zm1.636 8.496l.186.343c.056-.059.171-.13.161-.174-.025-.128-.102-.241-.161-.359l-.186.19zm-21.212 13.279l-.184.189c.115.059.225.139.348.167.043.01.115-.108.171-.167l-.335-.189zm.409 1.337l.186.192c.059-.12.136-.233.164-.358.008-.047-.105-.118-.164-.18l-.186.346zm-20.616 2.869c.058-.058.173-.133.163-.176-.025-.126-.105-.241-.161-.359-.059.059-.174.131-.163.174.025.128.102.244.161.359v.002zm1.558 4.287c.061-.062.174-.134.166-.18-.028-.123-.105-.238-.163-.358-.059.061-.174.133-.164.179.026.126.105.238.164.359h-.003zm-122.806 25.253l-.184.19c.115.059.225.138.348.166.043.011.115-.107.171-.166l-.332-.19h-.003zm105.407-67.997c.117.197.194.409.255.407.23-.015.455-.103.682-.164-.066-.118-.125-.333-.196-.333-.23-.015-.46.049-.741.09zm52.004 20.67c.286.043.516.107.741.094.074-.005.133-.217.197-.335-.225-.062-.45-.151-.68-.167-.061-.002-.138.213-.255.41l-.003-.002zm-.289 2.808c.1-.159.287-.349.251-.418-.12-.246-.307-.471-.506-.653-.031-.026-.286.212-.435.33l.69.743v-.002zm-37.832 13.109l.317 1.253c.115-.159.32-.315.322-.474.005-.323-.102-.646-.161-.968l-.478.189zm46.425-24.116c0-.348.018-.697-.018-1.04-.008-.079-.291-.22-.314-.195-.478.482.191 1.453-.706 1.771.177.187.328.41.537.538.118.072.473 0 .478-.036.036-.343.02-.692.02-1.038h.003zm-40.298 29.742l.997 1.033c.237-.474.536-.93.664-1.432.033-.134-.565-.633-.672-.574-.342.184-.59.556-.989.973zm18.414-2.165l.314.551c.082-.084.243-.189.23-.246-.071-.269-.191-.522-.291-.781-.074.136-.145.272.304 1.025.077.407-.258 1.025.892.861-.227.281-.363.374-.358.461.008.23.077.461.12.691.113-.03.327-.061.325-.092 0-.289-.041-.576-.46-.85-.077-.405.26-1.025-1.076-1.62zm16.148-24.051l.531-.326c-.081-.082-.184-.251-.237-.235-.261.071-.509.194-.759.299.13.077.263.149.996-.553v.241c.136-.052.284-.077.394-.164.033-.026-.054-.21-.085-.323-.102.082-.204.164-.843 1.061h.003zm-17.19 22.289c-.286-.077-.711-.256-.92-.584-.478-.743-.777-1.614-1.288-2.327-.531-.74-.143-1.962-1.226-2.372.084-.149.138-.346.263-.428.194-.128.8.064.391-.487-.577-.768-1.237-1.47-1.863-2.203l-.518-.538c-.062-.33-.036-.725-.21-.973-.161-.228-2.516-2.657-2.905-3.323-.485-.83-.932-1.676-2.075-1.604-.145.008-.39-.072-.434-.18-.787-1.97-2.693-2.608-4.17-3.758-.255-.197-.587-.543-.575-.802.046-.817-.237-1.483-.953-1.622-.413-.082-.904-1.076-1.389-.087-.787-.612-1.654-1.14-2.338-1.855-.759-.794-.698-.75-1.825-.863-.638-.064-1.234-.584-1.849-.902.268-1.565-.844-1.186-1.613-1.153-1.162.046-2.253-.281-2.859-1.229-.449-.708-.546-1.11-1.16-.231-.396.574-.751.377-1.267.008-1.152-.83-2.361-1.384-3.914-1.343-.93.026-2.164-.515-2.693-1.652-.296-.636-.434-.174-.662 0-.329.256-.562 1.017-1.114.23-.066-.097-.312-.077-.478-.084-3.132-.18-6.27-.346-9.402-.548-.603-.039-1.398-.531-1.753-.282-.69.486-1.331.205-1.98.276-.685.077-1.415-.115-2.072.041-2.121.508-4.305.572-6.444.92-2.276.369-4.522.974-6.827 1.238-1.093.128-2.146.671-3.211 1.032-6.122 2.068-11.907 4.929-17.553 8.065-2.995 1.66-5.902 3.52-8.7 5.508-2.131 1.512-4.011 3.39-6.035 5.071-1.484 1.229-3.033 2.382-4.522 3.607-1.526 1.255-2.504 3.149-4.377 3.997-1.492 2.902-4.612 4.365-6.088 7.291-.154.3-.478.512-.726.763-2.514 2.547-4.451 5.588-6.687 8.365-2.021 2.506-3.671 5.229-5.429 7.894-1.635 2.48-3.168 5.026-4.446 7.737-.881 1.865-1.916 3.653-2.935 5.442-.332.589-.964 1.012-1.247 1.614-.394.837-.958-.128-1.311.248-.485.515-.953.851-1.747.897-.473.031-.982.528-1.61.471-.452-.038-.595-.194-.882-.617-1.114-1.658-.355-3.241.251-4.594 1.142-2.552 2.018-5.229 3.28-7.704 1.73-3.381 3.399-6.794 5.43-10.02 1.431-2.264 3.038-4.406 4.394-6.697.928-1.557 2.382-2.554 3.309-4.083.376-.62 1.048-1.238 1.462-1.868 1.405-2.147 3.198-3.912 5.059-5.557 1.006-.884 1.129-2.395 2.641-2.972 1.107-.42 1.822-1.855 2.806-2.723 2.846-2.514 5.68-5.042 8.625-7.445 2.471-2.017 5.052-3.818 7.663-5.596 1.781-1.212 3.418-2.792 5.284-3.679 2.575-1.224 4.772-3.072 7.427-4.15 2.604-1.056 5.015-2.606 7.53-3.905.424-.217.932-.264 1.402-.392.703-.189 1.572-.179 2.07-.617.623-.551 1.318-.641 1.977-.948.504-.236.818-.579 1.288-.036.056.064.235.018.358.023-.125-1.371 1.086-.697 1.609-1.076.58-.415 1.304-.797 1.981-.845 1.42-.093 2.731-.449 4.016-1.043.164-.077.526.3.797.469 0 .179 0 .356-.345.82-.143.73-.018 1.014.108 1.299.245-.252.62-.469.689-.764.052-.223-.286-.543-.452-.82l-.345.282c.491-.343.634-.4.777-.461l-.432-.359c.391-.594.603-1.591 1.628-.745.079.064.299.087.352.028 1.416-1.542 3.112-.846 4.75-.656.179.02.411.102.542.026.562-.349 1.047-.854 1.643-1.084.408-.159.95.107 1.423.072.651-.052 1.295-.231 1.947-.313.894-.113 1.755.026 2.682-.453.701-.36 1.794.074 2.709.181.23.031.587.31.649.246.613-.678 1.617-.802 2.092-.443.741.556 1.14-.197 1.699-.087.419.08.882.092 1.291-.005.437-.105.7 1.03 1.18.138.184.29.312.692.57.83.204.111.656-.005.853-.187.583-.538 1.055-1.26 1.863-.256.066.08.759-.53 1.014-.43 2.903 1.145 6.038.827 8.983 1.573 2.121.538 4.326.791 6.365 1.599 1.937.768 4.019 1.183 5.779 2.433.373.267.989.162 1.38.415 3.434 2.204 7.205 3.869 10.378 6.454 2.607 2.119 5.052 4.489 7.31 6.994 2.203 2.439 4.088 5.188 6.091 7.814.297.39.644.833.716 1.292.191 1.281.669.924 1.285.343.24-.228.508-.53.797-.577.631-.097.7-.494.447-.883-.127-.198-.608-.149-.93-.213-.306-.656.613-1.156.148-1.988-.204-.369.57-1.276.818-1.973.253-.697.332-1.465.623-2.142.154-.353.583-.594.91-.853.169-.138.394-.205.593-.307-.23-.077-.498-.105-.672-.251-.166-.136-.368-.523-.314-.59.263-.315.608-.558.925-.827-.45-.39-.527-.71-.159-1.317.501-.822 2.095-.664 1.799-2.114-.235-1.153.93-1.527 1.236-2.428.23-.669.075-1.778 1.316-2.147.7-.208 1.109-1.412 1.694-2.127.128-.159.496-.261.67-.187.156.067.27.41.281.636.035.712-.016 1.429.038 2.139.013.148.337.379.511.376.174-.005.455-.246.483-.415.069-.435-.018-.896.036-1.332.035-.307.199-.602.306-.902.35.205.859.323 1.015.631.214.427.212.999.212 1.506-.003.477-.685.897-.026 1.481.12.107-.373.858-.462 1.335-.113.576-.261 1.153-.386 1.696-.335 1.463-.455 2.92-1.106 4.365-.563 1.256-.338 2.865-.626 4.279-.483 2.367-.907 4.773-1.71 7.03-.679 1.914-.845 3.907-1.328 5.841-.519 2.098-.838 4.238-1.441 6.339-.363 1.275-1.058 2.474-1.176 3.776-.127 1.381-.856 2.516-1.098 3.833-.192 1.019-.726 1.87-1.492 2.574-.373.344-.677.451-1.091.077-.103-.097-.389-.084-.532-.01-.613.32-3.441 1.235-3.886 1.327-1.469.31-2.754-.712-4.193-.571-2.248-1.371-4.885-1.589-7.294-2.524-2.3-.894-4.776-1.537-7.103-2.388-1.794-.658-3.669-1.168-5.43-1.993-.932-.435-1.642-1.306-2.935-1.194-.946.085-2.07-.453-2.913-1.022-1.737-1.163-3.666-1.688-5.611-2.221-.386-.105-.799-.466-1.124-.384-1.155.287-1.114-1.317-2.057-1.281.064-.477-.01-1.051.228-1.407.25-.374.784-.561 1.216-.786.148-.077.36-.031.544-.041 0 .266 0 .532-.153 1.05-.051.159.051.077.153-.01l-.23-.239c-.082.106-.171.205-.232.323-.011.018.099.108.311-.077.971-.427 1.439-2.029 2.586-.878.296-.387 1.027-.725.6-1.263-.475-.61-.459-.895-.025-1.538.664-.976.843-1.122 1.814-.438.353.246.843 1.358.971-.164.008-.115.894-.384 1.124-.215 1.574 1.127 3.577.902 5.225 1.929 1.482.923 3.27 1.32 4.921 1.955 2.626 1.012 5.222 2.116 7.89 2.99.792.261 1.482.633 2.22.963.353.157.805.085 1.214.118.02-.487.24-1.137.02-1.414-.465-.582-.248-1.174-.365-1.922.214.072.529.374.845.674.077-.143.259-.358.218-.42-.256-.377-.557-.722-.843-1.076-.062.154-.121.305-.22.82z" clip-rule="evenodd"/>
    <path fill="#D88852" fill-rule="evenodd" d="M380.257 208.518l.498 2.966c-3.949 1.044-6.937 3.084-8.156 2.817-.173-.045-1.872-.112-2.196-1.099-.453-1.382 1.284-3.745 1.828-3.957 2.792-1.096 4.817-.345 8.024-.725l.002-.002z" clip-rule="evenodd"/>
    <path fill="#FFC08D" fill-rule="evenodd" d="M374.236 209.637c-1.331.214-3.35 3.584-4.546 2.762-.956-.666 1.411-2.71 3.097-3.317 2.397-.858 1.449.555 1.449.555" clip-rule="evenodd"/>
    <path fill="#FFC35A" fill-rule="evenodd" d="M405.215 141.172c5.835 2.29-1.035 45.541-12.31 51.024-6.592 3.205-.189-15.892.232-27.844.422-11.951 1.252-27.436 12.078-23.18" clip-rule="evenodd"/>
    <path fill="#FFC35A" fill-rule="evenodd" d="M380.405 211.742c-4.706 3.899-4.458.645-4.665-2.26-.166-2.306 13.087-27.541 15.884-29.166 2.719-1.58 6.843-2.177 8.01 1.199 1.546 4.466-14.757 26.517-19.229 30.227z" clip-rule="evenodd"/>
    <path fill="#FF9332" fill-rule="evenodd" d="M396.346 144.167c1.742-3.203 4.486-4.72 8.868-2.995 4.671 1.834 1.201 29.908-6.155 43.853-2.964 7.763-14.923 23.622-18.654 26.716-1.86 1.543-2.964 1.837-3.605 1.481 24.181-26.895 22.057-62.942 19.546-69.055" clip-rule="evenodd"/>
    <path fill="#FFC08D" fill-rule="evenodd" d="M399.583 250.914c1.474.205 3.953 11.629 4.275 19.522.324 7.891-16.572 39.885-16.572 39.885l-2.44-1.678c3.531-6.228 13.263-57.937 14.737-57.729z" clip-rule="evenodd"/>
    <path fill="#FF9A6E" fill-rule="evenodd" d="M387.501 300.57c4.346-16.294 10.894-49.825 12.082-49.656 1.474.205 3.953 11.629 4.275 19.522.258 6.31-10.496 28.041-14.812 36.483-.324-2.485-.858-4.663-1.545-6.349z" clip-rule="evenodd"/>
    <path fill="#D8B9AF" fill-rule="evenodd" d="M389.123 312.507h-13.828s8.669-5.926 11.873-4.199c2.029 1.096 1.955 4.201 1.955 4.201" clip-rule="evenodd"/>
    <path fill="#FF9A6E" fill-rule="evenodd" d="M435.197 256.048c1.359-.671 11.127 6.792 16.725 12.733 5.601 5.936 13.24 40.272 13.24 40.272l-3.153.072c-1.287-6.823-28.171-52.413-26.812-53.079" clip-rule="evenodd"/>
    <path fill="#D8B9AF" fill-rule="evenodd" d="M467.564 312.507h-10.36s4.9-6.677 7.57-4.433c1.692 1.422 2.79 4.433 2.79 4.433z" clip-rule="evenodd"/>
    <path fill="#FFC35A" fill-rule="evenodd" d="M465.222 303.322c-20.328 10.975-50.257 8.039-78.005-7.11 0 0 12.643-56.883 17.267-66.775 4.625-9.895 15.601-33.601 6.661-47.346-9.249-14.219-13.406-12.546-13.406-12.546s-6.273-26.644-1.339-31.589c4.931-4.945 23.703-15.733 26.892-10.543 4.931 8.04 2.376 23.76 9.974 39.445 5.072 10.468 10.067 11.877 17.464 26.716 8.636 17.319 2.468 68.013 14.492 109.75" clip-rule="evenodd"/>
    <path fill="#772939" fill-rule="evenodd" d="M453.41 202.011c-11.531-31.267-17.27-47.63-17.211-49.093 2.417-61.731-18.023-69.83-29.469-70.414-17.042-.87-21.682 14.873-13.807 47.448.311 1.292-.282 3.718-1.784 7.279l62.273 64.78h-.002z" clip-rule="evenodd"/>
    <path fill="#E2E1DF" fill-rule="evenodd" d="M396.595 84.549c-2.412.55-10.519 5.69-9.536 15.151-.217 2.319 5.634 8.583 1.362 10.343-2.757 1.133 26.092-3.925 22.653 7.766-2.729 9.274 10.245 9.471 12.698 8.295 6.901-3.305 7.121-11.447 4.052-16.063-3.066-4.612-4.601-4.361-4.054-8.609.549-4.245-8.153-16.883-15.407-16.883-7.256 0-9.356-.548-11.768 0z" clip-rule="evenodd"/>
    <path fill="#D88852" fill-rule="evenodd" d="M410 144.582c7.629-2.193 10.266-10.65 7.895-17.468-1.788.313-3.39.653-5.245.897-3.557.446-3.457-8.135-3.457-8.135s-8.483 2.001-11.14 2.434c2.427 6.518 1.416 8.532.777 9.48-.45.661-2.969 1.55-5.013 1.634.991 6.439 10.348 12.836 16.186 11.158" clip-rule="evenodd"/>
    <path fill="#D88852" fill-rule="evenodd" d="M400.598 123.66c-12.402-1.847-9.009-19.353-9.009-19.353.026-.095.067-.192.103-.282.069-.217.012-.597.235-.635 6.714-1.14 9.627-8.98 9.949-7.712 3.577 7.338 9.305 13.374 10.411 13.187 1.776-.705 4.566.581 4.702 3.003.125 2.421-1.909 4.755-4.505 5.129-1.77 3.635-8.166 7.214-11.886 6.661v.002z" clip-rule="evenodd"/>
    <path fill="#B7652E" fill-rule="evenodd" d="M396.526 112.89c1.183 3.394 4.609.684 4.609.684-2.964.289-4.609-.682-4.609-.682" clip-rule="evenodd"/>
    <path fill="#DF3B33" stroke="#979797" d="M400.368 105.767c-1.411 0-2.555-1.147-2.555-2.562 0-1.415 1.144-2.562 2.555-2.562 1.411 0 2.555 1.147 2.555 2.562 0 1.415-1.144 2.562-2.555 2.562z"/>
    <path fill="#F8C553" fill-rule="evenodd" d="M412.07 116.425c0 .651.526 1.179 1.175 1.179s1.175-.528 1.175-1.179-.526-1.178-1.175-1.178-1.175.527-1.175 1.178zm1.047 1.384c.874 0 1.584 3.489 1.584 3.927 0 .438-.71.794-1.584.794-.876 0-1.584-.356-1.584-.794 0-.438.708-3.927 1.584-3.927z" clip-rule="evenodd"/>
    <path fill="#854E42" fill-rule="evenodd" d="M408.362 121.626c-.812.425-1.655.768-2.504 1.065-.85.29-1.717.513-2.598.633-.879.144-1.773.128-2.657.034-.894-.077-1.743-.372-2.614-.674.772.486 1.62.927 2.547 1.083.915.185 1.871.226 2.796.082 1.849-.274 3.62-1.04 5.03-2.226" clip-rule="evenodd"/>
    <path fill="#F8C553" fill-rule="evenodd" d="M401.084 131.413c0 .438.355.794.792.794.437 0 .792-.356.792-.794 0-.438-.355-.794-.792-.794-.437 0-.792.356-.792.794zm3.577 0c0 .438.355.794.792.794.437 0 .792-.356.792-.794 0-.438-.355-.794-.792-.794-.437 0-.792.356-.792.794zm.792 1.768c.874 0 1.584 3.489 1.584 3.928 0 .438-.71.794-1.584.794-.876 0-1.584-.356-1.584-.794 0-.439.708-3.928 1.584-3.928zm2.964-3.202c0 .44.358.794.795.794.436 0 .792-.354.792-.794 0-.436-.356-.795-.792-.795-.44 0-.792.359-.792.795h-.003zm1.865-2.101c0 .44.355.794.792.794.437 0 .792-.354.792-.794 0-.436-.355-.795-.792-.795-.437 0-.792.359-.792.795z" clip-rule="evenodd"/>
    <path fill="#FF9332" fill-rule="evenodd" d="M407.931 177.503c-4.752-6.267-15.862-6.267-9.939-17.755 4.714-1.921 12.928 2.644 17.221-.845 1.967-1.594 5.271-3.864 5.932-8.693 1.038-7.548-1.566-16.714-1.865-24.139 1.876-.164 3.314.21 4.012 1.342 4.931 8.04 2.376 23.76 9.974 39.445 5.072 10.468 10.067 11.877 17.464 26.716 8.636 17.319 2.468 68.013 14.492 109.75-6.743 3.638-14.546 5.739-22.97 6.38-5.238-28.705 2.381-78.133-4.292-102.147 3.595-17.306-19.257-48.531-30.029-30.054z" clip-rule="evenodd"/>
    <path fill="#FFC35A" fill-rule="evenodd" d="M421.135 125.961c6.109-.446 22.982 38.422 16.357 47.558-3.866 5.337-8.483-13.189-14.387-23.332-5.905-10.146-13.319-23.401-1.973-24.226" clip-rule="evenodd"/>
    <path fill="#FFC35A" fill-rule="evenodd" d="M420.21 205.223c-1.04-.919-2.504-1.706-4.221-2.19l.01-.126c.189-1.983 14.139-32.69 13.47-37.84-.442-3.377 7.599 1.614 9.001 4.783 1.84 4.161-13.886 31.559-18.26 35.373" clip-rule="evenodd"/>
    <path fill="#FF9332" fill-rule="evenodd" d="M436.079 172.217c2.997-12.254-11.83-45.398-17.476-44.988-.302.023-.583.059-.859.097.93-.666 2.236-1.089 3.986-1.217 5.647-.41 20.476 32.735 17.476 44.989-.299 6.522-14.31 30.705-18.398 34.274-.378-.336-.828-.643-1.314-.935 5.376-6.951 16.322-26.46 16.585-32.22z" clip-rule="evenodd"/>
    <path fill="#D88852" fill-rule="evenodd" d="M413.066 210.153c.781-2.906 3.449-5.524 5.051-8.34l2.675 1.361c-1.507 3.804-1.648 7.43-2.586 8.249-.332.282-5.401-.302-5.138-1.27" clip-rule="evenodd"/>
    <path fill="#D88852" fill-rule="evenodd" d="M418.781 210.012c-.36 1.255-.429 4.714-.991 4.698-.892-.036-.595-2.69-.473-4.291.179-2.162 1.464-.41 1.464-.41v.003zm-4.07.059c-.554 1.211-1.862 5.139-2.511 5.021-1.153-.205.449-4.509 1.108-5.739 1.02-1.903 1.403.718 1.403.718zm.159-1.95c-.946-1.609-4.538.082-4.794-1.348-.204-1.153 4.272-.633 6.452-2.449 1.985-.81-1.658 3.797-1.658 3.797zm1.665 2.623c-.378 1.256-1.364 5.437-1.962 5.416-.978-.03.13-4.253.429-5.61.471-2.114 1.533.194 1.533.194" clip-rule="evenodd"/>
    <path fill="#FF9332" fill-rule="evenodd" d="M420.867 205.843l-5.363-2.803 3.127-7.839c3.258.661 5.026 1.55 7.039 4.478l-4.803 6.164z" clip-rule="evenodd"/>
    <path fill="#FFC35A" fill-rule="evenodd" d="M419.078 202.369c0-.804.575-1.457 1.285-1.457.711 0 1.285.653 1.285 1.457 0 .805-.574 1.456-1.285 1.456-.71 0-1.285-.651-1.285-1.456z" clip-rule="evenodd"/>
    <path fill="#FF9332" fill-rule="evenodd" d="M418.718 260.314l1.645 10.555 3.631 38.033s-11.577-.605-24.387-6.877l14.165-42.134c.449-1.34 1.901-2.06 3.237-1.609.902.307 1.558 1.089 1.709 2.032z" clip-rule="evenodd"/>
    <path fill="#FFC35A" fill-rule="evenodd" d="M432.223 210.173l7.821 17.703s1.341-25.768-4.691-36.969l-3.13 19.266" clip-rule="evenodd"/>
    <path fill="#9E3E52" fill-rule="evenodd" d="M408.415 82.786c-12.315 1.952-18.472 9.016-18.472 21.188-.419 12.41 2.754 20.378 9.52 23.903.695 1.512.419 2.908-.823 4.191-1.244 1.281-3.743 2.747-7.502 4.394 1.797-3.243 2.389-5.669 1.784-7.276-2.65-7.02-7.875-15.525-7.875-27.808 1.446-13.117 9.237-19.317 23.371-18.594l-.003.002z" clip-rule="evenodd"/>
    <path fill="#E2E1DF" fill-rule="evenodd" d="M390.271 110.043c-.606.167-1.224.167-1.85 0 .478-.343.851-.869 1.122-1.578.268-.712.411-1.555.434-2.531.802 2.572.902 3.94.294 4.109z" clip-rule="evenodd"/>
    <path fill="#9E3E52" fill-rule="evenodd" d="M391.142 136.462c3.281 3.848 4.998 10.44 5.151 19.771.153 9.333 5.342 18.116 15.57 26.353 1.53 8.913 1.684 16.665.46 23.257-1.221 6.592-4.706 16.789-10.45 30.59 3.643 1.973 5.951 4.522 6.924 7.645 1.431 4.591 7.88.508 9.982 5.901 4.87 12.484 12.001 18.018 21.391 16.601l17.034-13.763c-.802-24.982-2.345-42.285-4.635-51.905-1.267-5.34-3.495-6.431-6.226-11.153-.971-1.68-17.74-8.093-22.349-23.26-1.543-5.078-9.785-16.556-24.727-34.433l-8.125 4.394v.002z" clip-rule="evenodd"/>
    <path fill="#772939" fill-rule="evenodd" d="M406.73 178.031c-4.752-6.265-12.928-6.943-9.977-19.126 4.716-1.921 16.927 1.056 21.224-2.434 1.965-1.593 3.955 6.867 9.326 16.594.409.733.761 1.584 1.201 2.042 10.506 10.914 15.153 4.279 22.228 18.467 3.327 6.669 5.483 26.829 6.472 60.471-11.273 12.932-16.863 17.196-16.776 12.786.439-22.291-1.418-43.133-2.468-59.271-1.05-16.141-20.458-48.007-31.23-29.529z" clip-rule="evenodd"/>
    <path stroke="#8E8669" stroke-linecap="round" stroke-width=".96" d="M86.571 314.6H505.33"/>
    <g filter="url(#filter0_d)">
        <path fill="url(#paint0_linear)" d="M379.914 204.916h-71.131c-1.524 0-2.76 1.239-2.76 2.767v5.534c0 1.528 1.236 2.767 2.76 2.767h71.131c1.524 0 2.759-1.239 2.759-2.767v-5.534c0-1.528-1.235-2.767-2.759-2.767z"/>
        <path fill="url(#paint1_linear)" fill-opacity=".8" d="M379.914 204.916h-71.131c-1.524 0-2.76 1.239-2.76 2.767v5.534c0 1.528 1.236 2.767 2.76 2.767h71.131c1.524 0 2.759-1.239 2.759-2.767v-5.534c0-1.528-1.235-2.767-2.759-2.767z"/>
        <path fill="url(#paint2_linear)" fill-rule="evenodd" d="M306.023 207.375h76.65v6.149h-76.65v-6.149z" clip-rule="evenodd"/>
        <path fill="#fff" fill-opacity=".34" fill-rule="evenodd" d="M364.277 207.375h6.132v6.149h-6.132v-6.149zm-9.198 0h6.132v6.149h-6.132v-6.149zm-39.858 0h12.264v6.149h-12.264v-6.149z" clip-rule="evenodd"/>
        <path fill="url(#paint3_linear)" d="M386.045 215.677h-71.131c-1.524 0-2.76 1.239-2.76 2.767v5.534c0 1.528 1.236 2.767 2.76 2.767h71.131c1.524 0 2.759-1.239 2.759-2.767v-5.534c0-1.528-1.235-2.767-2.759-2.767z"/>
        <path fill="url(#paint4_linear)" fill-opacity=".8" d="M386.045 215.677h-71.131c-1.524 0-2.76 1.239-2.76 2.767v5.534c0 1.528 1.236 2.767 2.76 2.767h71.131c1.524 0 2.759-1.239 2.759-2.767v-5.534c0-1.528-1.235-2.767-2.759-2.767z"/>
        <path fill="url(#paint5_linear)" fill-rule="evenodd" d="M312.154 218.136h76.65v6.149h-76.65v-6.149z" clip-rule="evenodd"/>
        <path fill="#fff" fill-opacity=".34" fill-rule="evenodd" d="M370.408 218.136h6.132v6.149h-6.132v-6.149zm-9.198 0h6.132v6.149h-6.132v-6.149zm-39.858 0h12.264v6.149h-12.264v-6.149z" clip-rule="evenodd"/>
        <path fill="url(#paint6_linear)" d="M379.914 224.899h-71.131c-1.524 0-2.76 1.239-2.76 2.767v5.534c0 1.528 1.236 2.767 2.76 2.767h71.131c1.524 0 2.759-1.239 2.759-2.767v-5.534c0-1.528-1.235-2.767-2.759-2.767z"/>
        <path fill="url(#paint7_linear)" fill-opacity=".8" d="M379.914 224.899h-71.131c-1.524 0-2.76 1.239-2.76 2.767v5.534c0 1.528 1.236 2.767 2.76 2.767h71.131c1.524 0 2.759-1.239 2.759-2.767v-5.534c0-1.528-1.235-2.767-2.759-2.767z"/>
        <path fill="url(#paint8_linear)" fill-rule="evenodd" d="M306.023 227.359h76.65v6.149h-76.65v-6.149z" clip-rule="evenodd"/>
        <path fill="#fff" fill-opacity=".34" fill-rule="evenodd" d="M364.277 227.359h6.132v6.149h-6.132v-6.149zm-9.198 0h6.132v6.149h-6.132v-6.149zm-39.858 0h12.264v6.149h-12.264v-6.149z" clip-rule="evenodd"/>
        <path fill="url(#paint9_linear)" d="M382.979 234.123h-71.131c-1.524 0-2.759 1.238-2.759 2.766v5.534c0 1.528 1.235 2.767 2.759 2.767h71.131c1.524 0 2.76-1.239 2.76-2.767v-5.534c0-1.528-1.236-2.766-2.76-2.766z"/>
        <path fill="url(#paint10_linear)" fill-opacity=".8" d="M382.979 234.123h-71.131c-1.524 0-2.759 1.238-2.759 2.766v5.534c0 1.528 1.235 2.767 2.759 2.767h71.131c1.524 0 2.76-1.239 2.76-2.767v-5.534c0-1.528-1.236-2.766-2.76-2.766z"/>
        <path fill="url(#paint11_linear)" fill-rule="evenodd" d="M309.089 236.582h76.65v6.149h-76.65v-6.149z" clip-rule="evenodd"/>
        <path fill="#fff" fill-opacity=".34" fill-rule="evenodd" d="M367.342 236.582h6.132v6.149h-6.132v-6.149zm-9.198 0h6.132v6.149h-6.132v-6.149zm-39.858 0h12.264v6.149h-12.264v-6.149z" clip-rule="evenodd"/>
        <path fill="url(#paint12_linear)" d="M379.914 243.346h-71.131c-1.524 0-2.76 1.239-2.76 2.767v5.534c0 1.528 1.236 2.766 2.76 2.766h71.131c1.524 0 2.759-1.238 2.759-2.766v-5.534c0-1.528-1.235-2.767-2.759-2.767z"/>
        <path fill="url(#paint13_linear)" fill-opacity=".8" d="M379.914 243.346h-71.131c-1.524 0-2.76 1.239-2.76 2.767v5.534c0 1.528 1.236 2.766 2.76 2.766h71.131c1.524 0 2.759-1.238 2.759-2.766v-5.534c0-1.528-1.235-2.767-2.759-2.767z"/>
        <path fill="url(#paint14_linear)" fill-rule="evenodd" d="M306.023 245.805h76.65v6.149h-76.65v-6.149z" clip-rule="evenodd"/>
        <path fill="#fff" fill-opacity=".34" fill-rule="evenodd" d="M364.277 245.805h6.132v6.149h-6.132v-6.149zm-9.198 0h6.132v6.149h-6.132v-6.149zm-39.858 0h12.264v6.149h-12.264v-6.149z" clip-rule="evenodd"/>
        <path fill="url(#paint15_linear)" d="M382.979 252.569h-71.131c-1.524 0-2.759 1.239-2.759 2.767v5.534c0 1.528 1.235 2.767 2.759 2.767h71.131c1.524 0 2.76-1.239 2.76-2.767v-5.534c0-1.528-1.236-2.767-2.76-2.767z"/>
        <path fill="url(#paint16_linear)" fill-opacity=".8" d="M382.979 252.569h-71.131c-1.524 0-2.759 1.239-2.759 2.767v5.534c0 1.528 1.235 2.767 2.759 2.767h71.131c1.524 0 2.76-1.239 2.76-2.767v-5.534c0-1.528-1.236-2.767-2.76-2.767z"/>
        <path fill="url(#paint17_linear)" fill-rule="evenodd" d="M309.089 255.028h76.65v6.149h-76.65v-6.149z" clip-rule="evenodd"/>
        <path fill="#fff" fill-opacity=".34" fill-rule="evenodd" d="M367.342 255.028h6.132v6.149h-6.132v-6.149zm-9.198 0h6.132v6.149h-6.132v-6.149zm-39.858 0h12.264v6.149h-12.264v-6.149z" clip-rule="evenodd"/>
        <path fill="url(#paint18_linear)" d="M379.914 261.792h-71.131c-1.524 0-2.76 1.239-2.76 2.767v5.534c0 1.528 1.236 2.767 2.76 2.767h71.131c1.524 0 2.759-1.239 2.759-2.767v-5.534c0-1.528-1.235-2.767-2.759-2.767z"/>
        <path fill="url(#paint19_linear)" fill-opacity=".8" d="M379.914 261.792h-71.131c-1.524 0-2.76 1.239-2.76 2.767v5.534c0 1.528 1.236 2.767 2.76 2.767h71.131c1.524 0 2.759-1.239 2.759-2.767v-5.534c0-1.528-1.235-2.767-2.759-2.767z"/>
        <path fill="url(#paint20_linear)" fill-rule="evenodd" d="M306.023 264.252h76.65v6.149h-76.65v-6.149z" clip-rule="evenodd"/>
        <path fill="#fff" fill-opacity=".34" fill-rule="evenodd" d="M364.277 264.252h6.132v6.149h-6.132v-6.149zm-9.198 0h6.132v6.149h-6.132v-6.149zm-39.858 0h12.264v6.149h-12.264v-6.149z" clip-rule="evenodd"/>
        <path fill="url(#paint21_linear)" d="M386.045 271.015h-71.131c-1.524 0-2.76 1.239-2.76 2.767v5.534c0 1.528 1.236 2.767 2.76 2.767h71.131c1.524 0 2.759-1.239 2.759-2.767v-5.534c0-1.528-1.235-2.767-2.759-2.767z"/>
        <path fill="url(#paint22_linear)" fill-opacity=".8" d="M386.045 271.015h-71.131c-1.524 0-2.76 1.239-2.76 2.767v5.534c0 1.528 1.236 2.767 2.76 2.767h71.131c1.524 0 2.759-1.239 2.759-2.767v-5.534c0-1.528-1.235-2.767-2.759-2.767z"/>
        <path fill="url(#paint23_linear)" fill-rule="evenodd" d="M312.154 273.475h76.65v6.148h-76.65v-6.148z" clip-rule="evenodd"/>
        <path fill="#fff" fill-opacity=".34" fill-rule="evenodd" d="M370.408 273.475h6.132v6.148h-6.132v-6.148zm-9.198 0h6.132v6.148h-6.132v-6.148zm-39.858 0h12.264v6.148h-12.264v-6.148z" clip-rule="evenodd"/>
        <path fill="url(#paint24_linear)" d="M379.914 280.238h-71.131c-1.524 0-2.76 1.239-2.76 2.767v5.534c0 1.528 1.236 2.767 2.76 2.767h71.131c1.524 0 2.759-1.239 2.759-2.767v-5.534c0-1.528-1.235-2.767-2.759-2.767z"/>
        <path fill="url(#paint25_linear)" fill-opacity=".8" d="M379.914 280.238h-71.131c-1.524 0-2.76 1.239-2.76 2.767v5.534c0 1.528 1.236 2.767 2.76 2.767h71.131c1.524 0 2.759-1.239 2.759-2.767v-5.534c0-1.528-1.235-2.767-2.759-2.767z"/>
        <path fill="url(#paint26_linear)" fill-rule="evenodd" d="M306.023 282.698h76.65v6.149h-76.65v-6.149z" clip-rule="evenodd"/>
        <path fill="#fff" fill-opacity=".34" fill-rule="evenodd" d="M364.277 282.698h6.132v6.149h-6.132v-6.149zm-9.198 0h6.132v6.149h-6.132v-6.149zm-39.858 0h12.264v6.149h-12.264v-6.149z" clip-rule="evenodd"/>
        <path fill="url(#paint27_linear)" d="M376.848 291.307h-71.132c-1.524 0-2.759 1.238-2.759 2.767v5.533c0 1.529 1.235 2.767 2.759 2.767h71.132c1.524 0 2.759-1.238 2.759-2.767v-5.533c0-1.529-1.235-2.767-2.759-2.767z"/>
        <path fill="url(#paint28_linear)" fill-opacity=".8" d="M376.848 291.307h-71.132c-1.524 0-2.759 1.238-2.759 2.767v5.533c0 1.529 1.235 2.767 2.759 2.767h71.132c1.524 0 2.759-1.238 2.759-2.767v-5.533c0-1.529-1.235-2.767-2.759-2.767z"/>
        <path fill="url(#paint29_linear)" fill-rule="evenodd" d="M302.957 293.766h76.65v6.149h-76.65v-6.149z" clip-rule="evenodd"/>
        <path fill="#fff" fill-opacity=".34" fill-rule="evenodd" d="M361.21 293.766h6.132v6.149h-6.132v-6.149zm-9.198 0h6.132v6.149h-6.132v-6.149zm-39.858 0h12.264v6.149h-12.264v-6.149z" clip-rule="evenodd"/>
        <path fill="url(#paint30_linear)" d="M386.045 301.144h-71.131c-1.524 0-2.76 1.239-2.76 2.767v5.534c0 1.528 1.236 2.767 2.76 2.767h71.131c1.524 0 2.759-1.239 2.759-2.767v-5.534c0-1.528-1.235-2.767-2.759-2.767z"/>
        <path fill="url(#paint31_linear)" fill-opacity=".8" d="M386.045 301.144h-71.131c-1.524 0-2.76 1.239-2.76 2.767v5.534c0 1.528 1.236 2.767 2.76 2.767h71.131c1.524 0 2.759-1.239 2.759-2.767v-5.534c0-1.528-1.235-2.767-2.759-2.767z"/>
        <path fill="url(#paint32_linear)" fill-rule="evenodd" d="M312.154 303.604h76.65v6.148h-76.65v-6.148z" clip-rule="evenodd"/>
        <path fill="#fff" fill-opacity=".34" fill-rule="evenodd" d="M370.408 303.604h6.132v6.148h-6.132v-6.148zm-9.198 0h6.132v6.148h-6.132v-6.148zm-39.858 0h12.264v6.148h-12.264v-6.148z" clip-rule="evenodd"/>
    </g>
    <path stroke="#8999BF" stroke-width=".854" d="M263.97 311.213c27.255 0 49.35-22.155 49.35-49.485s-22.095-49.485-49.35-49.485c-27.255 0-49.35 22.155-49.35 49.485s22.095 49.485 49.35 49.485z"/>
    <path fill="url(#paint33_linear)" d="M265.393 310.834c27.78 0 50.3-22.582 50.3-50.438s-22.52-50.438-50.3-50.438c-27.78 0-50.3 22.582-50.3 50.438s22.52 50.438 50.3 50.438z"/>
    <path fill="url(#paint34_linear)" d="M265.204 307.026c25.683 0 46.503-20.877 46.503-46.63 0-25.754-20.82-46.631-46.503-46.631S218.7 234.642 218.7 260.396c0 25.753 20.821 46.63 46.504 46.63z"/>
    <mask id="o6q6eom15a" width="79" height="80" x="226" y="221" maskUnits="userSpaceOnUse">
        <path fill="#fff" d="M265.396 300.363c21.752 0 39.385-17.682 39.385-39.493 0-21.811-17.633-39.493-39.385-39.493s-39.385 17.682-39.385 39.493c0 21.811 17.633 39.493 39.385 39.493z"/>
    </mask>
    <g mask="url(#o6q6eom15a)">
        <path fill="url(#paint35_linear)" d="M265.396 300.363c21.752 0 39.385-17.682 39.385-39.493 0-21.811-17.633-39.493-39.385-39.493s-39.385 17.682-39.385 39.493c0 21.811 17.633 39.493 39.385 39.493z"/>
        <path fill="url(#paint36_linear)" fill-opacity=".2" fill-rule="evenodd" d="M284.303 221.377l-60.954 53.456 7.539 13.888 57.388-61.311-3.973-6.033z" clip-rule="evenodd"/>
        <path fill="url(#paint37_linear)" fill-opacity=".2" fill-rule="evenodd" d="M297.411 233.114l-26.932 70.764-33.889-11.869 53.135-63.883 7.686 4.988z" clip-rule="evenodd"/>
    </g>
    <path stroke="url(#paint38_linear)" stroke-width="1.486" d="M265.393 308.93c26.732 0 48.402-21.729 48.402-48.534s-21.67-48.534-48.402-48.534-48.402 21.729-48.402 48.534 21.67 48.534 48.402 48.534z"/>
    <path stroke="url(#paint39_linear)" stroke-width="2.972" d="M265.483 217.432c-23.587 0-42.707 19.172-42.707 42.823s19.12 42.824 42.707 42.824c23.586 0 42.706-19.173 42.706-42.824s-19.12-42.823-42.706-42.823z"/>
    <path fill="url(#paint40_linear)" d="M283.674 278.048c-.861 2.982-2.412 5.741-4.65 7.711-3.641 3.203-8.159 4.806-13.552 4.806-2.489 0-4.977-.386-7.466-1.16-2.486-.776-5.11-1.922-6.919-3.023l.092.054.486-1.051c1.803 1.102 4.343 2.268 6.829 3.041 2.489.774 4.977 1.161 7.463 1.161 5.396 0 10.522-2.642 14.163-5.847 1.584-1.393 2.708-3.32 3.474-5.459l.08-.233zm-37.49-8.949l1.342 1.396.076.248.473 16.738h2.545l-.621 1.468h-3.265l-.276-10.279-.276-9.571h.002z"/>
    <path fill="#9EA9C2" d="M265.544 289.405c5.394 0 9.914-1.604 13.552-4.806 3.641-3.203 5.46-7.276 5.46-12.213 0-2.075-.281-3.894-.843-5.457-.562-1.561-1.434-2.998-2.614-4.312-1.073-1.153-2.335-2.165-3.789-3.033-1.456-.866-2.966-1.64-4.538-2.324-1.729-.761-3.515-1.476-5.363-2.147-1.847-.669-3.725-1.463-5.636-2.383-2.146-1.025-3.784-2.331-4.911-3.92-1.124-1.588-1.689-3.592-1.689-6.007 0-2.311.877-4.266 2.632-5.867 1.755-1.604 3.876-2.404 6.362-2.404 2.358 0 4.349.451 5.974 1.358 1.622.907 2.997 2.122 4.123 3.643 1.153 1.576 2.09 3.336 2.811 5.278.718 1.947 1.367 3.981 1.942 6.108h3.183l-.314-18.554h-3.143l-1.609 2.68c-1.679-1.051-3.531-1.973-5.56-2.759-2.031-.787-4.328-1.182-6.893-1.182-2.254 0-4.418.387-6.482 1.164-2.07.773-3.864 1.844-5.384 3.21-1.597 1.442-2.828 3.082-3.692 4.924-.863 1.837-1.298 3.82-1.298 5.946 0 3.705.871 6.705 2.614 9.003 1.743 2.296 4.183 4.156 7.325 5.572 1.6.736 3.498 1.517 5.698 2.345 2.197.827 4.152 1.583 5.851 2.264 2.491 1 4.361 2.462 5.621 4.392 1.254 1.931 1.883 4.012 1.883 6.243 0 1.525-.202 2.87-.608 4.038-.406 1.168-1.027 2.188-1.865 3.054-.838.866-1.932 1.537-3.281 2.008-1.349.474-2.926.71-4.734.71-2.41 0-4.523-.461-6.345-1.378-1.819-.92-3.41-2.152-4.772-3.705-1.441-1.652-2.599-3.433-3.475-5.337-.879-1.903-1.645-4.037-2.3-6.399h-3.183l.552 19.143h3.142l1.687-2.875c1.809 1.102 3.957 2.042 6.443 2.816 2.489.774 4.978 1.163 7.466 1.163z"/>
    <g filter="url(#filter1_i)">
        <path fill="#000" d="M265.544 289.405c5.394 0 9.914-1.604 13.552-4.806 3.641-3.203 5.46-7.276 5.46-12.213 0-2.075-.281-3.894-.843-5.457-.562-1.561-1.434-2.998-2.614-4.312-1.073-1.153-2.335-2.165-3.789-3.033-1.456-.866-2.966-1.64-4.538-2.324-1.729-.761-3.515-1.476-5.363-2.147-1.847-.669-3.725-1.463-5.636-2.383-2.146-1.025-3.784-2.331-4.911-3.92-1.124-1.588-1.689-3.592-1.689-6.007 0-2.311.877-4.266 2.632-5.867 1.755-1.604 3.876-2.404 6.362-2.404 2.358 0 4.349.451 5.974 1.358 1.622.907 2.997 2.122 4.123 3.643 1.153 1.576 2.09 3.336 2.811 5.278.718 1.947 1.367 3.981 1.942 6.108h3.183l-.314-18.554h-3.143l-1.609 2.68c-1.679-1.051-3.531-1.973-5.56-2.759-2.031-.787-4.328-1.182-6.893-1.182-2.254 0-4.418.387-6.482 1.164-2.07.773-3.864 1.844-5.384 3.21-1.597 1.442-2.828 3.082-3.692 4.924-.863 1.837-1.298 3.82-1.298 5.946 0 3.705.871 6.705 2.614 9.003 1.743 2.296 4.183 4.156 7.325 5.572 1.6.736 3.498 1.517 5.698 2.345 2.197.827 4.152 1.583 5.851 2.264 2.491 1 4.361 2.462 5.621 4.392 1.254 1.931 1.883 4.012 1.883 6.243 0 1.525-.202 2.87-.608 4.038-.406 1.168-1.027 2.188-1.865 3.054-.838.866-1.932 1.537-3.281 2.008-1.349.474-2.926.71-4.734.71-2.41 0-4.523-.461-6.345-1.378-1.819-.92-3.41-2.152-4.772-3.705-1.441-1.652-2.599-3.433-3.475-5.337-.879-1.903-1.645-4.037-2.3-6.399h-3.183l.552 19.143h3.142l1.687-2.875c1.809 1.102 3.957 2.042 6.443 2.816 2.489.774 4.978 1.163 7.466 1.163z"/>
    </g>
    <path fill="#fff" d="M265.112 311.218c27.886 0 50.492-22.668 50.492-50.63 0-27.962-22.606-50.63-50.492-50.63-27.886 0-50.492 22.668-50.492 50.63 0 27.962 22.606 50.63 50.492 50.63z" opacity=".3"/>
    <path fill="url(#pattern0)" d="M197.373 130.619H8.943c-3.529 0-6.388 2.867-6.388 6.405v105.681c0 3.538 2.86 6.405 6.387 6.405h188.431c3.528 0 6.388-2.867 6.388-6.405V137.024c0-3.538-2.86-6.405-6.388-6.405z"/>
    <path fill="#000" fill-opacity=".4" d="M197.373 130.619H8.943c-3.529 0-6.388 2.867-6.388 6.405v105.681c0 3.538 2.86 6.405 6.387 6.405h188.431c3.528 0 6.388-2.867 6.388-6.405V137.024c0-3.538-2.86-6.405-6.388-6.405z"/>
    <path fill="#E6B927" d="M194.946 265.123H8.559c-1.764 0-3.194-1.434-3.194-3.203s1.43-3.202 3.194-3.202h186.387c1.764 0 3.194 1.433 3.194 3.202s-1.43 3.203-3.194 3.203z"/>
    <path fill="#A3A7B8" d="M194.946 265.123h-45.479c-1.764 0-3.194-1.434-3.194-3.203s1.43-3.202 3.194-3.202h45.479c1.764 0 3.194 1.433 3.194 3.202s-1.43 3.203-3.194 3.203z"/>
    <path fill="#fff" d="M104.755 210.68c12.347 0 22.356-10.036 22.356-22.417 0-12.381-10.009-22.417-22.356-22.417-12.347 0-22.357 10.036-22.357 22.417 0 12.381 10.01 22.417 22.357 22.417z"/>
    <path fill="#34364C" fill-rule="evenodd" d="M105.333 181.492l6.489 4.88c1.043.784 1.252 2.265.473 3.311-.135.179-.294.338-.473.471l-6.489 4.881c-1.043.784-2.52.571-3.299-.472-.306-.41-.472-.907-.472-1.419v-9.761c0-1.307 1.055-2.362 2.358-2.362.511 0 1.004.163 1.413.471z" clip-rule="evenodd"/>
    <path fill="#E6B927" d="M146.274 271.528c5.291 0 9.581-4.302 9.581-9.608 0-5.306-4.29-9.607-9.581-9.607-5.292 0-9.582 4.301-9.582 9.607 0 5.306 4.29 9.608 9.582 9.608z"/>
    <path fill="#fff" d="M17.198 224.805h-4.873v-.967l2.3-2.451c.316-.345.549-.646.698-.904.153-.257.23-.501.23-.732 0-.316-.08-.563-.24-.742-.159-.183-.387-.274-.683-.274-.32 0-.571.111-.757.332-.182.218-.273.507-.273.865h-1.416c0-.433.102-.829.307-1.187.209-.358.502-.638.88-.84.377-.205.805-.307 1.283-.307.733 0 1.3.175 1.704.527.407.352.61.848.61 1.489 0 .352-.09.71-.273 1.074-.182.365-.494.79-.937 1.275l-1.616 1.704h3.056v1.138zm.996-.694c0-.224.075-.407.225-.547.153-.14.343-.21.571-.21.231 0 .422.07.572.21.152.14.229.323.229.547 0 .222-.075.402-.225.542-.15.137-.341.205-.576.205-.23 0-.421-.068-.571-.205-.15-.14-.225-.32-.225-.542zm0-3.999c0-.224.075-.407.225-.547.153-.14.343-.21.571-.21.231 0 .422.07.572.21.152.14.229.323.229.547 0 .222-.075.402-.225.542-.15.137-.341.205-.576.205-.23 0-.421-.068-.571-.205-.15-.14-.225-.32-.225-.542zm6.123 4.693h-1.41v-5.44l-1.685.523v-1.148l2.944-1.054h.151v7.119zm2.525-3.496l.41-3.614h3.984v1.177H28.41l-.176 1.528c.336-.179.692-.268 1.07-.268.677 0 1.207.21 1.591.63.385.42.577 1.007.577 1.762 0 .459-.098.871-.293 1.236-.192.361-.469.643-.83.844-.362.199-.788.298-1.28.298-.43 0-.828-.086-1.196-.258-.368-.176-.66-.422-.874-.738-.212-.316-.324-.675-.337-1.079h1.397c.029.296.131.527.307.694.18.162.412.244.699.244.319 0 .564-.114.737-.342.172-.231.259-.557.259-.977 0-.403-.1-.713-.298-.927-.199-.215-.48-.323-.845-.323-.335 0-.607.088-.815.264l-.137.127-1.123-.278zm6.035 4.106h-1.05l2.617-7.72h1.05l-2.617 7.72zm8.11-.61h-4.873v-.967l2.3-2.451c.316-.345.549-.646.698-.904.153-.257.23-.501.23-.732 0-.316-.08-.563-.24-.742-.159-.183-.387-.274-.683-.274-.32 0-.571.111-.757.332-.182.218-.273.507-.273.865h-1.416c0-.433.102-.829.307-1.187.209-.358.502-.638.88-.84.377-.205.805-.307 1.283-.307.733 0 1.3.175 1.705.527.406.352.61.848.61 1.489 0 .352-.091.71-.274 1.074-.182.365-.494.79-.937 1.275l-1.616 1.704h3.056v1.138zm.996-.694c0-.224.075-.407.225-.547.153-.14.343-.21.571-.21.231 0 .422.07.572.21.153.14.23.323.23.547 0 .222-.076.402-.226.542-.15.137-.341.205-.576.205-.23 0-.421-.068-.571-.205-.15-.14-.225-.32-.225-.542zm0-3.999c0-.224.075-.407.225-.547.153-.14.343-.21.571-.21.231 0 .422.07.572.21.153.14.23.323.23.547 0 .222-.076.402-.226.542-.15.137-.341.205-.576.205-.23 0-.421-.068-.571-.205-.15-.14-.225-.32-.225-.542zm6.87 2.017h.806v1.138h-.806v1.538h-1.41v-1.538h-2.916l-.063-.889 2.964-4.683h1.425v4.434zm-2.983 0h1.572v-2.51l-.092.161-1.48 2.349zm4.76-.82l.411-3.614h3.984v1.177h-2.827l-.175 1.528c.335-.179.691-.268 1.069-.268.677 0 1.208.21 1.592.63.384.42.576 1.007.576 1.762 0 .459-.098.871-.293 1.236-.192.361-.469.643-.83.844-.362.199-.788.298-1.28.298-.43 0-.828-.086-1.196-.258-.368-.176-.659-.422-.874-.738-.212-.316-.324-.675-.337-1.079h1.397c.029.296.131.527.307.694.18.162.412.244.698.244.32 0 .565-.114.738-.342.172-.231.259-.557.259-.977 0-.403-.1-.713-.298-.927-.199-.215-.48-.323-.845-.323-.335 0-.607.088-.815.264l-.137.127-1.123-.278z" opacity=".655"/>
    <path fill="#fff" d="M16.981 224.805h-4.873v-.967l2.3-2.451c.316-.345.549-.646.698-.904.153-.257.23-.501.23-.732 0-.316-.08-.563-.24-.742-.159-.183-.387-.274-.683-.274-.319 0-.571.111-.757.332-.182.218-.273.507-.273.865h-1.416c0-.433.102-.829.307-1.187.209-.358.502-.638.88-.84.377-.205.805-.307 1.284-.307.732 0 1.3.175 1.704.527.407.352.61.848.61 1.489 0 .352-.091.71-.273 1.074-.183.365-.495.79-.938 1.275l-1.616 1.704h3.056v1.138zm.996-.694c0-.224.075-.407.225-.547.153-.14.344-.21.571-.21.232 0 .422.07.572.21.153.14.23.323.23.547 0 .222-.076.402-.225.542-.15.137-.342.205-.577.205-.23 0-.421-.068-.57-.205-.15-.14-.226-.32-.226-.542zm0-3.999c0-.224.075-.407.225-.547.153-.14.344-.21.571-.21.232 0 .422.07.572.21.153.14.23.323.23.547 0 .222-.076.402-.225.542-.15.137-.342.205-.577.205-.23 0-.421-.068-.57-.205-.15-.14-.226-.32-.226-.542zm6.124 4.693h-1.412v-5.44l-1.684.523v-1.148l2.944-1.054h.152v7.119zm2.524-3.496l.41-3.614h3.985v1.177h-2.828l-.175 1.528c.335-.179.691-.268 1.069-.268.677 0 1.208.21 1.592.63.384.42.576 1.007.576 1.762 0 .459-.098.871-.293 1.236-.192.361-.469.643-.83.844-.361.199-.788.298-1.28.298-.43 0-.828-.086-1.196-.258-.368-.176-.659-.422-.874-.738-.211-.316-.324-.675-.337-1.079h1.397c.03.296.132.527.307.694.18.162.412.244.699.244.319 0 .564-.114.737-.342.172-.231.259-.557.259-.977 0-.403-.1-.713-.298-.927-.199-.215-.48-.323-.845-.323-.335 0-.607.088-.815.264l-.137.127-1.123-.278zm6.035 4.106h-1.05l2.617-7.72h1.05l-2.617 7.72z"/>
    <path fill="#FFC35A" fill-rule="evenodd" d="M420.068 204.613c-1.042-.922-2.506-1.706-4.223-2.19l.01-.126c.191-1.983 14.142-32.691 13.47-37.843-.44-3.377 7.601 1.614 9.004 4.786 1.839 4.158-13.889 31.558-18.261 35.373" clip-rule="evenodd"/>
    <path fill="#FF9332" fill-rule="evenodd" d="M435.934 171.605c3.002-12.251-11.829-45.398-17.476-44.988-.301.025-.582.058-.856.097.93-.664 2.233-1.089 3.986-1.217 5.647-.41 20.473 32.737 17.476 44.988-.299 6.528-14.313 30.711-18.401 34.28-.378-.336-.83-.646-1.313-.935 5.378-6.954 16.321-26.466 16.587-32.225" clip-rule="evenodd"/>
    <path fill="#D88852" fill-rule="evenodd" d="M412.924 209.54c.782-2.903 3.449-5.521 5.048-8.337l2.675 1.358c-1.507 3.807-1.645 7.43-2.583 8.25-.332.281-5.401-.3-5.14-1.271" clip-rule="evenodd"/>
    <path fill="#D88852" fill-rule="evenodd" d="M418.637 209.399c-.358 1.256-.427 4.717-.989 4.699-.892-.036-.595-2.69-.473-4.291.179-2.16 1.462-.408 1.462-.408zm-4.07.062c-.552 1.209-1.86 5.137-2.509 5.021-1.155-.205.447-4.509 1.106-5.739 1.022-1.903 1.405.718 1.405.718h-.002zm.161-1.95c-.946-1.609-4.541.082-4.796-1.35-.202-1.15 4.274-.63 6.451-2.449 1.988-.81-1.655 3.799-1.655 3.799zm1.663 2.621c-.378 1.255-1.362 5.439-1.96 5.416-.978-.028.131-4.253.429-5.611.471-2.111 1.533.195 1.533.195" clip-rule="evenodd"/>
    <path fill="#FF9332" fill-rule="evenodd" d="M420.724 205.231l-5.366-2.8 3.13-7.84c3.258.661 5.026 1.548 7.036 4.479l-4.803 6.161" clip-rule="evenodd"/>
    <path fill="#FFC35A" fill-rule="evenodd" d="M418.936 201.757c0-.804.574-1.455 1.282-1.455.71 0 1.288.651 1.288 1.455s-.578 1.458-1.288 1.458c-.708 0-1.282-.654-1.282-1.458z" clip-rule="evenodd"/>
    <defs>
        <linearGradient id="paint0_linear" x1="376.443" x2="315.678" y1="210.351" y2="217.739" gradientUnits="userSpaceOnUse">
            <stop stop-color="#E6E7E9"/>
            <stop offset="1" stop-color="#C4D2E6"/>
        </linearGradient>
        <linearGradient id="paint1_linear" x1="378.698" x2="312.061" y1="210.342" y2="219.771" gradientUnits="userSpaceOnUse">
            <stop stop-color="#F8FCFF"/>
            <stop offset="1" stop-color="#fff"/>
        </linearGradient>
        <linearGradient id="paint2_linear" x1="376.443" x2="315.077" y1="210.433" y2="214.58" gradientUnits="userSpaceOnUse">
            <stop offset=".006" stop-color="#E3EEF9"/>
            <stop offset="1" stop-color="#C4D2E6"/>
        </linearGradient>
        <linearGradient id="paint3_linear" x1="382.573" x2="321.809" y1="221.112" y2="228.5" gradientUnits="userSpaceOnUse">
            <stop stop-color="#E6E7E9"/>
            <stop offset="1" stop-color="#C4D2E6"/>
        </linearGradient>
        <linearGradient id="paint4_linear" x1="384.828" x2="318.192" y1="221.103" y2="230.532" gradientUnits="userSpaceOnUse">
            <stop stop-color="#F8FCFF"/>
            <stop offset="1" stop-color="#fff"/>
        </linearGradient>
        <linearGradient id="paint5_linear" x1="382.573" x2="321.208" y1="221.194" y2="225.341" gradientUnits="userSpaceOnUse">
            <stop offset=".006" stop-color="#E3EEF9"/>
            <stop offset="1" stop-color="#C4D2E6"/>
        </linearGradient>
        <linearGradient id="paint6_linear" x1="376.443" x2="315.678" y1="230.334" y2="237.723" gradientUnits="userSpaceOnUse">
            <stop stop-color="#E6E7E9"/>
            <stop offset="1" stop-color="#C4D2E6"/>
        </linearGradient>
        <linearGradient id="paint7_linear" x1="378.698" x2="312.061" y1="230.325" y2="239.754" gradientUnits="userSpaceOnUse">
            <stop stop-color="#F8FCFF"/>
            <stop offset="1" stop-color="#fff"/>
        </linearGradient>
        <linearGradient id="paint8_linear" x1="376.443" x2="315.077" y1="230.416" y2="234.564" gradientUnits="userSpaceOnUse">
            <stop offset=".006" stop-color="#E3EEF9"/>
            <stop offset="1" stop-color="#C4D2E6"/>
        </linearGradient>
        <linearGradient id="paint9_linear" x1="379.508" x2="318.743" y1="239.557" y2="246.946" gradientUnits="userSpaceOnUse">
            <stop stop-color="#E6E7E9"/>
            <stop offset="1" stop-color="#C4D2E6"/>
        </linearGradient>
        <linearGradient id="paint10_linear" x1="381.763" x2="315.126" y1="239.549" y2="248.977" gradientUnits="userSpaceOnUse">
            <stop stop-color="#F8FCFF"/>
            <stop offset="1" stop-color="#fff"/>
        </linearGradient>
        <linearGradient id="paint11_linear" x1="379.508" x2="318.142" y1="239.639" y2="243.787" gradientUnits="userSpaceOnUse">
            <stop offset=".006" stop-color="#E3EEF9"/>
            <stop offset="1" stop-color="#C4D2E6"/>
        </linearGradient>
        <linearGradient id="paint12_linear" x1="376.443" x2="315.678" y1="248.781" y2="256.169" gradientUnits="userSpaceOnUse">
            <stop stop-color="#E6E7E9"/>
            <stop offset="1" stop-color="#C4D2E6"/>
        </linearGradient>
        <linearGradient id="paint13_linear" x1="378.698" x2="312.061" y1="248.772" y2="258.201" gradientUnits="userSpaceOnUse">
            <stop stop-color="#F8FCFF"/>
            <stop offset="1" stop-color="#fff"/>
        </linearGradient>
        <linearGradient id="paint14_linear" x1="376.443" x2="315.077" y1="248.863" y2="253.01" gradientUnits="userSpaceOnUse">
            <stop offset=".006" stop-color="#E3EEF9"/>
            <stop offset="1" stop-color="#C4D2E6"/>
        </linearGradient>
        <linearGradient id="paint15_linear" x1="379.508" x2="318.743" y1="258.004" y2="265.392" gradientUnits="userSpaceOnUse">
            <stop stop-color="#E6E7E9"/>
            <stop offset="1" stop-color="#C4D2E6"/>
        </linearGradient>
        <linearGradient id="paint16_linear" x1="381.763" x2="315.126" y1="257.995" y2="267.424" gradientUnits="userSpaceOnUse">
            <stop stop-color="#F8FCFF"/>
            <stop offset="1" stop-color="#fff"/>
        </linearGradient>
        <linearGradient id="paint17_linear" x1="379.508" x2="318.142" y1="258.086" y2="262.233" gradientUnits="userSpaceOnUse">
            <stop offset=".006" stop-color="#E3EEF9"/>
            <stop offset="1" stop-color="#C4D2E6"/>
        </linearGradient>
        <linearGradient id="paint18_linear" x1="376.443" x2="315.678" y1="267.227" y2="274.616" gradientUnits="userSpaceOnUse">
            <stop stop-color="#E6E7E9"/>
            <stop offset="1" stop-color="#C4D2E6"/>
        </linearGradient>
        <linearGradient id="paint19_linear" x1="378.698" x2="312.061" y1="267.219" y2="276.647" gradientUnits="userSpaceOnUse">
            <stop stop-color="#F8FCFF"/>
            <stop offset="1" stop-color="#fff"/>
        </linearGradient>
        <linearGradient id="paint20_linear" x1="376.443" x2="315.077" y1="267.309" y2="271.457" gradientUnits="userSpaceOnUse">
            <stop offset=".006" stop-color="#E3EEF9"/>
            <stop offset="1" stop-color="#C4D2E6"/>
        </linearGradient>
        <linearGradient id="paint21_linear" x1="382.573" x2="321.809" y1="276.45" y2="283.839" gradientUnits="userSpaceOnUse">
            <stop stop-color="#E6E7E9"/>
            <stop offset="1" stop-color="#C4D2E6"/>
        </linearGradient>
        <linearGradient id="paint22_linear" x1="384.828" x2="318.192" y1="276.441" y2="285.87" gradientUnits="userSpaceOnUse">
            <stop stop-color="#F8FCFF"/>
            <stop offset="1" stop-color="#fff"/>
        </linearGradient>
        <linearGradient id="paint23_linear" x1="382.573" x2="321.208" y1="276.532" y2="280.679" gradientUnits="userSpaceOnUse">
            <stop offset=".006" stop-color="#E3EEF9"/>
            <stop offset="1" stop-color="#C4D2E6"/>
        </linearGradient>
        <linearGradient id="paint24_linear" x1="376.443" x2="315.678" y1="285.673" y2="293.062" gradientUnits="userSpaceOnUse">
            <stop stop-color="#E6E7E9"/>
            <stop offset="1" stop-color="#C4D2E6"/>
        </linearGradient>
        <linearGradient id="paint25_linear" x1="378.698" x2="312.061" y1="285.664" y2="295.093" gradientUnits="userSpaceOnUse">
            <stop stop-color="#F8FCFF"/>
            <stop offset="1" stop-color="#fff"/>
        </linearGradient>
        <linearGradient id="paint26_linear" x1="376.443" x2="315.077" y1="285.755" y2="289.902" gradientUnits="userSpaceOnUse">
            <stop offset=".006" stop-color="#E3EEF9"/>
            <stop offset="1" stop-color="#C4D2E6"/>
        </linearGradient>
        <linearGradient id="paint27_linear" x1="373.376" x2="312.611" y1="296.742" y2="304.13" gradientUnits="userSpaceOnUse">
            <stop stop-color="#E6E7E9"/>
            <stop offset="1" stop-color="#C4D2E6"/>
        </linearGradient>
        <linearGradient id="paint28_linear" x1="375.631" x2="308.994" y1="296.733" y2="306.161" gradientUnits="userSpaceOnUse">
            <stop stop-color="#F8FCFF"/>
            <stop offset="1" stop-color="#fff"/>
        </linearGradient>
        <linearGradient id="paint29_linear" x1="373.376" x2="312.01" y1="296.824" y2="300.971" gradientUnits="userSpaceOnUse">
            <stop offset=".006" stop-color="#E3EEF9"/>
            <stop offset="1" stop-color="#C4D2E6"/>
        </linearGradient>
        <linearGradient id="paint30_linear" x1="382.573" x2="321.809" y1="306.579" y2="313.968" gradientUnits="userSpaceOnUse">
            <stop stop-color="#E6E7E9"/>
            <stop offset="1" stop-color="#C4D2E6"/>
        </linearGradient>
        <linearGradient id="paint31_linear" x1="384.828" x2="318.192" y1="306.57" y2="315.999" gradientUnits="userSpaceOnUse">
            <stop stop-color="#F8FCFF"/>
            <stop offset="1" stop-color="#fff"/>
        </linearGradient>
        <linearGradient id="paint32_linear" x1="382.573" x2="321.208" y1="306.661" y2="310.808" gradientUnits="userSpaceOnUse">
            <stop offset=".006" stop-color="#E3EEF9"/>
            <stop offset="1" stop-color="#C4D2E6"/>
        </linearGradient>
        <linearGradient id="paint33_linear" x1="265.393" x2="265.393" y1="209.958" y2="310.834" gradientUnits="userSpaceOnUse">
            <stop stop-color="#A3A7B8"/>
            <stop offset="1" stop-opacity=".5"/>
        </linearGradient>
        <linearGradient id="paint34_linear" x1="288.499" x2="241.077" y1="221.063" y2="299.626" gradientUnits="userSpaceOnUse">
            <stop stop-color="#D5DDED"/>
            <stop offset="1" stop-color="#C6D3DD"/>
        </linearGradient>
        <linearGradient id="paint35_linear" x1="298.378" x2="234.884" y1="226.829" y2="280.448" gradientUnits="userSpaceOnUse">
            <stop stop-color="#E6E7E9"/>
            <stop offset="1" stop-color="#C4D2E6"/>
        </linearGradient>
        <linearGradient id="paint36_linear" x1="283.007" x2="227.145" y1="223.427" y2="280.198" gradientUnits="userSpaceOnUse">
            <stop stop-color="#EEE"/>
            <stop offset="1" stop-color="#fff"/>
        </linearGradient>
        <linearGradient id="paint37_linear" x1="295.842" x2="253.392" y1="235.893" y2="304.883" gradientUnits="userSpaceOnUse">
            <stop stop-color="#EEE"/>
            <stop offset="1" stop-color="#fff"/>
        </linearGradient>
        <linearGradient id="paint38_linear" x1="283.427" x2="270.982" y1="215.86" y2="241.988" gradientUnits="userSpaceOnUse">
            <stop stop-color="#EBF3FF"/>
            <stop offset="1" stop-color="#BDC7D6"/>
        </linearGradient>
        <linearGradient id="paint39_linear" x1="249.571" x2="260.551" y1="299.551" y2="276.497" gradientUnits="userSpaceOnUse">
            <stop stop-color="#EFF6FF"/>
            <stop offset="1" stop-color="#C8D2DE"/>
        </linearGradient>
        <linearGradient id="paint40_linear" x1="280.039" x2="272.167" y1="271.909" y2="295.779" gradientUnits="userSpaceOnUse">
            <stop stop-color="#DBE3EA"/>
            <stop offset="1" stop-color="#fff" stop-opacity=".7"/>
        </linearGradient>
        <filter id="filter0_d" width="133.847" height="155.296" x="283.957" y="179.916" color-interpolation-filters="sRGB" filterUnits="userSpaceOnUse">
            <feFlood flood-opacity="0" result="BackgroundImageFix"/>
            <feColorMatrix in="SourceAlpha" values="0 0 0 0 0 0 0 0 0 0 0 0 0 0 0 0 0 0 127 0"/>
            <feOffset dx="5" dy="-1"/>
            <feGaussianBlur stdDeviation="12"/>
            <feColorMatrix values="0 0 0 0 0 0 0 0 0 0 0 0 0 0 0 0 0 0 0.11 0"/>
            <feBlend in2="BackgroundImageFix" result="effect1_dropShadow"/>
            <feBlend in="SourceGraphic" in2="effect1_dropShadow" result="shape"/>
        </filter>
        <filter id="filter1_i" width="38.302" height="58.3" x="246.254" y="231.104" color-interpolation-filters="sRGB" filterUnits="userSpaceOnUse">
            <feFlood flood-opacity="0" result="BackgroundImageFix"/>
            <feBlend in="SourceGraphic" in2="BackgroundImageFix" result="shape"/>
            <feColorMatrix in="SourceAlpha" result="hardAlpha" values="0 0 0 0 0 0 0 0 0 0 0 0 0 0 0 0 0 0 127 0"/>
            <feOffset/>
            <feGaussianBlur stdDeviation=".5"/>
            <feComposite in2="hardAlpha" k2="-1" k3="1" operator="arithmetic"/>
            <feColorMatrix values="0 0 0 0 0.470588 0 0 0 0 0.52549 0 0 0 0 0.576471 0 0 0 1 0"/>
            <feBlend in2="shape" result="effect1_innerShadow"/>
        </filter>
        <pattern id="pattern0" width="1" height="1" patternContentUnits="objectBoundingBox">
            <use transform="matrix(.00097 0 0 .00165 0 -.083)" xlink:href="#image0"/>
        </pattern>
    </defs>
</svg>
